<svg xmlns="http://www.w3.org/2000/svg" xmlns:xlink="http://www.w3.org/1999/xlink" version="1.2" width="215.90mm" height="279.40mm" viewBox="0 0 153.5737 198.7425">
<!-- Page: 1/1 -->
<text transform="translate(9.0337, 6.3236)" font-family="Century Schoolbook L" font-size="2.1999" text-anchor="start" fill="#E8EAF0">
<tspan>
 </tspan>
</text>
<text transform="translate(52.8546, 9.6283)" font-family="Century Schoolbook L" font-weight="bold" font-size="3.1113" text-anchor="start" fill="#E8EAF0">
<tspan>
All the way my Savior leads me</tspan>
</text>
<text transform="translate(53.8362, 13.1283)" font-family="Century Schoolbook L" font-weight="bold" font-size="2.1999" text-anchor="start" fill="#E8EAF0">
<tspan>
Comfort in Trials — By the Lord’s Leading</tspan>
</text>
<text transform="translate(137.3912, 17.7376)" font-family="Century Schoolbook L" font-size="5.8739" text-anchor="start" fill="#E8EAF0">
<tspan>
701</tspan>
</text>
<line transform="translate(9.0337, 27.8175)" stroke-linejoin="round" stroke-linecap="round" stroke-width="0.1164" stroke="#E8EAF0" x1="0.0582" y1="-0.0000" x2="138.1582" y2="-0.0000"/>
<line transform="translate(9.0337, 26.8175)" stroke-linejoin="round" stroke-linecap="round" stroke-width="0.1164" stroke="#E8EAF0" x1="0.0582" y1="-0.0000" x2="138.1582" y2="-0.0000"/>
<line transform="translate(9.0337, 25.8175)" stroke-linejoin="round" stroke-linecap="round" stroke-width="0.1164" stroke="#E8EAF0" x1="0.0582" y1="-0.0000" x2="138.1582" y2="-0.0000"/>
<line transform="translate(9.0337, 24.8175)" stroke-linejoin="round" stroke-linecap="round" stroke-width="0.1164" stroke="#E8EAF0" x1="0.0582" y1="-0.0000" x2="138.1582" y2="-0.0000"/>
<line transform="translate(9.0337, 23.8175)" stroke-linejoin="round" stroke-linecap="round" stroke-width="0.1164" stroke="#E8EAF0" x1="0.0582" y1="-0.0000" x2="138.1582" y2="-0.0000"/>
<rect transform="translate(95.5889, 25.8175)" x="0.0000" y="-2.0000" width="0.2212" height="4.0000" ry="0.0000" fill="#E8EAF0"/>
<rect transform="translate(60.7652, 25.8175)" x="0.0000" y="-2.0000" width="0.2212" height="4.0000" ry="0.0000" fill="#E8EAF0"/>
<rect transform="translate(123.5341, 25.8175)" x="0.0000" y="-2.0000" width="0.2212" height="4.0000" ry="0.0000" fill="#E8EAF0"/>
<rect transform="translate(30.2551, 25.8175)" x="0.0000" y="-2.0000" width="0.2212" height="4.0000" ry="0.0000" fill="#E8EAF0"/>
<rect transform="translate(147.0289, 25.8175)" x="0.0000" y="-2.0000" width="0.2212" height="4.0000" ry="0.0000" fill="#E8EAF0"/>
<rect transform="translate(125.6971, 25.8175)" x="-0.0757" y="0.2482" width="0.1514" height="3.0852" ry="0.0500" fill="#E8EAF0"/>
<text transform="translate(123.4825, 31.8927)" font-family="Century Schoolbook L" font-size="2.4695" text-anchor="start" fill="#E8EAF0">
<tspan>
side?</tspan>
</text>
<path transform="translate(125.6214, 25.8175) scale(0.0040, -0.0040)" d="M312 63c0 23 -20 40 -41 40c-4 0 -7 -1 -11 -2c-30 -8 -75 -38 -111 -61s-81 -52 -101 -76c-7 -8 -10 -17 -10 -27c0 -23 19 -40 40 -40c4 0 8 1 12 2c30 8 75 38 111 61s81 52 101 76c7 8 10 17 10 27zM258 140c51 0 92 -23 92 -78c0 -19 -4 -38 -10 -56
c-11 -38 -31 -75 -64 -97c-53 -36 -112 -49 -185 -49c-51 0 -91 23 -91 78c0 19 4 38 10 56c11 38 30 75 63 97c53 36 112 49 185 49z" fill="#E8EAF0"/>
<text transform="translate(125.6214, 22.3175)" font-family="sans-serif" font-size="1.9603" text-anchor="start" fill="#E8EAF0">
<tspan>
G</tspan>
</text>
<text transform="translate(127.1579, 22.3175)" font-family="sans-serif" font-size="1.9603" text-anchor="start" fill="#E8EAF0">
<tspan/>
</text>
<text transform="translate(127.1579, 22.3175)" font-family="sans-serif" font-size="1.9603" text-anchor="start" fill="#E8EAF0">
<tspan/>
</text>
<text transform="translate(127.1579, 20.8175)" font-family="sans-serif" font-size="1.3858" text-anchor="start" fill="#E8EAF0">
<tspan/>
</text>
<rect transform="translate(119.7830, 25.8175)" x="-0.0757" y="-2.1795" width="0.1514" height="2.5063" ry="0.0500" fill="#E8EAF0"/>
<text transform="translate(117.8996, 31.8927)" font-family="Century Schoolbook L" font-size="2.4695" text-anchor="start" fill="#E8EAF0">
<tspan>
be</tspan>
</text>
<path transform="translate(118.5440, 26.3175) scale(0.0040, -0.0040)" d="M214 140c59 0 115 -32 115 -97c0 -72 -54 -121 -101 -149c-35 -21 -74 -34 -114 -34c-59 0 -114 32 -114 97c0 72 54 121 101 149c35 21 73 34 113 34z" fill="#E8EAF0"/>
<text transform="translate(15.3205, 31.8927)" font-family="Century Schoolbook L" font-weight="bold" font-size="2.1999" text-anchor="start" fill="#E8EAF0">
<tspan>
1.</tspan>
</text>
<path transform="translate(107.0752, 27.3175) scale(0.0040, -0.0040)" d="M214 140c59 0 115 -32 115 -97c0 -72 -54 -121 -101 -149c-35 -21 -74 -34 -114 -34c-59 0 -114 32 -114 97c0 72 54 121 101 149c35 21 73 34 113 34z" fill="#E8EAF0"/>
<text transform="translate(106.6229, 31.8927)" font-family="Century Schoolbook L" font-size="2.4695" text-anchor="start" fill="#E8EAF0">
<tspan>
to</tspan>
</text>
<rect transform="translate(108.3142, 25.8175)" x="-0.0757" y="-2.0000" width="0.1514" height="3.3269" ry="0.0500" fill="#E8EAF0"/>
<path transform="translate(108.3899, 23.8675) scale(0.0040, -0.0040)" d="M0 0c0 -197 209 -334 209 -531c0 -71 -15 -140 -41 -206c-5 -9 -14 -13 -22 -13c-14 0 -29 12 -26 30c27 60 43 124 43 189c0 102 -93 206 -163 281h-19v250h19z" fill="#E8EAF0"/>
<text transform="translate(112.7136, 22.3175)" font-family="sans-serif" font-size="1.9603" text-anchor="start" fill="#E8EAF0">
<tspan>
D</tspan>
</text>
<text transform="translate(114.2074, 22.3175)" font-family="sans-serif" font-size="1.9603" text-anchor="start" fill="#E8EAF0">
<tspan/>
</text>
<text transform="translate(114.2074, 22.3175)" font-family="sans-serif" font-size="1.9603" text-anchor="start" fill="#E8EAF0">
<tspan/>
</text>
<text transform="translate(114.2074, 20.8175)" font-family="sans-serif" font-size="1.3858" text-anchor="start" fill="#E8EAF0">
<tspan/>
</text>
<text transform="translate(114.2074, 20.8175)" font-family="sans-serif" font-size="1.3858" text-anchor="start" fill="#E8EAF0">
<tspan>
7</tspan>
</text>
<path transform="translate(112.7136, 26.8175) scale(0.0040, -0.0040)" d="M214 140c59 0 115 -32 115 -97c0 -72 -54 -121 -101 -149c-35 -21 -74 -34 -114 -34c-59 0 -114 32 -114 97c0 72 54 121 101 149c35 21 73 34 113 34z" fill="#E8EAF0"/>
<text transform="translate(111.3863, 31.8927)" font-family="Century Schoolbook L" font-size="2.4695" text-anchor="start" fill="#E8EAF0">
<tspan>
ask</tspan>
</text>
<rect transform="translate(113.9526, 25.8175)" x="-0.0757" y="-2.0023" width="0.1514" height="2.8292" ry="0.0500" fill="#E8EAF0"/>
<path transform="translate(20.9616, 25.3175) scale(0.0040, -0.0040)" d="M0 0c0 30 25 55 55 55s55 -25 55 -55s-25 -55 -55 -55s-55 25 -55 55z" fill="#E8EAF0"/>
<polygon transform="translate(143.1429, 28.4993)" stroke-linejoin="round" stroke-linecap="round" stroke-width="0.1000" fill="#E8EAF0" stroke="#E8EAF0" points="1.1257 -0.1900 1.1257 0.1900 0.0500 0.1900 0.0500 -0.1900"/>
<polygon transform="translate(137.5599, 29.3175)" stroke-linejoin="round" stroke-linecap="round" stroke-width="0.1000" fill="#E8EAF0" stroke="#E8EAF0" points="6.7086 -0.1900 6.7086 0.1900 0.0500 0.1900 0.0500 -0.1900"/>
<rect transform="translate(121.6628, 31.8927)" x="0.0000" y="-0.5714" width="0.6600" height="0.1514" ry="0.0466" fill="#E8EAF0"/>
<polygon transform="translate(113.8769, 23.8175)" stroke-linejoin="round" stroke-linecap="round" stroke-width="0.1000" fill="#E8EAF0" stroke="#E8EAF0" points="5.9318 -0.3718 5.9318 0.0082 0.0500 0.1900 0.0500 -0.1900"/>
<polygon transform="translate(83.6217, 23.6357)" stroke-linejoin="round" stroke-linecap="round" stroke-width="0.1000" fill="#E8EAF0" stroke="#E8EAF0" points="8.4925 -0.8264 8.4925 -0.4464 0.0500 0.1900 0.0500 -0.1900"/>
<rect transform="translate(52.8007, 31.8927)" x="0.0000" y="-0.5714" width="0.6600" height="0.1514" ry="0.0466" fill="#E8EAF0"/>
<polygon transform="translate(50.4269, 23.6357)" stroke-linejoin="round" stroke-linecap="round" stroke-width="0.1000" fill="#E8EAF0" stroke="#E8EAF0" points="5.9659 -0.0082 5.9659 0.3718 0.0500 0.1900 0.0500 -0.1900"/>
<polygon transform="translate(25.4714, 28.4993)" stroke-linejoin="round" stroke-linecap="round" stroke-width="0.1000" fill="#E8EAF0" stroke="#E8EAF0" points="1.1257 -0.1900 1.1257 0.1900 0.0500 0.1900 0.0500 -0.1900"/>
<polygon transform="translate(19.2056, 29.3175)" stroke-linejoin="round" stroke-linecap="round" stroke-width="0.1000" fill="#E8EAF0" stroke="#E8EAF0" points="7.3915 -0.1900 7.3915 0.1900 0.0500 0.1900 0.0500 -0.1900"/>
<rect transform="translate(19.2812, 25.8175)" x="-0.0757" y="0.1731" width="0.1514" height="3.3269" ry="0.0500" fill="#E8EAF0"/>
<path transform="translate(137.5599, 25.8175) scale(0.0040, -0.0040)" d="M214 140c59 0 115 -32 115 -97c0 -72 -54 -121 -101 -149c-35 -21 -74 -34 -114 -34c-59 0 -114 32 -114 97c0 72 54 121 101 149c35 21 73 34 113 34z" fill="#E8EAF0"/>
<text transform="translate(135.8912, 31.8927)" font-family="Century Schoolbook L" font-size="2.4695" text-anchor="start" fill="#E8EAF0">
<tspan>
Can</tspan>
</text>
<path transform="translate(139.3160, 25.3175) scale(0.0040, -0.0040)" d="M0 0c0 30 25 55 55 55s55 -25 55 -55s-25 -55 -55 -55s-55 25 -55 55z" fill="#E8EAF0"/>
<rect transform="translate(137.6356, 25.8175)" x="-0.0757" y="0.1731" width="0.1514" height="3.3269" ry="0.0500" fill="#E8EAF0"/>
<path transform="translate(144.1672, 25.8175) scale(0.0040, -0.0040)" d="M214 140c59 0 115 -32 115 -97c0 -72 -54 -121 -101 -149c-35 -21 -74 -34 -114 -34c-59 0 -114 32 -114 97c0 72 54 121 101 149c35 21 73 34 113 34z" fill="#E8EAF0"/>
<text transform="translate(144.3124, 31.8927)" font-family="Century Schoolbook L" font-size="2.4695" text-anchor="start" fill="#E8EAF0">
<tspan>
I</tspan>
</text>
<rect transform="translate(144.2429, 25.8175)" x="-0.0757" y="0.1731" width="0.1514" height="3.3269" ry="0.0500" fill="#E8EAF0"/>
<text transform="translate(19.2056, 22.3175)" font-family="sans-serif" font-size="1.9603" text-anchor="start" fill="#E8EAF0">
<tspan>
G</tspan>
</text>
<text transform="translate(20.7420, 22.3175)" font-family="sans-serif" font-size="1.9603" text-anchor="start" fill="#E8EAF0">
<tspan/>
</text>
<text transform="translate(20.7420, 22.3175)" font-family="sans-serif" font-size="1.9603" text-anchor="start" fill="#E8EAF0">
<tspan/>
</text>
<text transform="translate(20.7420, 20.8175)" font-family="sans-serif" font-size="1.3858" text-anchor="start" fill="#E8EAF0">
<tspan/>
</text>
<path transform="translate(42.8571, 25.8175) scale(0.0040, -0.0040)" d="M214 140c59 0 115 -32 115 -97c0 -72 -54 -121 -101 -149c-35 -21 -74 -34 -114 -34c-59 0 -114 32 -114 97c0 72 54 121 101 149c35 21 73 34 113 34z" fill="#E8EAF0"/>
<text transform="translate(41.7645, 31.8927)" font-family="Century Schoolbook L" font-size="2.4695" text-anchor="start" fill="#E8EAF0">
<tspan>
my</tspan>
</text>
<rect transform="translate(42.9328, 25.8175)" x="-0.0757" y="0.1731" width="0.1514" height="3.2019" ry="0.0500" fill="#E8EAF0"/>
<path transform="translate(43.0084, 29.1425) scale(0.0040, -0.0040)" d="M0 0h-19v250h19c96 59 223 149 223 259c0 56 -15 111 -41 161c-3 18 11 30 25 30c8 0 17 -4 22 -13c25 -56 41 -116 41 -178c0 -204 -270 -305 -270 -509z" fill="#E8EAF0"/>
<path transform="translate(19.2056, 25.8175) scale(0.0040, -0.0040)" d="M214 140c59 0 115 -32 115 -97c0 -72 -54 -121 -101 -149c-35 -21 -74 -34 -114 -34c-59 0 -114 32 -114 97c0 72 54 121 101 149c35 21 73 34 113 34z" fill="#E8EAF0"/>
<path transform="translate(49.2637, 26.3175) scale(0.0040, -0.0040)" d="M214 140c59 0 115 -32 115 -97c0 -72 -54 -121 -101 -149c-35 -21 -74 -34 -114 -34c-59 0 -114 32 -114 97c0 72 54 121 101 149c35 21 73 34 113 34z" fill="#E8EAF0"/>
<text transform="translate(47.8084, 31.8927)" font-family="Century Schoolbook L" font-size="2.4695" text-anchor="start" fill="#E8EAF0">
<tspan>
Sav</tspan>
</text>
<rect transform="translate(50.5026, 25.8175)" x="-0.0757" y="-2.1795" width="0.1514" height="2.5063" ry="0.0500" fill="#E8EAF0"/>
<path transform="translate(9.8338, 26.8175) scale(0.0040, -0.0040)" d="M379 264c3 0 7 1 10 1c157 0 258 -129 258 -263c0 -77 -33 -155 -108 -211c-22 -16 -46 -29 -72 -37c3 -33 4 -66 4 -99c0 -21 0 -41 -1 -62c-7 -121 -91 -229 -211 -229c-108 0 -196 88 -196 197c0 58 54 103 113 103c54 0 95 -47 95 -103c0 -52 -43 -95 -95 -95
c-9 0 -18 1 -27 4c25 -37 66 -61 113 -61c95 0 156 93 162 191c1 19 2 38 2 57c0 29 -1 58 -3 87c-29 -5 -58 -8 -88 -8c-189 0 -333 173 -333 376c0 177 129 308 244 443c-20 62 -40 124 -48 189c-7 52 -7 105 -7 158c0 114 54 221 147 288c4 3 8 4 12 4c5 0 9 -2 13 -5
c72 -83 135 -243 135 -356c0 -142 -84 -255 -176 -364c21 -68 40 -136 57 -205zM463 -201c65 24 110 94 110 161c0 88 -64 175 -167 188c24 -114 44 -227 57 -349zM77 25c0 -133 128 -243 261 -243c27 0 55 1 81 5c-13 126 -35 244 -60 362c-79 -8 -124 -60 -124 -118
c0 -43 25 -88 80 -120c5 -5 7 -11 7 -17c0 -12 -10 -23 -23 -23c-3 0 -7 1 -10 2c-81 43 -118 115 -118 186c0 89 60 177 163 200c-14 57 -30 113 -47 169c-105 -122 -210 -243 -210 -403zM403 1038c-99 -46 -161 -145 -161 -254c0 -71 21 -130 39 -188
c78 97 142 199 142 324c0 51 -4 72 -20 118z" fill="#E8EAF0"/>
<path transform="translate(55.1282, 26.8175) scale(0.0040, -0.0040)" d="M214 140c59 0 115 -32 115 -97c0 -72 -54 -121 -101 -149c-35 -21 -74 -34 -114 -34c-59 0 -114 32 -114 97c0 72 54 121 101 149c35 21 73 34 113 34z" fill="#E8EAF0"/>
<text transform="translate(54.2277, 31.8927)" font-family="Century Schoolbook L" font-size="2.4695" text-anchor="start" fill="#E8EAF0">
<tspan>
ior</tspan>
</text>
<rect transform="translate(56.3672, 25.8175)" x="-0.0757" y="-2.0023" width="0.1514" height="2.8291" ry="0.0500" fill="#E8EAF0"/>
<path transform="translate(26.4957, 25.8175) scale(0.0040, -0.0040)" d="M214 140c59 0 115 -32 115 -97c0 -72 -54 -121 -101 -149c-35 -21 -74 -34 -114 -34c-59 0 -114 32 -114 97c0 72 54 121 101 149c35 21 73 34 113 34z" fill="#E8EAF0"/>
<text transform="translate(25.2965, 31.8927)" font-family="Century Schoolbook L" font-size="2.4695" text-anchor="start" fill="#E8EAF0">
<tspan>
the</tspan>
</text>
<rect transform="translate(26.5714, 25.8175)" x="-0.0757" y="0.1731" width="0.1514" height="3.3269" ry="0.0500" fill="#E8EAF0"/>
<path transform="translate(32.9393, 25.8175) scale(0.0040, -0.0040)" d="M214 140c59 0 115 -32 115 -97c0 -72 -54 -121 -101 -149c-35 -21 -74 -34 -114 -34c-59 0 -114 32 -114 97c0 72 54 121 101 149c35 21 73 34 113 34z" fill="#E8EAF0"/>
<text transform="translate(31.2919, 31.8927)" font-family="Century Schoolbook L" font-size="2.4695" text-anchor="start" fill="#E8EAF0">
<tspan>
way</tspan>
</text>
<path transform="translate(34.6954, 25.3175) scale(0.0040, -0.0040)" d="M0 0c0 30 25 55 55 55s55 -25 55 -55s-25 -55 -55 -55s-55 25 -55 55z" fill="#E8EAF0"/>
<rect transform="translate(33.0150, 25.8175)" x="-0.0757" y="0.1731" width="0.1514" height="3.1602" ry="0.0500" fill="#E8EAF0"/>
<rect transform="translate(73.8736, 25.8175)" x="-0.0757" y="-2.5000" width="0.1514" height="3.3269" ry="0.0500" fill="#E8EAF0"/>
<path transform="translate(15.5838, 27.8234) scale(0.0040, -0.0040)" d="M201 296c23 15 46 29 62 51c12 16 20 35 28 52c2 4 6 6 10 6c7 0 14 -5 14 -15v-233h76c11 0 16 -8 16 -16s-5 -16 -16 -16h-76v-2c0 -50 30 -97 77 -97c9 0 12 -7 12 -13s-3 -13 -12 -13c-46 0 -92 13 -138 13s-93 -13 -139 -13c-9 0 -12 7 -12 13s3 13 12 13
c47 0 77 47 77 97v2h-160c-26 0 -34 15 -34 25c0 3 1 6 2 7c79 91 131 205 131 325c0 10 7 18 15 18h3c24 -7 49 -13 74 -13s50 6 74 13c2 1 3 1 5 1c9 0 15 -7 15 -13c0 -2 0 -4 -2 -6l-283 -325h160v115c0 9 1 19 9 24z" fill="#E8EAF0"/>
<path transform="translate(15.7118, 25.8175) scale(0.0040, -0.0040)" d="M153 474c-30 0 -63 -8 -63 -34c0 -21 35 -25 35 -46c0 -31 -25 -56 -56 -56s-56 25 -56 56c0 66 68 106 140 106c92 0 171 -32 171 -114c0 -42 -6 -79 -43 -96c-10 -5 -15 -15 -15 -25s5 -19 15 -24c41 -19 58 -56 58 -101c0 -93 -81 -140 -182 -140
c-80 0 -157 43 -157 116c0 35 29 64 64 64s64 -29 64 -64c0 -24 -39 -29 -39 -53c0 -29 35 -37 68 -37c47 0 59 59 59 114v28c0 47 -2 81 -46 81h-77c-11 0 -16 8 -16 16s5 16 16 16h77c44 0 46 37 46 86v19c0 53 -15 88 -63 88z" fill="#E8EAF0"/>
<path transform="translate(82.4585, 26.8175) scale(0.0040, -0.0040)" d="M214 140c59 0 115 -32 115 -97c0 -72 -54 -121 -101 -149c-35 -21 -74 -34 -114 -34c-59 0 -114 32 -114 97c0 72 54 121 101 149c35 21 73 34 113 34z" fill="#E8EAF0"/>
<text transform="translate(79.9789, 31.8927)" font-family="Century Schoolbook L" font-size="2.4695" text-anchor="start" fill="#E8EAF0">
<tspan>
What</tspan>
</text>
<rect transform="translate(83.6974, 25.8175)" x="-0.0757" y="-2.1874" width="0.1514" height="3.0143" ry="0.0500" fill="#E8EAF0"/>
<text transform="translate(18.1984, 31.8927)" font-family="Century Schoolbook L" font-size="2.4695" text-anchor="start" fill="#E8EAF0">
<tspan>
All</tspan>
</text>
<path transform="translate(90.8497, 25.8175) scale(0.0040, -0.0040)" d="M214 140c59 0 115 -32 115 -97c0 -72 -54 -121 -101 -149c-35 -21 -74 -34 -114 -34c-59 0 -114 32 -114 97c0 72 54 121 101 149c35 21 73 34 113 34z" fill="#E8EAF0"/>
<text transform="translate(88.7968, 31.8927)" font-family="Century Schoolbook L" font-size="2.4695" text-anchor="start" fill="#E8EAF0">
<tspan>
have</tspan>
</text>
<rect transform="translate(92.0886, 25.8175)" x="-0.0757" y="-2.8126" width="0.1514" height="2.6394" ry="0.0500" fill="#E8EAF0"/>
<text transform="translate(97.4954, 22.3175)" font-family="sans-serif" font-size="1.9603" text-anchor="start" fill="#E8EAF0">
<tspan>
A</tspan>
</text>
<text transform="translate(98.8185, 22.3175)" font-family="sans-serif" font-size="1.9603" text-anchor="start" fill="#E8EAF0">
<tspan/>
</text>
<text transform="translate(98.8185, 22.3175)" font-family="sans-serif" font-size="1.9603" text-anchor="start" fill="#E8EAF0">
<tspan>
m</tspan>
</text>
<text transform="translate(100.6964, 20.8175)" font-family="sans-serif" font-size="1.3858" text-anchor="start" fill="#E8EAF0">
<tspan/>
</text>
<path transform="translate(97.4954, 26.3175) scale(0.0040, -0.0040)" d="M214 140c59 0 115 -32 115 -97c0 -72 -54 -121 -101 -149c-35 -21 -74 -34 -114 -34c-59 0 -114 32 -114 97c0 72 54 121 101 149c35 21 73 34 113 34z" fill="#E8EAF0"/>
<text transform="translate(97.6406, 31.8927)" font-family="Century Schoolbook L" font-size="2.4695" text-anchor="start" fill="#E8EAF0">
<tspan>
I</tspan>
</text>
<path transform="translate(99.2515, 26.3175) scale(0.0040, -0.0040)" d="M0 0c0 30 25 55 55 55s55 -25 55 -55s-25 -55 -55 -55s-55 25 -55 55z" fill="#E8EAF0"/>
<rect transform="translate(98.7344, 25.8175)" x="-0.0757" y="-3.0000" width="0.1514" height="3.3269" ry="0.0500" fill="#E8EAF0"/>
<path transform="translate(62.9816, 28.3175) scale(0.0040, -0.0040)" d="M214 140c59 0 115 -32 115 -97c0 -72 -54 -121 -101 -149c-35 -21 -74 -34 -114 -34c-59 0 -114 32 -114 97c0 72 54 121 101 149c35 21 73 34 113 34z" fill="#E8EAF0"/>
<text transform="translate(60.6727, 31.8927)" font-family="Century Schoolbook L" font-size="2.4695" text-anchor="start" fill="#E8EAF0">
<tspan>
leads</tspan>
</text>
<rect transform="translate(64.2206, 25.8175)" x="-0.0757" y="-1.0000" width="0.1514" height="3.3269" ry="0.0500" fill="#E8EAF0"/>
<text transform="translate(71.2434, 31.8927)" font-family="Century Schoolbook L" font-size="2.4695" text-anchor="start" fill="#E8EAF0">
<tspan>
me;</tspan>
</text>
<path transform="translate(72.6347, 26.8175) scale(0.0040, -0.0040)" d="M214 140c59 0 115 -32 115 -97c0 -72 -54 -121 -101 -149c-35 -21 -74 -34 -114 -34c-59 0 -114 32 -114 97c0 72 54 121 101 149c35 21 73 34 113 34z" fill="#E8EAF0"/>
<path transform="translate(13.3337, 23.8175) scale(0.0040, -0.0040)" d="M198 -329c-12 0 -21 9 -21 21v138l-79 -30v-154c0 -12 -9 -21 -21 -21s-21 9 -21 21v138l-22 -8c-3 -1 -6 -2 -9 -2c-13 0 -25 11 -25 25v54c0 10 6 20 16 24l40 15v155l-22 -9c-3 -1 -6 -1 -9 -1c-13 0 -25 11 -25 25v54c0 10 6 19 16 23l40 15v154c0 12 9 21 21 21
s21 -9 21 -21v-138l79 30v154c0 12 9 21 21 21s21 -9 21 -21v-138l22 8c3 1 6 2 9 2c13 0 25 -11 25 -25v-54c0 -10 -6 -20 -16 -24l-40 -15v-155l22 9c3 1 6 1 9 1c13 0 25 -11 25 -25v-54c0 -10 -6 -19 -16 -23l-40 -15v-154c0 -12 -9 -21 -21 -21zM98 62v-154l79 30v154z
" fill="#E8EAF0"/>
<line transform="translate(9.0337, 40.9170)" stroke-linejoin="round" stroke-linecap="round" stroke-width="0.1164" stroke="#E8EAF0" x1="0.0582" y1="-0.0000" x2="138.1582" y2="-0.0000"/>
<line transform="translate(9.0337, 39.9170)" stroke-linejoin="round" stroke-linecap="round" stroke-width="0.1164" stroke="#E8EAF0" x1="0.0582" y1="-0.0000" x2="138.1582" y2="-0.0000"/>
<line transform="translate(9.0337, 38.9170)" stroke-linejoin="round" stroke-linecap="round" stroke-width="0.1164" stroke="#E8EAF0" x1="0.0582" y1="-0.0000" x2="138.1582" y2="-0.0000"/>
<line transform="translate(9.0337, 37.9170)" stroke-linejoin="round" stroke-linecap="round" stroke-width="0.1164" stroke="#E8EAF0" x1="0.0582" y1="-0.0000" x2="138.1582" y2="-0.0000"/>
<line transform="translate(9.0337, 36.9170)" stroke-linejoin="round" stroke-linecap="round" stroke-width="0.1164" stroke="#E8EAF0" x1="0.0582" y1="-0.0000" x2="138.1582" y2="-0.0000"/>
<rect transform="translate(147.0289, 38.9170)" x="0.0000" y="-2.0000" width="0.2212" height="4.0000" ry="0.0000" fill="#E8EAF0"/>
<rect transform="translate(116.9176, 38.9170)" x="0.0000" y="-2.0000" width="0.2212" height="4.0000" ry="0.0000" fill="#E8EAF0"/>
<rect transform="translate(83.0348, 38.9170)" x="0.0000" y="-2.0000" width="0.2212" height="4.0000" ry="0.0000" fill="#E8EAF0"/>
<rect transform="translate(46.4078, 38.9170)" x="0.0000" y="-2.0000" width="0.2212" height="4.0000" ry="0.0000" fill="#E8EAF0"/>
<rect transform="translate(104.4376, 38.9170)" x="-0.0757" y="-1.8220" width="0.1514" height="3.1489" ry="0.0500" fill="#E8EAF0"/>
<path transform="translate(110.3010, 39.9170) scale(0.0040, -0.0040)" d="M214 140c59 0 115 -32 115 -97c0 -72 -54 -121 -101 -149c-35 -21 -74 -34 -114 -34c-59 0 -114 32 -114 97c0 72 54 121 101 149c35 21 73 34 113 34z" fill="#E8EAF0"/>
<text transform="translate(109.2085, 44.5845)" font-family="Century Schoolbook L" font-size="2.4695" text-anchor="start" fill="#E8EAF0">
<tspan>
my</tspan>
</text>
<rect transform="translate(111.5400, 38.9170)" x="-0.0757" y="-2.1780" width="0.1514" height="3.0048" ry="0.0500" fill="#E8EAF0"/>
<text transform="translate(119.5013, 35.4170)" font-family="sans-serif" font-size="1.9603" text-anchor="start" fill="#E8EAF0">
<tspan>
D</tspan>
</text>
<text transform="translate(120.9950, 35.4170)" font-family="sans-serif" font-size="1.9603" text-anchor="start" fill="#E8EAF0">
<tspan/>
</text>
<text transform="translate(120.9950, 35.4170)" font-family="sans-serif" font-size="1.9603" text-anchor="start" fill="#E8EAF0">
<tspan/>
</text>
<text transform="translate(120.9950, 33.9170)" font-family="sans-serif" font-size="1.3858" text-anchor="start" fill="#E8EAF0">
<tspan/>
</text>
<path transform="translate(119.5013, 40.4170) scale(0.0040, -0.0040)" d="M312 63c0 23 -20 40 -41 40c-4 0 -7 -1 -11 -2c-30 -8 -75 -38 -111 -61s-81 -52 -101 -76c-7 -8 -10 -17 -10 -27c0 -23 19 -40 40 -40c4 0 8 1 12 2c30 8 75 38 111 61s81 52 101 76c7 8 10 17 10 27zM258 140c51 0 92 -23 92 -78c0 -19 -4 -38 -10 -56
c-11 -38 -31 -75 -64 -97c-53 -36 -112 -49 -185 -49c-51 0 -91 23 -91 78c0 19 4 38 10 56c11 38 30 75 63 97c53 36 112 49 185 49z" fill="#E8EAF0"/>
<text transform="translate(116.2314, 44.5845)" font-family="Century Schoolbook L" font-size="2.4695" text-anchor="start" fill="#E8EAF0">
<tspan>
Guide?</tspan>
</text>
<rect transform="translate(120.8241, 38.9170)" x="-0.0757" y="-2.0000" width="0.1514" height="3.2518" ry="0.0500" fill="#E8EAF0"/>
<path transform="translate(87.5704, 39.4170) scale(0.0040, -0.0040)" d="M0 0c0 30 25 55 55 55s55 -25 55 -55s-25 -55 -55 -55s-55 25 -55 55z" fill="#E8EAF0"/>
<rect transform="translate(87.0532, 38.9170)" x="-0.0757" y="-3.0000" width="0.1514" height="3.3269" ry="0.0500" fill="#E8EAF0"/>
<path transform="translate(95.8403, 40.9170) scale(0.0040, -0.0040)" d="M214 140c59 0 115 -32 115 -97c0 -72 -54 -121 -101 -149c-35 -21 -74 -34 -114 -34c-59 0 -114 32 -114 97c0 72 54 121 101 149c35 21 73 34 113 34z" fill="#E8EAF0"/>
<text transform="translate(94.4916, 44.5845)" font-family="Century Schoolbook L" font-size="2.4695" text-anchor="start" fill="#E8EAF0">
<tspan>
has</tspan>
</text>
<rect transform="translate(97.0792, 38.9170)" x="-0.0757" y="-1.5000" width="0.1514" height="3.3269" ry="0.0500" fill="#E8EAF0"/>
<path transform="translate(97.1549, 37.4670) scale(0.0040, -0.0040)" d="M0 0c0 -197 209 -334 209 -531c0 -71 -15 -140 -41 -206c-5 -9 -14 -13 -22 -13c-14 0 -29 12 -26 30c27 60 43 124 43 189c0 102 -93 206 -163 281h-19v250h19z" fill="#E8EAF0"/>
<path transform="translate(103.1987, 40.4170) scale(0.0040, -0.0040)" d="M214 140c59 0 115 -32 115 -97c0 -72 -54 -121 -101 -149c-35 -21 -74 -34 -114 -34c-59 0 -114 32 -114 97c0 72 54 121 101 149c35 21 73 34 113 34z" fill="#E8EAF0"/>
<text transform="translate(101.1885, 44.5845)" font-family="Century Schoolbook L" font-size="2.4695" text-anchor="start" fill="#E8EAF0">
<tspan>
been</tspan>
</text>
<rect transform="translate(140.1434, 44.5845)" x="0.0000" y="-0.5714" width="0.6600" height="0.1514" ry="0.0466" fill="#E8EAF0"/>
<polygon transform="translate(135.8213, 37.7352)" stroke-linejoin="round" stroke-linecap="round" stroke-width="0.1000" fill="#E8EAF0" stroke="#E8EAF0" points="7.4725 0.1736 7.4725 0.5536 0.0500 0.1900 0.0500 -0.1900"/>
<polygon transform="translate(104.3619, 37.0988)" stroke-linejoin="round" stroke-linecap="round" stroke-width="0.1000" fill="#E8EAF0" stroke="#E8EAF0" points="7.2037 -0.5536 7.2037 -0.1736 0.0500 0.1900 0.0500 -0.1900"/>
<polygon transform="translate(67.2613, 36.0988)" stroke-linejoin="round" stroke-linecap="round" stroke-width="0.1000" fill="#E8EAF0" stroke="#E8EAF0" points="9.9352 -0.1900 9.9352 0.1900 0.0500 0.1900 0.0500 -0.1900"/>
<rect transform="translate(53.5226, 44.5845)" x="0.0000" y="-0.5714" width="0.6600" height="0.1514" ry="0.0466" fill="#E8EAF0"/>
<rect transform="translate(38.2670, 44.5845)" x="0.0000" y="-0.5714" width="0.6600" height="0.1514" ry="0.0466" fill="#E8EAF0"/>
<polygon transform="translate(36.0789, 36.7352)" stroke-linejoin="round" stroke-linecap="round" stroke-width="0.1000" fill="#E8EAF0" stroke="#E8EAF0" points="6.1708 -0.0082 6.1708 0.3718 0.0500 0.1900 0.0500 -0.1900"/>
<text transform="translate(134.6580, 35.4170)" font-family="sans-serif" font-size="1.9603" text-anchor="start" fill="#E8EAF0">
<tspan>
D</tspan>
</text>
<text transform="translate(136.1518, 35.4170)" font-family="sans-serif" font-size="1.9603" text-anchor="start" fill="#E8EAF0">
<tspan/>
</text>
<text transform="translate(136.1518, 35.4170)" font-family="sans-serif" font-size="1.9603" text-anchor="start" fill="#E8EAF0">
<tspan/>
</text>
<text transform="translate(136.1518, 33.9170)" font-family="sans-serif" font-size="1.3858" text-anchor="start" fill="#E8EAF0">
<tspan/>
</text>
<text transform="translate(136.1518, 33.9170)" font-family="sans-serif" font-size="1.3858" text-anchor="start" fill="#E8EAF0">
<tspan>
7</tspan>
</text>
<path transform="translate(134.6580, 40.9170) scale(0.0040, -0.0040)" d="M214 140c59 0 115 -32 115 -97c0 -72 -54 -121 -101 -149c-35 -21 -74 -34 -114 -34c-59 0 -114 32 -114 97c0 72 54 121 101 149c35 21 73 34 113 34z" fill="#E8EAF0"/>
<text transform="translate(131.3249, 44.5845)" font-family="Century Schoolbook L" font-size="2.4695" text-anchor="start" fill="#E8EAF0">
<tspan>
Heav’n</tspan>
</text>
<rect transform="translate(135.8970, 38.9170)" x="-0.0757" y="-1.1781" width="0.1514" height="3.0050" ry="0.0500" fill="#E8EAF0"/>
<path transform="translate(142.0292, 41.4170) scale(0.0040, -0.0040)" d="M214 140c59 0 115 -32 115 -97c0 -72 -54 -121 -101 -149c-35 -21 -74 -34 -114 -34c-59 0 -114 32 -114 97c0 72 54 121 101 149c35 21 73 34 113 34z" fill="#E8EAF0"/>
<text transform="translate(141.6409, 44.5845)" font-family="Century Schoolbook L" font-size="2.4695" text-anchor="start" fill="#E8EAF0">
<tspan>
ly</tspan>
</text>
<rect transform="translate(143.2682, 38.9170)" x="-0.0757" y="-0.8219" width="0.1514" height="3.1487" ry="0.0500" fill="#E8EAF0"/>
<path transform="translate(28.3895, 38.9170) scale(0.0040, -0.0040)" d="M214 140c59 0 115 -32 115 -97c0 -72 -54 -121 -101 -149c-35 -21 -74 -34 -114 -34c-59 0 -114 32 -114 97c0 72 54 121 101 149c35 21 73 34 113 34z" fill="#E8EAF0"/>
<text transform="translate(27.0622, 44.5845)" font-family="Century Schoolbook L" font-size="2.4695" text-anchor="start" fill="#E8EAF0">
<tspan>
His</tspan>
</text>
<rect transform="translate(28.4652, 38.9170)" x="-0.0757" y="0.1731" width="0.1514" height="3.2019" ry="0.0500" fill="#E8EAF0"/>
<path transform="translate(28.5408, 42.2420) scale(0.0040, -0.0040)" d="M0 0h-19v250h19c96 59 223 149 223 259c0 56 -15 111 -41 161c-3 18 11 30 25 30c8 0 17 -4 22 -13c25 -56 41 -116 41 -178c0 -204 -270 -305 -270 -509z" fill="#E8EAF0"/>
<path transform="translate(34.9157, 39.4170) scale(0.0040, -0.0040)" d="M214 140c59 0 115 -32 115 -97c0 -72 -54 -121 -101 -149c-35 -21 -74 -34 -114 -34c-59 0 -114 32 -114 97c0 72 54 121 101 149c35 21 73 34 113 34z" fill="#E8EAF0"/>
<text transform="translate(33.7164, 44.5845)" font-family="Century Schoolbook L" font-size="2.4695" text-anchor="start" fill="#E8EAF0">
<tspan>
ten</tspan>
</text>
<rect transform="translate(36.1546, 38.9170)" x="-0.0757" y="-2.1796" width="0.1514" height="2.5064" ry="0.0500" fill="#E8EAF0"/>
<path transform="translate(40.9851, 39.9170) scale(0.0040, -0.0040)" d="M214 140c59 0 115 -32 115 -97c0 -72 -54 -121 -101 -149c-35 -21 -74 -34 -114 -34c-59 0 -114 32 -114 97c0 72 54 121 101 149c35 21 73 34 113 34z" fill="#E8EAF0"/>
<text transform="translate(39.7646, 44.5845)" font-family="Century Schoolbook L" font-size="2.4695" text-anchor="start" fill="#E8EAF0">
<tspan>
der</tspan>
</text>
<rect transform="translate(42.2241, 38.9170)" x="-0.0757" y="-2.0022" width="0.1514" height="2.8291" ry="0.0500" fill="#E8EAF0"/>
<text transform="translate(8.0521, 35.8243)" font-family="Century Schoolbook L" font-size="1.7463" text-anchor="start" fill="#E8EAF0">
<tspan>
5</tspan>
</text>
<path transform="translate(9.8338, 39.9170) scale(0.0040, -0.0040)" d="M379 264c3 0 7 1 10 1c157 0 258 -129 258 -263c0 -77 -33 -155 -108 -211c-22 -16 -46 -29 -72 -37c3 -33 4 -66 4 -99c0 -21 0 -41 -1 -62c-7 -121 -91 -229 -211 -229c-108 0 -196 88 -196 197c0 58 54 103 113 103c54 0 95 -47 95 -103c0 -52 -43 -95 -95 -95
c-9 0 -18 1 -27 4c25 -37 66 -61 113 -61c95 0 156 93 162 191c1 19 2 38 2 57c0 29 -1 58 -3 87c-29 -5 -58 -8 -88 -8c-189 0 -333 173 -333 376c0 177 129 308 244 443c-20 62 -40 124 -48 189c-7 52 -7 105 -7 158c0 114 54 221 147 288c4 3 8 4 12 4c5 0 9 -2 13 -5
c72 -83 135 -243 135 -356c0 -142 -84 -255 -176 -364c21 -68 40 -136 57 -205zM463 -201c65 24 110 94 110 161c0 88 -64 175 -167 188c24 -114 44 -227 57 -349zM77 25c0 -133 128 -243 261 -243c27 0 55 1 81 5c-13 126 -35 244 -60 362c-79 -8 -124 -60 -124 -118
c0 -43 25 -88 80 -120c5 -5 7 -11 7 -17c0 -12 -10 -23 -23 -23c-3 0 -7 1 -10 2c-81 43 -118 115 -118 186c0 89 60 177 163 200c-14 57 -30 113 -47 169c-105 -122 -210 -243 -210 -403zM403 1038c-99 -46 -161 -145 -161 -254c0 -71 21 -130 39 -188
c78 97 142 199 142 324c0 51 -4 72 -20 118z" fill="#E8EAF0"/>
<path transform="translate(13.3337, 36.9170) scale(0.0040, -0.0040)" d="M198 -329c-12 0 -21 9 -21 21v138l-79 -30v-154c0 -12 -9 -21 -21 -21s-21 9 -21 21v138l-22 -8c-3 -1 -6 -2 -9 -2c-13 0 -25 11 -25 25v54c0 10 6 20 16 24l40 15v155l-22 -9c-3 -1 -6 -1 -9 -1c-13 0 -25 11 -25 25v54c0 10 6 19 16 23l40 15v154c0 12 9 21 21 21
s21 -9 21 -21v-138l79 30v154c0 12 9 21 21 21s21 -9 21 -21v-138l22 8c3 1 6 2 9 2c13 0 25 -11 25 -25v-54c0 -10 -6 -20 -16 -24l-40 -15v-155l22 9c3 1 6 1 9 1c13 0 25 -11 25 -25v-54c0 -10 -6 -19 -16 -23l-40 -15v-154c0 -12 -9 -21 -21 -21zM98 62v-154l79 30v154z
" fill="#E8EAF0"/>
<text transform="translate(16.9338, 35.4170)" font-family="sans-serif" font-size="1.9603" text-anchor="start" fill="#E8EAF0">
<tspan>
G</tspan>
</text>
<text transform="translate(18.4702, 35.4170)" font-family="sans-serif" font-size="1.9603" text-anchor="start" fill="#E8EAF0">
<tspan/>
</text>
<text transform="translate(18.4702, 35.4170)" font-family="sans-serif" font-size="1.9603" text-anchor="start" fill="#E8EAF0">
<tspan/>
</text>
<text transform="translate(18.4702, 33.9170)" font-family="sans-serif" font-size="1.3858" text-anchor="start" fill="#E8EAF0">
<tspan/>
</text>
<path transform="translate(16.9338, 38.4170) scale(0.0040, -0.0040)" d="M214 140c59 0 115 -32 115 -97c0 -72 -54 -121 -101 -149c-35 -21 -74 -34 -114 -34c-59 0 -114 32 -114 97c0 72 54 121 101 149c35 21 73 34 113 34z" fill="#E8EAF0"/>
<text transform="translate(14.3474, 44.5845)" font-family="Century Schoolbook L" font-size="2.4695" text-anchor="start" fill="#E8EAF0">
<tspan>
doubt</tspan>
</text>
<path transform="translate(18.6898, 38.4170) scale(0.0040, -0.0040)" d="M0 0c0 30 25 55 55 55s55 -25 55 -55s-25 -55 -55 -55s-55 25 -55 55z" fill="#E8EAF0"/>
<rect transform="translate(17.0094, 38.9170)" x="-0.0757" y="-0.3269" width="0.1514" height="3.3269" ry="0.0500" fill="#E8EAF0"/>
<path transform="translate(57.0381, 39.4170) scale(0.0040, -0.0040)" d="M214 140c59 0 115 -32 115 -97c0 -72 -54 -121 -101 -149c-35 -21 -74 -34 -114 -34c-59 0 -114 32 -114 97c0 72 54 121 101 149c35 21 73 34 113 34z" fill="#E8EAF0"/>
<text transform="translate(56.1376, 44.5845)" font-family="Century Schoolbook L" font-size="2.4695" text-anchor="start" fill="#E8EAF0">
<tspan>
cy,</tspan>
</text>
<rect transform="translate(58.2770, 38.9170)" x="-0.0757" y="-3.0000" width="0.1514" height="3.3269" ry="0.0500" fill="#E8EAF0"/>
<path transform="translate(66.0981, 39.4170) scale(0.0040, -0.0040)" d="M214 140c59 0 115 -32 115 -97c0 -72 -54 -121 -101 -149c-35 -21 -74 -34 -114 -34c-59 0 -114 32 -114 97c0 72 54 121 101 149c35 21 73 34 113 34z" fill="#E8EAF0"/>
<text transform="translate(64.1733, 44.5845)" font-family="Century Schoolbook L" font-size="2.4695" text-anchor="start" fill="#E8EAF0">
<tspan>
Who</tspan>
</text>
<rect transform="translate(67.3370, 38.9170)" x="-0.0757" y="-2.8182" width="0.1514" height="3.1451" ry="0.0500" fill="#E8EAF0"/>
<path transform="translate(75.9319, 39.4170) scale(0.0040, -0.0040)" d="M214 140c59 0 115 -32 115 -97c0 -72 -54 -121 -101 -149c-35 -21 -74 -34 -114 -34c-59 0 -114 32 -114 97c0 72 54 121 101 149c35 21 73 34 113 34z" fill="#E8EAF0"/>
<text transform="translate(72.0225, 44.5845)" font-family="Century Schoolbook L" font-size="2.4695" text-anchor="start" fill="#E8EAF0">
<tspan>
through</tspan>
</text>
<rect transform="translate(77.1708, 38.9170)" x="-0.0757" y="-2.8182" width="0.1514" height="3.1451" ry="0.0500" fill="#E8EAF0"/>
<text transform="translate(85.8143, 35.4170)" font-family="sans-serif" font-size="1.9603" text-anchor="start" fill="#E8EAF0">
<tspan>
A</tspan>
</text>
<text transform="translate(87.1373, 35.4170)" font-family="sans-serif" font-size="1.9603" text-anchor="start" fill="#E8EAF0">
<tspan/>
</text>
<text transform="translate(87.1373, 35.4170)" font-family="sans-serif" font-size="1.9603" text-anchor="start" fill="#E8EAF0">
<tspan/>
</text>
<text transform="translate(87.1373, 33.9170)" font-family="sans-serif" font-size="1.3858" text-anchor="start" fill="#E8EAF0">
<tspan/>
</text>
<text transform="translate(87.1373, 33.9170)" font-family="sans-serif" font-size="1.3858" text-anchor="start" fill="#E8EAF0">
<tspan>
7</tspan>
</text>
<path transform="translate(85.8143, 39.4170) scale(0.0040, -0.0040)" d="M214 140c59 0 115 -32 115 -97c0 -72 -54 -121 -101 -149c-35 -21 -74 -34 -114 -34c-59 0 -114 32 -114 97c0 72 54 121 101 149c35 21 73 34 113 34z" fill="#E8EAF0"/>
<text transform="translate(84.6791, 44.5845)" font-family="Century Schoolbook L" font-size="2.4695" text-anchor="start" fill="#E8EAF0">
<tspan>
life</tspan>
</text>
<text transform="translate(48.6482, 35.4170)" font-family="sans-serif" font-size="1.9603" text-anchor="start" fill="#E8EAF0">
<tspan>
D</tspan>
</text>
<text transform="translate(50.1420, 35.4170)" font-family="sans-serif" font-size="1.9603" text-anchor="start" fill="#E8EAF0">
<tspan/>
</text>
<text transform="translate(50.1420, 35.4170)" font-family="sans-serif" font-size="1.9603" text-anchor="start" fill="#E8EAF0">
<tspan/>
</text>
<text transform="translate(50.1420, 33.9170)" font-family="sans-serif" font-size="1.3858" text-anchor="start" fill="#E8EAF0">
<tspan/>
</text>
<path transform="translate(48.6482, 38.9170) scale(0.0040, -0.0040)" d="M214 140c59 0 115 -32 115 -97c0 -72 -54 -121 -101 -149c-35 -21 -74 -34 -114 -34c-59 0 -114 32 -114 97c0 72 54 121 101 149c35 21 73 34 113 34z" fill="#E8EAF0"/>
<text transform="translate(47.0435, 44.5845)" font-family="Century Schoolbook L" font-size="2.4695" text-anchor="start" fill="#E8EAF0">
<tspan>
mer</tspan>
</text>
<rect transform="translate(48.7239, 38.9170)" x="-0.0757" y="0.1731" width="0.1514" height="3.1602" ry="0.0500" fill="#E8EAF0"/>
<line transform="translate(9.0337, 53.6088)" stroke-linejoin="round" stroke-linecap="round" stroke-width="0.1164" stroke="#E8EAF0" x1="0.0582" y1="-0.0000" x2="138.1582" y2="-0.0000"/>
<line transform="translate(9.0337, 52.6088)" stroke-linejoin="round" stroke-linecap="round" stroke-width="0.1164" stroke="#E8EAF0" x1="0.0582" y1="-0.0000" x2="138.1582" y2="-0.0000"/>
<line transform="translate(9.0337, 51.6088)" stroke-linejoin="round" stroke-linecap="round" stroke-width="0.1164" stroke="#E8EAF0" x1="0.0582" y1="-0.0000" x2="138.1582" y2="-0.0000"/>
<line transform="translate(9.0337, 50.6088)" stroke-linejoin="round" stroke-linecap="round" stroke-width="0.1164" stroke="#E8EAF0" x1="0.0582" y1="-0.0000" x2="138.1582" y2="-0.0000"/>
<line transform="translate(9.0337, 49.6088)" stroke-linejoin="round" stroke-linecap="round" stroke-width="0.1164" stroke="#E8EAF0" x1="0.0582" y1="-0.0000" x2="138.1582" y2="-0.0000"/>
<rect transform="translate(47.4872, 51.6088)" x="0.0000" y="-2.0000" width="0.2212" height="4.0000" ry="0.0000" fill="#E8EAF0"/>
<rect transform="translate(119.0858, 51.6088)" x="0.0000" y="-2.0000" width="0.2212" height="4.0000" ry="0.0000" fill="#E8EAF0"/>
<rect transform="translate(84.9594, 51.6088)" x="0.0000" y="-2.0000" width="0.2212" height="4.0000" ry="0.0000" fill="#E8EAF0"/>
<rect transform="translate(147.0289, 51.6088)" x="0.0000" y="-2.0000" width="0.2212" height="4.0000" ry="0.0000" fill="#E8EAF0"/>
<rect transform="translate(141.9275, 51.6088)" x="-0.0757" y="-0.3269" width="0.1514" height="3.1497" ry="0.0500" fill="#E8EAF0"/>
<path transform="translate(41.5216, 53.6088) scale(0.0040, -0.0040)" d="M214 140c59 0 115 -32 115 -97c0 -72 -54 -121 -101 -149c-35 -21 -74 -34 -114 -34c-59 0 -114 32 -114 97c0 72 54 121 101 149c35 21 73 34 113 34z" fill="#E8EAF0"/>
<text transform="translate(40.4931, 57.3230)" font-family="Century Schoolbook L" font-size="2.4695" text-anchor="start" fill="#E8EAF0">
<tspan>
est</tspan>
</text>
<rect transform="translate(42.7605, 51.6088)" x="-0.0757" y="-1.1891" width="0.1514" height="3.0160" ry="0.0500" fill="#E8EAF0"/>
<rect transform="translate(122.9798, 51.6088)" x="-0.0757" y="-3.0000" width="0.1514" height="3.2518" ry="0.0500" fill="#E8EAF0"/>
<path transform="translate(18.6898, 52.1088) scale(0.0040, -0.0040)" d="M0 0c0 30 25 55 55 55s55 -25 55 -55s-25 -55 -55 -55s-55 25 -55 55z" fill="#E8EAF0"/>
<text transform="translate(136.0551, 48.1088)" font-family="sans-serif" font-size="1.9603" text-anchor="start" fill="#E8EAF0">
<tspan>
D</tspan>
</text>
<text transform="translate(137.5489, 48.1088)" font-family="sans-serif" font-size="1.9603" text-anchor="start" fill="#E8EAF0">
<tspan/>
</text>
<text transform="translate(137.5489, 48.1088)" font-family="sans-serif" font-size="1.9603" text-anchor="start" fill="#E8EAF0">
<tspan/>
</text>
<text transform="translate(137.5489, 46.6088)" font-family="sans-serif" font-size="1.3858" text-anchor="start" fill="#E8EAF0">
<tspan/>
</text>
<text transform="translate(137.5489, 46.6088)" font-family="sans-serif" font-size="1.3858" text-anchor="start" fill="#E8EAF0">
<tspan>
7</tspan>
</text>
<path transform="translate(136.0551, 51.6088) scale(0.0040, -0.0040)" d="M214 140c59 0 115 -32 115 -97c0 -72 -54 -121 -101 -149c-35 -21 -74 -34 -114 -34c-59 0 -114 32 -114 97c0 72 54 121 101 149c35 21 73 34 113 34z" fill="#E8EAF0"/>
<text transform="translate(134.7065, 57.3230)" font-family="Century Schoolbook L" font-size="2.4695" text-anchor="start" fill="#E8EAF0">
<tspan>
For</tspan>
</text>
<rect transform="translate(136.1308, 51.6088)" x="-0.0757" y="0.1731" width="0.1514" height="3.0040" ry="0.0500" fill="#E8EAF0"/>
<path transform="translate(141.8518, 51.1088) scale(0.0040, -0.0040)" d="M214 140c59 0 115 -32 115 -97c0 -72 -54 -121 -101 -149c-35 -21 -74 -34 -114 -34c-59 0 -114 32 -114 97c0 72 54 121 101 149c35 21 73 34 113 34z" fill="#E8EAF0"/>
<text transform="translate(141.9970, 57.3230)" font-family="Century Schoolbook L" font-size="2.4695" text-anchor="start" fill="#E8EAF0">
<tspan>
I</tspan>
</text>
<path transform="translate(16.9338, 52.6088) scale(0.0040, -0.0040)" d="M214 140c59 0 115 -32 115 -97c0 -72 -54 -121 -101 -149c-35 -21 -74 -34 -114 -34c-59 0 -114 32 -114 97c0 72 54 121 101 149c35 21 73 34 113 34z" fill="#E8EAF0"/>
<polygon transform="translate(136.0551, 54.7906)" stroke-linejoin="round" stroke-linecap="round" stroke-width="0.1000" fill="#E8EAF0" stroke="#E8EAF0" points="5.8981 -0.5536 5.8981 -0.1736 0.0500 0.1900 0.0500 -0.1900"/>
<polygon transform="translate(105.9504, 54.4270)" stroke-linejoin="round" stroke-linecap="round" stroke-width="0.1000" fill="#E8EAF0" stroke="#E8EAF0" points="6.9864 0.1736 6.9864 0.5536 0.0500 0.1900 0.0500 -0.1900"/>
<polygon transform="translate(72.7383, 49.6088)" stroke-linejoin="round" stroke-linecap="round" stroke-width="0.1000" fill="#E8EAF0" stroke="#E8EAF0" points="7.5412 -0.3718 7.5412 0.0082 0.0500 0.1900 0.0500 -0.1900"/>
<rect transform="translate(55.2768, 57.3230)" x="0.0000" y="-0.5714" width="0.6600" height="0.1514" ry="0.0466" fill="#E8EAF0"/>
<rect transform="translate(38.6988, 57.3230)" x="0.0000" y="-0.5714" width="0.6600" height="0.1514" ry="0.0466" fill="#E8EAF0"/>
<polygon transform="translate(36.2779, 49.7906)" stroke-linejoin="round" stroke-linecap="round" stroke-width="0.1000" fill="#E8EAF0" stroke="#E8EAF0" points="6.5084 0.4464 6.5084 0.8264 0.0500 0.1900 0.0500 -0.1900"/>
<rect transform="translate(32.1850, 57.3230)" x="0.0000" y="-0.5714" width="0.6600" height="0.1514" ry="0.0466" fill="#E8EAF0"/>
<rect transform="translate(30.5440, 51.6088)" x="-0.0757" y="-3.0000" width="0.1514" height="3.3269" ry="0.0500" fill="#E8EAF0"/>
<text transform="translate(14.0700, 57.3230)" font-family="Century Schoolbook L" font-size="2.4695" text-anchor="start" fill="#E8EAF0">
<tspan>
peace,</tspan>
</text>
<text transform="translate(49.8088, 48.1088)" font-family="sans-serif" font-size="1.9603" text-anchor="start" fill="#E8EAF0">
<tspan>
G</tspan>
</text>
<text transform="translate(51.3453, 48.1088)" font-family="sans-serif" font-size="1.9603" text-anchor="start" fill="#E8EAF0">
<tspan/>
</text>
<text transform="translate(51.3453, 48.1088)" font-family="sans-serif" font-size="1.9603" text-anchor="start" fill="#E8EAF0">
<tspan/>
</text>
<text transform="translate(51.3453, 46.6088)" font-family="sans-serif" font-size="1.3858" text-anchor="start" fill="#E8EAF0">
<tspan/>
</text>
<path transform="translate(49.8088, 54.1088) scale(0.0040, -0.0040)" d="M214 140c59 0 115 -32 115 -97c0 -72 -54 -121 -101 -149c-35 -21 -74 -34 -114 -34c-59 0 -114 32 -114 97c0 72 54 121 101 149c35 21 73 34 113 34z" fill="#E8EAF0"/>
<path transform="translate(30.6197, 48.6588) scale(0.0040, -0.0040)" d="M0 0c0 -197 209 -334 209 -531c0 -71 -15 -140 -41 -206c-5 -9 -14 -13 -22 -13c-14 0 -29 12 -26 30c27 60 43 124 43 189c0 102 -93 206 -163 281h-19v250h19z" fill="#E8EAF0"/>
<text transform="translate(35.1146, 48.1088)" font-family="sans-serif" font-size="1.9603" text-anchor="start" fill="#E8EAF0">
<tspan>
C</tspan>
</text>
<text transform="translate(36.4803, 48.1088)" font-family="sans-serif" font-size="1.9603" text-anchor="start" fill="#E8EAF0">
<tspan/>
</text>
<text transform="translate(36.4803, 48.1088)" font-family="sans-serif" font-size="1.9603" text-anchor="start" fill="#E8EAF0">
<tspan/>
</text>
<text transform="translate(36.4803, 46.6088)" font-family="sans-serif" font-size="1.3858" text-anchor="start" fill="#E8EAF0">
<tspan/>
</text>
<text transform="translate(36.4803, 48.1088)" font-family="sans-serif" font-size="1.9603" text-anchor="start" fill="#E8EAF0">
<tspan>
/</tspan>
</text>
<text transform="translate(37.3766, 48.1088)" font-family="sans-serif" font-size="1.9603" text-anchor="start" fill="#E8EAF0">
<tspan>
G</tspan>
</text>
<text transform="translate(38.9130, 48.1088)" font-family="sans-serif" font-size="1.9603" text-anchor="start" fill="#E8EAF0">
<tspan/>
</text>
<text transform="translate(48.2042, 57.3230)" font-family="Century Schoolbook L" font-size="2.4695" text-anchor="start" fill="#E8EAF0">
<tspan>
com</tspan>
</text>
<path transform="translate(35.1146, 52.6088) scale(0.0040, -0.0040)" d="M214 140c59 0 115 -32 115 -97c0 -72 -54 -121 -101 -149c-35 -21 -74 -34 -114 -34c-59 0 -114 32 -114 97c0 72 54 121 101 149c35 21 73 34 113 34z" fill="#E8EAF0"/>
<text transform="translate(33.9794, 57.3230)" font-family="Century Schoolbook L" font-size="2.4695" text-anchor="start" fill="#E8EAF0">
<tspan>
vin</tspan>
</text>
<rect transform="translate(36.3535, 51.6088)" x="-0.0757" y="-1.8109" width="0.1514" height="2.6377" ry="0.0500" fill="#E8EAF0"/>
<rect transform="translate(51.0478, 51.6088)" x="-0.0757" y="-1.0000" width="0.1514" height="3.3269" ry="0.0500" fill="#E8EAF0"/>
<text transform="translate(28.8741, 57.3230)" font-family="Century Schoolbook L" font-size="2.4695" text-anchor="start" fill="#E8EAF0">
<tspan>
di</tspan>
</text>
<path transform="translate(71.5750, 52.6088) scale(0.0040, -0.0040)" d="M214 140c59 0 115 -32 115 -97c0 -72 -54 -121 -101 -149c-35 -21 -74 -34 -114 -34c-59 0 -114 32 -114 97c0 72 54 121 101 149c35 21 73 34 113 34z" fill="#E8EAF0"/>
<text transform="translate(69.4155, 57.3230)" font-family="Century Schoolbook L" font-size="2.4695" text-anchor="start" fill="#E8EAF0">
<tspan>
Here</tspan>
</text>
<rect transform="translate(72.8140, 51.6088)" x="-0.0757" y="-2.0018" width="0.1514" height="2.8287" ry="0.0500" fill="#E8EAF0"/>
<path transform="translate(79.0149, 52.1088) scale(0.0040, -0.0040)" d="M214 140c59 0 115 -32 115 -97c0 -72 -54 -121 -101 -149c-35 -21 -74 -34 -114 -34c-59 0 -114 32 -114 97c0 72 54 121 101 149c35 21 73 34 113 34z" fill="#E8EAF0"/>
<text transform="translate(78.3278, 57.3230)" font-family="Century Schoolbook L" font-size="2.4695" text-anchor="start" fill="#E8EAF0">
<tspan>
by</tspan>
</text>
<rect transform="translate(80.2539, 51.6088)" x="-0.0757" y="-2.1800" width="0.1514" height="2.5068" ry="0.0500" fill="#E8EAF0"/>
<path transform="translate(87.4089, 51.6088) scale(0.0040, -0.0040)" d="M214 140c59 0 115 -32 115 -97c0 -72 -54 -121 -101 -149c-35 -21 -74 -34 -114 -34c-59 0 -114 32 -114 97c0 72 54 121 101 149c35 21 73 34 113 34z" fill="#E8EAF0"/>
<text transform="translate(85.3560, 57.3230)" font-family="Century Schoolbook L" font-size="2.4695" text-anchor="start" fill="#E8EAF0">
<tspan>
faith</tspan>
</text>
<text transform="translate(16.9338, 48.1088)" font-family="sans-serif" font-size="1.9603" text-anchor="start" fill="#E8EAF0">
<tspan>
G</tspan>
</text>
<text transform="translate(18.4702, 48.1088)" font-family="sans-serif" font-size="1.9603" text-anchor="start" fill="#E8EAF0">
<tspan/>
</text>
<text transform="translate(18.4702, 48.1088)" font-family="sans-serif" font-size="1.9603" text-anchor="start" fill="#E8EAF0">
<tspan/>
</text>
<text transform="translate(18.4702, 46.6088)" font-family="sans-serif" font-size="1.3858" text-anchor="start" fill="#E8EAF0">
<tspan/>
</text>
<path transform="translate(89.1649, 51.1088) scale(0.0040, -0.0040)" d="M0 0c0 30 25 55 55 55s55 -25 55 -55s-25 -55 -55 -55s-55 25 -55 55z" fill="#E8EAF0"/>
<rect transform="translate(87.4845, 51.6088)" x="-0.0757" y="0.1731" width="0.1514" height="3.1602" ry="0.0500" fill="#E8EAF0"/>
<text transform="translate(8.0521, 48.5161)" font-family="Century Schoolbook L" font-size="1.7463" text-anchor="start" fill="#E8EAF0">
<tspan>
9</tspan>
</text>
<path transform="translate(9.8338, 52.6088) scale(0.0040, -0.0040)" d="M379 264c3 0 7 1 10 1c157 0 258 -129 258 -263c0 -77 -33 -155 -108 -211c-22 -16 -46 -29 -72 -37c3 -33 4 -66 4 -99c0 -21 0 -41 -1 -62c-7 -121 -91 -229 -211 -229c-108 0 -196 88 -196 197c0 58 54 103 113 103c54 0 95 -47 95 -103c0 -52 -43 -95 -95 -95
c-9 0 -18 1 -27 4c25 -37 66 -61 113 -61c95 0 156 93 162 191c1 19 2 38 2 57c0 29 -1 58 -3 87c-29 -5 -58 -8 -88 -8c-189 0 -333 173 -333 376c0 177 129 308 244 443c-20 62 -40 124 -48 189c-7 52 -7 105 -7 158c0 114 54 221 147 288c4 3 8 4 12 4c5 0 9 -2 13 -5
c72 -83 135 -243 135 -356c0 -142 -84 -255 -176 -364c21 -68 40 -136 57 -205zM463 -201c65 24 110 94 110 161c0 88 -64 175 -167 188c24 -114 44 -227 57 -349zM77 25c0 -133 128 -243 261 -243c27 0 55 1 81 5c-13 126 -35 244 -60 362c-79 -8 -124 -60 -124 -118
c0 -43 25 -88 80 -120c5 -5 7 -11 7 -17c0 -12 -10 -23 -23 -23c-3 0 -7 1 -10 2c-81 43 -118 115 -118 186c0 89 60 177 163 200c-14 57 -30 113 -47 169c-105 -122 -210 -243 -210 -403zM403 1038c-99 -46 -161 -145 -161 -254c0 -71 21 -130 39 -188
c78 97 142 199 142 324c0 51 -4 72 -20 118z" fill="#E8EAF0"/>
<path transform="translate(13.3337, 49.6088) scale(0.0040, -0.0040)" d="M198 -329c-12 0 -21 9 -21 21v138l-79 -30v-154c0 -12 -9 -21 -21 -21s-21 9 -21 21v138l-22 -8c-3 -1 -6 -2 -9 -2c-13 0 -25 11 -25 25v54c0 10 6 20 16 24l40 15v155l-22 -9c-3 -1 -6 -1 -9 -1c-13 0 -25 11 -25 25v54c0 10 6 19 16 23l40 15v154c0 12 9 21 21 21
s21 -9 21 -21v-138l79 30v154c0 12 9 21 21 21s21 -9 21 -21v-138l22 8c3 1 6 2 9 2c13 0 25 -11 25 -25v-54c0 -10 -6 -20 -16 -24l-40 -15v-155l22 9c3 1 6 1 9 1c13 0 25 -11 25 -25v-54c0 -10 -6 -19 -16 -23l-40 -15v-154c0 -12 -9 -21 -21 -21zM98 62v-154l79 30v154z
" fill="#E8EAF0"/>
<path transform="translate(60.2395, 52.6088) scale(0.0040, -0.0040)" d="M214 140c59 0 115 -32 115 -97c0 -72 -54 -121 -101 -149c-35 -21 -74 -34 -114 -34c-59 0 -114 32 -114 97c0 72 54 121 101 149c35 21 73 34 113 34z" fill="#E8EAF0"/>
<text transform="translate(58.4855, 57.3230)" font-family="Century Schoolbook L" font-size="2.4695" text-anchor="start" fill="#E8EAF0">
<tspan>
fort,</tspan>
</text>
<rect transform="translate(61.4785, 51.6088)" x="-0.0757" y="-2.5000" width="0.1514" height="3.3269" ry="0.0500" fill="#E8EAF0"/>
<text transform="translate(98.5703, 57.3230)" font-family="Century Schoolbook L" font-size="2.4695" text-anchor="start" fill="#E8EAF0">
<tspan>
in</tspan>
</text>
<rect transform="translate(100.2830, 51.6088)" x="-0.0757" y="-2.5000" width="0.1514" height="3.3269" ry="0.0500" fill="#E8EAF0"/>
<path transform="translate(100.3586, 49.1588) scale(0.0040, -0.0040)" d="M0 0c0 -197 209 -334 209 -531c0 -71 -15 -140 -41 -206c-5 -9 -14 -13 -22 -13c-14 0 -29 12 -26 30c27 60 43 124 43 189c0 102 -93 206 -163 281h-19v250h19z" fill="#E8EAF0"/>
<rect transform="translate(18.1727, 51.6088)" x="-0.0757" y="-2.5000" width="0.1514" height="3.3269" ry="0.0500" fill="#E8EAF0"/>
<path transform="translate(105.9504, 51.1088) scale(0.0040, -0.0040)" d="M214 140c59 0 115 -32 115 -97c0 -72 -54 -121 -101 -149c-35 -21 -74 -34 -114 -34c-59 0 -114 32 -114 97c0 72 54 121 101 149c35 21 73 34 113 34z" fill="#E8EAF0"/>
<text transform="translate(104.1110, 57.3230)" font-family="Century Schoolbook L" font-size="2.4695" text-anchor="start" fill="#E8EAF0">
<tspan>
Him</tspan>
</text>
<rect transform="translate(106.0261, 51.6088)" x="-0.0757" y="-0.3269" width="0.1514" height="3.1490" ry="0.0500" fill="#E8EAF0"/>
<path transform="translate(112.8355, 51.6088) scale(0.0040, -0.0040)" d="M214 140c59 0 115 -32 115 -97c0 -72 -54 -121 -101 -149c-35 -21 -74 -34 -114 -34c-59 0 -114 32 -114 97c0 72 54 121 101 149c35 21 73 34 113 34z" fill="#E8EAF0"/>
<text transform="translate(112.3831, 57.3230)" font-family="Century Schoolbook L" font-size="2.4695" text-anchor="start" fill="#E8EAF0">
<tspan>
to</tspan>
</text>
<rect transform="translate(112.9111, 51.6088)" x="-0.0757" y="0.1731" width="0.1514" height="3.0047" ry="0.0500" fill="#E8EAF0"/>
<text transform="translate(121.6569, 48.1088)" font-family="sans-serif" font-size="1.9603" text-anchor="start" fill="#E8EAF0">
<tspan>
D</tspan>
</text>
<text transform="translate(123.1507, 48.1088)" font-family="sans-serif" font-size="1.9603" text-anchor="start" fill="#E8EAF0">
<tspan/>
</text>
<text transform="translate(123.1507, 48.1088)" font-family="sans-serif" font-size="1.9603" text-anchor="start" fill="#E8EAF0">
<tspan/>
</text>
<text transform="translate(123.1507, 46.6088)" font-family="sans-serif" font-size="1.3858" text-anchor="start" fill="#E8EAF0">
<tspan/>
</text>
<path transform="translate(121.6569, 52.1088) scale(0.0040, -0.0040)" d="M312 63c0 23 -20 40 -41 40c-4 0 -7 -1 -11 -2c-30 -8 -75 -38 -111 -61s-81 -52 -101 -76c-7 -8 -10 -17 -10 -27c0 -23 19 -40 40 -40c4 0 8 1 12 2c30 8 75 38 111 61s81 52 101 76c7 8 10 17 10 27zM258 140c51 0 92 -23 92 -78c0 -19 -4 -38 -10 -56
c-11 -38 -31 -75 -64 -97c-53 -36 -112 -49 -185 -49c-51 0 -91 23 -91 78c0 19 4 38 10 56c11 38 30 75 63 97c53 36 112 49 185 49z" fill="#E8EAF0"/>
<text transform="translate(118.9418, 57.3230)" font-family="Century Schoolbook L" font-size="2.4695" text-anchor="start" fill="#E8EAF0">
<tspan>
dwell!</tspan>
</text>
<path transform="translate(99.0440, 52.6088) scale(0.0040, -0.0040)" d="M214 140c59 0 115 -32 115 -97c0 -72 -54 -121 -101 -149c-35 -21 -74 -34 -114 -34c-59 0 -114 32 -114 97c0 72 54 121 101 149c35 21 73 34 113 34z" fill="#E8EAF0"/>
<path transform="translate(29.3051, 52.1088) scale(0.0040, -0.0040)" d="M214 140c59 0 115 -32 115 -97c0 -72 -54 -121 -101 -149c-35 -21 -74 -34 -114 -34c-59 0 -114 32 -114 97c0 72 54 121 101 149c35 21 73 34 113 34z" fill="#E8EAF0"/>
<line transform="translate(9.0337, 66.3900)" stroke-linejoin="round" stroke-linecap="round" stroke-width="0.1164" stroke="#E8EAF0" x1="0.0582" y1="-0.0000" x2="138.1582" y2="-0.0000"/>
<line transform="translate(9.0337, 65.3900)" stroke-linejoin="round" stroke-linecap="round" stroke-width="0.1164" stroke="#E8EAF0" x1="0.0582" y1="-0.0000" x2="138.1582" y2="-0.0000"/>
<line transform="translate(9.0337, 64.3900)" stroke-linejoin="round" stroke-linecap="round" stroke-width="0.1164" stroke="#E8EAF0" x1="0.0582" y1="-0.0000" x2="138.1582" y2="-0.0000"/>
<line transform="translate(9.0337, 63.3900)" stroke-linejoin="round" stroke-linecap="round" stroke-width="0.1164" stroke="#E8EAF0" x1="0.0582" y1="-0.0000" x2="138.1582" y2="-0.0000"/>
<line transform="translate(9.0337, 62.3900)" stroke-linejoin="round" stroke-linecap="round" stroke-width="0.1164" stroke="#E8EAF0" x1="0.0582" y1="-0.0000" x2="138.1582" y2="-0.0000"/>
<rect transform="translate(147.0289, 64.3900)" x="0.0000" y="-2.0000" width="0.2212" height="4.0000" ry="0.0000" fill="#E8EAF0"/>
<rect transform="translate(120.1779, 64.3900)" x="0.0000" y="-2.0000" width="0.2212" height="4.0000" ry="0.0000" fill="#E8EAF0"/>
<rect transform="translate(50.6587, 64.3900)" x="0.0000" y="-2.0000" width="0.2212" height="4.0000" ry="0.0000" fill="#E8EAF0"/>
<rect transform="translate(83.6419, 64.3900)" x="0.0000" y="-2.0000" width="0.2212" height="4.0000" ry="0.0000" fill="#E8EAF0"/>
<path transform="translate(98.3724, 64.3900) scale(0.0040, -0.0040)" d="M214 140c59 0 115 -32 115 -97c0 -72 -54 -121 -101 -149c-35 -21 -74 -34 -114 -34c-59 0 -114 32 -114 97c0 72 54 121 101 149c35 21 73 34 113 34z" fill="#E8EAF0"/>
<text transform="translate(97.5787, 70.1042)" font-family="Century Schoolbook L" font-size="2.4695" text-anchor="start" fill="#E8EAF0">
<tspan>
all</tspan>
</text>
<rect transform="translate(98.4481, 64.3900)" x="-0.0757" y="0.1731" width="0.1514" height="3.1602" ry="0.0500" fill="#E8EAF0"/>
<text transform="translate(109.4143, 60.8473)" font-family="sans-serif" font-size="1.9603" text-anchor="start" fill="#E8EAF0">
<tspan>
D</tspan>
</text>
<text transform="translate(110.9081, 60.8473)" font-family="sans-serif" font-size="1.9603" text-anchor="start" fill="#E8EAF0">
<tspan/>
</text>
<text transform="translate(110.9081, 60.8473)" font-family="sans-serif" font-size="1.9603" text-anchor="start" fill="#E8EAF0">
<tspan/>
</text>
<text transform="translate(110.9081, 59.3473)" font-family="sans-serif" font-size="1.3858" text-anchor="start" fill="#E8EAF0">
<tspan/>
</text>
<text transform="translate(110.9081, 59.3473)" font-family="sans-serif" font-size="1.3858" text-anchor="start" fill="#E8EAF0">
<tspan>
7</tspan>
</text>
<path transform="translate(109.4143, 64.8900) scale(0.0040, -0.0040)" d="M214 140c59 0 115 -32 115 -97c0 -72 -54 -121 -101 -149c-35 -21 -74 -34 -114 -34c-59 0 -114 32 -114 97c0 72 54 121 101 149c35 21 73 34 113 34z" fill="#E8EAF0"/>
<text transform="translate(106.4653, 70.1042)" font-family="Century Schoolbook L" font-size="2.4695" text-anchor="start" fill="#E8EAF0">
<tspan>
things</tspan>
</text>
<rect transform="translate(110.6533, 64.3900)" x="-0.0757" y="-3.0000" width="0.1514" height="3.3269" ry="0.0500" fill="#E8EAF0"/>
<text transform="translate(122.6897, 60.8473)" font-family="sans-serif" font-size="1.9603" text-anchor="start" fill="#E8EAF0">
<tspan>
G</tspan>
</text>
<text transform="translate(124.2261, 60.8473)" font-family="sans-serif" font-size="1.9603" text-anchor="start" fill="#E8EAF0">
<tspan/>
</text>
<text transform="translate(124.2261, 60.8473)" font-family="sans-serif" font-size="1.9603" text-anchor="start" fill="#E8EAF0">
<tspan/>
</text>
<text transform="translate(124.2261, 59.3473)" font-family="sans-serif" font-size="1.3858" text-anchor="start" fill="#E8EAF0">
<tspan/>
</text>
<path transform="translate(122.6897, 64.3900) scale(0.0040, -0.0040)" d="M312 63c0 23 -20 40 -41 40c-4 0 -7 -1 -11 -2c-30 -8 -75 -38 -111 -61s-81 -52 -101 -76c-7 -8 -10 -17 -10 -27c0 -23 19 -40 40 -40c4 0 8 1 12 2c30 8 75 38 111 61s81 52 101 76c7 8 10 17 10 27zM258 140c51 0 92 -23 92 -78c0 -19 -4 -38 -10 -56
c-11 -38 -31 -75 -64 -97c-53 -36 -112 -49 -185 -49c-51 0 -91 23 -91 78c0 19 4 38 10 56c11 38 30 75 63 97c53 36 112 49 185 49z" fill="#E8EAF0"/>
<text transform="translate(120.7002, 70.1042)" font-family="Century Schoolbook L" font-size="2.4695" text-anchor="start" fill="#E8EAF0">
<tspan>
well,</tspan>
</text>
<text transform="translate(85.8008, 60.8473)" font-family="sans-serif" font-size="1.9603" text-anchor="start" fill="#E8EAF0">
<tspan>
G</tspan>
</text>
<text transform="translate(87.3372, 60.8473)" font-family="sans-serif" font-size="1.9603" text-anchor="start" fill="#E8EAF0">
<tspan/>
</text>
<text transform="translate(87.3372, 60.8473)" font-family="sans-serif" font-size="1.9603" text-anchor="start" fill="#E8EAF0">
<tspan/>
</text>
<text transform="translate(87.3372, 59.3473)" font-family="sans-serif" font-size="1.3858" text-anchor="start" fill="#E8EAF0">
<tspan/>
</text>
<text transform="translate(87.3372, 60.8473)" font-family="sans-serif" font-size="1.9603" text-anchor="start" fill="#E8EAF0">
<tspan>
/</tspan>
</text>
<text transform="translate(88.2335, 60.8473)" font-family="sans-serif" font-size="1.9603" text-anchor="start" fill="#E8EAF0">
<tspan>
D</tspan>
</text>
<text transform="translate(89.7273, 60.8473)" font-family="sans-serif" font-size="1.9603" text-anchor="start" fill="#E8EAF0">
<tspan/>
</text>
<path transform="translate(85.8008, 66.8900) scale(0.0040, -0.0040)" d="M214 140c59 0 115 -32 115 -97c0 -72 -54 -121 -101 -149c-35 -21 -74 -34 -114 -34c-59 0 -114 32 -114 97c0 72 54 121 101 149c35 21 73 34 113 34z" fill="#E8EAF0"/>
<text transform="translate(85.1350, 70.1042)" font-family="Century Schoolbook L" font-size="2.4695" text-anchor="start" fill="#E8EAF0">
<tspan>
do</tspan>
</text>
<rect transform="translate(87.0397, 64.3900)" x="-0.0757" y="-1.1918" width="0.1514" height="3.5186" ry="0.0500" fill="#E8EAF0"/>
<path transform="translate(91.8476, 65.3900) scale(0.0040, -0.0040)" d="M214 140c59 0 115 -32 115 -97c0 -72 -54 -121 -101 -149c-35 -21 -74 -34 -114 -34c-59 0 -114 32 -114 97c0 72 54 121 101 149c35 21 73 34 113 34z" fill="#E8EAF0"/>
<text transform="translate(90.6484, 70.1042)" font-family="Century Schoolbook L" font-size="2.4695" text-anchor="start" fill="#E8EAF0">
<tspan>
eth</tspan>
</text>
<rect transform="translate(93.0865, 64.3900)" x="-0.0757" y="-1.9900" width="0.1514" height="2.8169" ry="0.0500" fill="#E8EAF0"/>
<polygon transform="translate(136.1780, 67.5718)" stroke-linejoin="round" stroke-linecap="round" stroke-width="0.1000" fill="#E8EAF0" stroke="#E8EAF0" points="5.8366 -0.5536 5.8366 -0.1736 0.0500 0.1900 0.0500 -0.1900"/>
<rect transform="translate(88.8848, 70.1042)" x="0.0000" y="-0.5714" width="0.6600" height="0.1514" ry="0.0466" fill="#E8EAF0"/>
<polygon transform="translate(86.9640, 63.2082)" stroke-linejoin="round" stroke-linecap="round" stroke-width="0.1000" fill="#E8EAF0" stroke="#E8EAF0" points="6.1482 -1.0082 6.1482 -0.6282 0.0500 0.1900 0.0500 -0.1900"/>
<rect transform="translate(75.1045, 70.1042)" x="0.0000" y="-0.5714" width="0.6600" height="0.1514" ry="0.0466" fill="#E8EAF0"/>
<polygon transform="translate(73.2051, 63.2082)" stroke-linejoin="round" stroke-linecap="round" stroke-width="0.1000" fill="#E8EAF0" stroke="#E8EAF0" points="6.1695 -0.0082 6.1695 0.3718 0.0500 0.1900 0.0500 -0.1900"/>
<rect transform="translate(49.0461, 70.1042)" x="0.0000" y="-0.5714" width="0.6600" height="0.1514" ry="0.0466" fill="#E8EAF0"/>
<polygon transform="translate(39.7706, 62.2082)" stroke-linejoin="round" stroke-linecap="round" stroke-width="0.1000" fill="#E8EAF0" stroke="#E8EAF0" points="6.6689 -0.0082 6.6689 0.3718 0.0500 0.1900 0.0500 -0.1900"/>
<rect transform="translate(35.4525, 70.1042)" x="0.0000" y="-0.5714" width="0.6600" height="0.1514" ry="0.0466" fill="#E8EAF0"/>
<rect transform="translate(122.7654, 64.3900)" x="-0.0757" y="0.2482" width="0.1514" height="3.0852" ry="0.0500" fill="#E8EAF0"/>
<path transform="translate(136.1780, 64.3900) scale(0.0040, -0.0040)" d="M214 140c59 0 115 -32 115 -97c0 -72 -54 -121 -101 -149c-35 -21 -74 -34 -114 -34c-59 0 -114 32 -114 97c0 72 54 121 101 149c35 21 73 34 113 34z" fill="#E8EAF0"/>
<text transform="translate(134.8294, 70.1042)" font-family="Century Schoolbook L" font-size="2.4695" text-anchor="start" fill="#E8EAF0">
<tspan>
For</tspan>
</text>
<rect transform="translate(136.2537, 64.3900)" x="-0.0757" y="0.1731" width="0.1514" height="3.0040" ry="0.0500" fill="#E8EAF0"/>
<path transform="translate(141.9133, 63.8900) scale(0.0040, -0.0040)" d="M214 140c59 0 115 -32 115 -97c0 -72 -54 -121 -101 -149c-35 -21 -74 -34 -114 -34c-59 0 -114 32 -114 97c0 72 54 121 101 149c35 21 73 34 113 34z" fill="#E8EAF0"/>
<text transform="translate(142.0584, 70.1042)" font-family="Century Schoolbook L" font-size="2.4695" text-anchor="start" fill="#E8EAF0">
<tspan>
I</tspan>
</text>
<rect transform="translate(141.9890, 64.3900)" x="-0.0757" y="-0.3269" width="0.1514" height="3.1497" ry="0.0500" fill="#E8EAF0"/>
<text transform="translate(14.1981, 70.1042)" font-family="Century Schoolbook L" font-size="2.4695" text-anchor="start" fill="#E8EAF0">
<tspan>
know,</tspan>
</text>
<path transform="translate(18.6898, 62.8900) scale(0.0040, -0.0040)" d="M0 0c0 30 25 55 55 55s55 -25 55 -55s-25 -55 -55 -55s-55 25 -55 55z" fill="#E8EAF0"/>
<rect transform="translate(17.0094, 64.3900)" x="-0.0757" y="-0.8269" width="0.1514" height="3.3269" ry="0.0500" fill="#E8EAF0"/>
<path transform="translate(30.8107, 64.3900) scale(0.0040, -0.0040)" d="M214 140c59 0 115 -32 115 -97c0 -72 -54 -121 -101 -149c-35 -21 -74 -34 -114 -34c-59 0 -114 32 -114 97c0 72 54 121 101 149c35 21 73 34 113 34z" fill="#E8EAF0"/>
<text transform="translate(28.5872, 70.1042)" font-family="Century Schoolbook L" font-size="2.4695" text-anchor="start" fill="#E8EAF0">
<tspan>
what</tspan>
</text>
<rect transform="translate(30.8864, 64.3900)" x="-0.0757" y="0.1731" width="0.1514" height="3.2019" ry="0.0500" fill="#E8EAF0"/>
<path transform="translate(30.9621, 67.7150) scale(0.0040, -0.0040)" d="M0 0h-19v250h19c96 59 223 149 223 259c0 56 -15 111 -41 161c-3 18 11 30 25 30c8 0 17 -4 22 -13c25 -56 41 -116 41 -178c0 -204 -270 -305 -270 -509z" fill="#E8EAF0"/>
<text transform="translate(38.6074, 60.8473)" font-family="sans-serif" font-size="1.9603" text-anchor="start" fill="#E8EAF0">
<tspan>
G</tspan>
</text>
<text transform="translate(40.1438, 60.8473)" font-family="sans-serif" font-size="1.9603" text-anchor="start" fill="#E8EAF0">
<tspan/>
</text>
<text transform="translate(40.1438, 60.8473)" font-family="sans-serif" font-size="1.9603" text-anchor="start" fill="#E8EAF0">
<tspan/>
</text>
<text transform="translate(40.1438, 59.3473)" font-family="sans-serif" font-size="1.3858" text-anchor="start" fill="#E8EAF0">
<tspan/>
</text>
<text transform="translate(40.1438, 59.3473)" font-family="sans-serif" font-size="1.3858" text-anchor="start" fill="#E8EAF0">
<tspan>
7</tspan>
</text>
<path transform="translate(38.6074, 64.8900) scale(0.0040, -0.0040)" d="M214 140c59 0 115 -32 115 -97c0 -72 -54 -121 -101 -149c-35 -21 -74 -34 -114 -34c-59 0 -114 32 -114 97c0 72 54 121 101 149c35 21 73 34 113 34z" fill="#E8EAF0"/>
<text transform="translate(37.2161, 70.1042)" font-family="Century Schoolbook L" font-size="2.4695" text-anchor="start" fill="#E8EAF0">
<tspan>
e’er</tspan>
</text>
<rect transform="translate(39.8463, 64.3900)" x="-0.0757" y="-2.1797" width="0.1514" height="2.5066" ry="0.0500" fill="#E8EAF0"/>
<path transform="translate(45.1749, 65.3900) scale(0.0040, -0.0040)" d="M214 140c59 0 115 -32 115 -97c0 -72 -54 -121 -101 -149c-35 -21 -74 -34 -114 -34c-59 0 -114 32 -114 97c0 72 54 121 101 149c35 21 73 34 113 34z" fill="#E8EAF0"/>
<text transform="translate(44.5305, 70.1042)" font-family="Century Schoolbook L" font-size="2.4695" text-anchor="start" fill="#E8EAF0">
<tspan>
be</tspan>
</text>
<text transform="translate(7.0705, 61.2973)" font-family="Century Schoolbook L" font-size="1.7463" text-anchor="start" fill="#E8EAF0">
<tspan>
13</tspan>
</text>
<path transform="translate(9.8338, 65.3900) scale(0.0040, -0.0040)" d="M379 264c3 0 7 1 10 1c157 0 258 -129 258 -263c0 -77 -33 -155 -108 -211c-22 -16 -46 -29 -72 -37c3 -33 4 -66 4 -99c0 -21 0 -41 -1 -62c-7 -121 -91 -229 -211 -229c-108 0 -196 88 -196 197c0 58 54 103 113 103c54 0 95 -47 95 -103c0 -52 -43 -95 -95 -95
c-9 0 -18 1 -27 4c25 -37 66 -61 113 -61c95 0 156 93 162 191c1 19 2 38 2 57c0 29 -1 58 -3 87c-29 -5 -58 -8 -88 -8c-189 0 -333 173 -333 376c0 177 129 308 244 443c-20 62 -40 124 -48 189c-7 52 -7 105 -7 158c0 114 54 221 147 288c4 3 8 4 12 4c5 0 9 -2 13 -5
c72 -83 135 -243 135 -356c0 -142 -84 -255 -176 -364c21 -68 40 -136 57 -205zM463 -201c65 24 110 94 110 161c0 88 -64 175 -167 188c24 -114 44 -227 57 -349zM77 25c0 -133 128 -243 261 -243c27 0 55 1 81 5c-13 126 -35 244 -60 362c-79 -8 -124 -60 -124 -118
c0 -43 25 -88 80 -120c5 -5 7 -11 7 -17c0 -12 -10 -23 -23 -23c-3 0 -7 1 -10 2c-81 43 -118 115 -118 186c0 89 60 177 163 200c-14 57 -30 113 -47 169c-105 -122 -210 -243 -210 -403zM403 1038c-99 -46 -161 -145 -161 -254c0 -71 21 -130 39 -188
c78 97 142 199 142 324c0 51 -4 72 -20 118z" fill="#E8EAF0"/>
<path transform="translate(13.3337, 62.3900) scale(0.0040, -0.0040)" d="M198 -329c-12 0 -21 9 -21 21v138l-79 -30v-154c0 -12 -9 -21 -21 -21s-21 9 -21 21v138l-22 -8c-3 -1 -6 -2 -9 -2c-13 0 -25 11 -25 25v54c0 10 6 20 16 24l40 15v155l-22 -9c-3 -1 -6 -1 -9 -1c-13 0 -25 11 -25 25v54c0 10 6 19 16 23l40 15v154c0 12 9 21 21 21
s21 -9 21 -21v-138l79 30v154c0 12 9 21 21 21s21 -9 21 -21v-138l22 8c3 1 6 2 9 2c13 0 25 -11 25 -25v-54c0 -10 -6 -20 -16 -24l-40 -15v-155l22 9c3 1 6 1 9 1c13 0 25 -11 25 -25v-54c0 -10 -6 -19 -16 -23l-40 -15v-154c0 -12 -9 -21 -21 -21zM98 62v-154l79 30v154z
" fill="#E8EAF0"/>
<text transform="translate(16.9338, 60.8473)" font-family="sans-serif" font-size="1.9603" text-anchor="start" fill="#E8EAF0">
<tspan>
G</tspan>
</text>
<text transform="translate(18.4702, 60.8473)" font-family="sans-serif" font-size="1.9603" text-anchor="start" fill="#E8EAF0">
<tspan/>
</text>
<text transform="translate(18.4702, 60.8473)" font-family="sans-serif" font-size="1.9603" text-anchor="start" fill="#E8EAF0">
<tspan/>
</text>
<text transform="translate(18.4702, 59.3473)" font-family="sans-serif" font-size="1.3858" text-anchor="start" fill="#E8EAF0">
<tspan/>
</text>
<path transform="translate(16.9338, 63.3900) scale(0.0040, -0.0040)" d="M214 140c59 0 115 -32 115 -97c0 -72 -54 -121 -101 -149c-35 -21 -74 -34 -114 -34c-59 0 -114 32 -114 97c0 72 54 121 101 149c35 21 73 34 113 34z" fill="#E8EAF0"/>
<rect transform="translate(73.2808, 64.3900)" x="-0.0757" y="-1.1796" width="0.1514" height="2.5064" ry="0.0500" fill="#E8EAF0"/>
<text transform="translate(71.3975, 70.1042)" font-family="Century Schoolbook L" font-size="2.4695" text-anchor="start" fill="#E8EAF0">
<tspan>
Je</tspan>
</text>
<path transform="translate(62.7071, 65.3900) scale(0.0040, -0.0040)" d="M214 140c59 0 115 -32 115 -97c0 -72 -54 -121 -101 -149c-35 -21 -74 -34 -114 -34c-59 0 -114 32 -114 97c0 72 54 121 101 149c35 21 73 34 113 34z" fill="#E8EAF0"/>
<path transform="translate(72.0419, 65.8900) scale(0.0040, -0.0040)" d="M214 140c59 0 115 -32 115 -97c0 -72 -54 -121 -101 -149c-35 -21 -74 -34 -114 -34c-59 0 -114 32 -114 97c0 72 54 121 101 149c35 21 73 34 113 34z" fill="#E8EAF0"/>
<text transform="translate(61.3159, 70.1042)" font-family="Century Schoolbook L" font-size="2.4695" text-anchor="start" fill="#E8EAF0">
<tspan>
me,</tspan>
</text>
<rect transform="translate(63.9461, 64.3900)" x="-0.0757" y="-2.5000" width="0.1514" height="3.3269" ry="0.0500" fill="#E8EAF0"/>
<rect transform="translate(79.3490, 64.3900)" x="-0.0757" y="-1.0022" width="0.1514" height="2.8291" ry="0.0500" fill="#E8EAF0"/>
<rect transform="translate(46.4138, 64.3900)" x="-0.0757" y="-2.0020" width="0.1514" height="2.8289" ry="0.0500" fill="#E8EAF0"/>
<text transform="translate(76.8681, 70.1042)" font-family="Century Schoolbook L" font-size="2.4695" text-anchor="start" fill="#E8EAF0">
<tspan>
sus</tspan>
</text>
<path transform="translate(78.1100, 66.3900) scale(0.0040, -0.0040)" d="M214 140c59 0 115 -32 115 -97c0 -72 -54 -121 -101 -149c-35 -21 -74 -34 -114 -34c-59 0 -114 32 -114 97c0 72 54 121 101 149c35 21 73 34 113 34z" fill="#E8EAF0"/>
<text transform="translate(52.8176, 60.8473)" font-family="sans-serif" font-size="1.9603" text-anchor="start" fill="#E8EAF0">
<tspan>
C</tspan>
</text>
<text transform="translate(54.1833, 60.8473)" font-family="sans-serif" font-size="1.9603" text-anchor="start" fill="#E8EAF0">
<tspan/>
</text>
<text transform="translate(54.1833, 60.8473)" font-family="sans-serif" font-size="1.9603" text-anchor="start" fill="#E8EAF0">
<tspan/>
</text>
<text transform="translate(54.1833, 59.3473)" font-family="sans-serif" font-size="1.3858" text-anchor="start" fill="#E8EAF0">
<tspan/>
</text>
<path transform="translate(52.8176, 64.8900) scale(0.0040, -0.0040)" d="M214 140c59 0 115 -32 115 -97c0 -72 -54 -121 -101 -149c-35 -21 -74 -34 -114 -34c-59 0 -114 32 -114 97c0 72 54 121 101 149c35 21 73 34 113 34z" fill="#E8EAF0"/>
<text transform="translate(51.6183, 70.1042)" font-family="Century Schoolbook L" font-size="2.4695" text-anchor="start" fill="#E8EAF0">
<tspan>
fall</tspan>
</text>
<rect transform="translate(54.0565, 64.3900)" x="-0.0757" y="-3.0000" width="0.1514" height="3.3269" ry="0.0500" fill="#E8EAF0"/>
<line transform="translate(9.0337, 79.6406)" stroke-linejoin="round" stroke-linecap="round" stroke-width="0.1164" stroke="#E8EAF0" x1="0.0582" y1="-0.0000" x2="138.1582" y2="-0.0000"/>
<line transform="translate(9.0337, 78.6406)" stroke-linejoin="round" stroke-linecap="round" stroke-width="0.1164" stroke="#E8EAF0" x1="0.0582" y1="-0.0000" x2="138.1582" y2="-0.0000"/>
<line transform="translate(9.0337, 77.6406)" stroke-linejoin="round" stroke-linecap="round" stroke-width="0.1164" stroke="#E8EAF0" x1="0.0582" y1="-0.0000" x2="138.1582" y2="-0.0000"/>
<line transform="translate(9.0337, 76.6406)" stroke-linejoin="round" stroke-linecap="round" stroke-width="0.1164" stroke="#E8EAF0" x1="0.0582" y1="-0.0000" x2="138.1582" y2="-0.0000"/>
<line transform="translate(9.0337, 75.6406)" stroke-linejoin="round" stroke-linecap="round" stroke-width="0.1164" stroke="#E8EAF0" x1="0.0582" y1="-0.0000" x2="138.1582" y2="-0.0000"/>
<rect transform="translate(84.2001, 77.6406)" x="0.0000" y="-2.0000" width="0.2212" height="4.0000" ry="0.0000" fill="#E8EAF0"/>
<rect transform="translate(146.5516, 77.6406)" x="0.0000" y="-2.0000" width="0.6986" height="4.0000" ry="0.0000" fill="#E8EAF0"/>
<rect transform="translate(145.9811, 77.6406)" x="0.0000" y="-2.0000" width="0.2212" height="4.0000" ry="0.0000" fill="#E8EAF0"/>
<rect transform="translate(121.1180, 77.6406)" x="0.0000" y="-2.0000" width="0.2212" height="4.0000" ry="0.0000" fill="#E8EAF0"/>
<rect transform="translate(50.9194, 77.6406)" x="0.0000" y="-2.0000" width="0.2212" height="4.0000" ry="0.0000" fill="#E8EAF0"/>
<path transform="translate(137.0033, 77.6406) scale(0.0040, -0.0040)" d="M-24 -119c0 31 14 43 46 43c30 0 69 -9 106 -23l-126 151c-7 9 -11 17 -11 26c0 34 51 66 88 101c23 22 36 51 36 81c0 25 -9 50 -26 70l-31 37c-3 4 -4 8 -4 12c0 10 9 18 19 18c5 0 9 -1 13 -6l149 -178c7 -9 11 -17 11 -26c0 -34 -52 -66 -89 -101
c-23 -22 -35 -51 -35 -81c0 -25 9 -51 26 -71l79 -94c3 -4 4 -8 4 -12c0 -10 -9 -18 -19 -18c-5 0 -9 2 -13 7c-16 19 -57 33 -89 33c-41 0 -55 -23 -55 -65c0 -33 11 -73 27 -92c6 -7 0 -15 -7 -15c-2 0 -5 2 -7 4c-44 53 -92 145 -92 199z" fill="#E8EAF0"/>
<rect transform="translate(40.0137, 77.6406)" x="-0.0757" y="-2.1798" width="0.1514" height="2.5066" ry="0.0500" fill="#E8EAF0"/>
<text transform="translate(110.1769, 74.0980)" font-family="sans-serif" font-size="1.9603" text-anchor="start" fill="#E8EAF0">
<tspan>
D</tspan>
</text>
<text transform="translate(111.6706, 74.0980)" font-family="sans-serif" font-size="1.9603" text-anchor="start" fill="#E8EAF0">
<tspan/>
</text>
<text transform="translate(111.6706, 74.0980)" font-family="sans-serif" font-size="1.9603" text-anchor="start" fill="#E8EAF0">
<tspan/>
</text>
<text transform="translate(111.6706, 72.5980)" font-family="sans-serif" font-size="1.3858" text-anchor="start" fill="#E8EAF0">
<tspan/>
</text>
<text transform="translate(111.6706, 72.5980)" font-family="sans-serif" font-size="1.3858" text-anchor="start" fill="#E8EAF0">
<tspan>
7</tspan>
</text>
<path transform="translate(110.1769, 78.1406) scale(0.0040, -0.0040)" d="M214 140c59 0 115 -32 115 -97c0 -72 -54 -121 -101 -149c-35 -21 -74 -34 -114 -34c-59 0 -114 32 -114 97c0 72 54 121 101 149c35 21 73 34 113 34z" fill="#E8EAF0"/>
<text transform="translate(107.2278, 83.3508)" font-family="Century Schoolbook L" font-size="2.4695" text-anchor="start" fill="#E8EAF0">
<tspan>
things</tspan>
</text>
<rect transform="translate(111.4158, 77.6406)" x="-0.0757" y="-3.0000" width="0.1514" height="3.3269" ry="0.0500" fill="#E8EAF0"/>
<text transform="translate(123.5631, 74.0980)" font-family="sans-serif" font-size="1.9603" text-anchor="start" fill="#E8EAF0">
<tspan>
G</tspan>
</text>
<text transform="translate(125.0995, 74.0980)" font-family="sans-serif" font-size="1.9603" text-anchor="start" fill="#E8EAF0">
<tspan/>
</text>
<text transform="translate(125.0995, 74.0980)" font-family="sans-serif" font-size="1.9603" text-anchor="start" fill="#E8EAF0">
<tspan/>
</text>
<text transform="translate(125.0995, 72.5980)" font-family="sans-serif" font-size="1.3858" text-anchor="start" fill="#E8EAF0">
<tspan/>
</text>
<path transform="translate(123.5631, 78.6406) scale(0.0040, -0.0040)" d="M312 63c0 23 -20 40 -41 40c-4 0 -7 -1 -11 -2c-30 -8 -75 -38 -111 -61s-81 -52 -101 -76c-7 -8 -10 -17 -10 -27c0 -23 19 -40 40 -40c4 0 8 1 12 2c30 8 75 38 111 61s81 52 101 76c7 8 10 17 10 27zM258 140c51 0 92 -23 92 -78c0 -19 -4 -38 -10 -56
c-11 -38 -31 -75 -64 -97c-53 -36 -112 -49 -185 -49c-51 0 -91 23 -91 78c0 19 4 38 10 56c11 38 30 75 63 97c53 36 112 49 185 49z" fill="#E8EAF0"/>
<text transform="translate(121.5735, 83.3508)" font-family="Century Schoolbook L" font-size="2.4695" text-anchor="start" fill="#E8EAF0">
<tspan>
well.</tspan>
</text>
<rect transform="translate(124.8859, 77.6406)" x="-0.0757" y="-2.5000" width="0.1514" height="3.2518" ry="0.0500" fill="#E8EAF0"/>
<text transform="translate(53.0958, 74.0980)" font-family="sans-serif" font-size="1.9603" text-anchor="start" fill="#E8EAF0">
<tspan>
C</tspan>
</text>
<text transform="translate(54.4615, 74.0980)" font-family="sans-serif" font-size="1.9603" text-anchor="start" fill="#E8EAF0">
<tspan/>
</text>
<text transform="translate(54.4615, 74.0980)" font-family="sans-serif" font-size="1.9603" text-anchor="start" fill="#E8EAF0">
<tspan/>
</text>
<text transform="translate(54.4615, 72.5980)" font-family="sans-serif" font-size="1.3858" text-anchor="start" fill="#E8EAF0">
<tspan/>
</text>
<path transform="translate(53.0958, 78.1406) scale(0.0040, -0.0040)" d="M214 140c59 0 115 -32 115 -97c0 -72 -54 -121 -101 -149c-35 -21 -74 -34 -114 -34c-59 0 -114 32 -114 97c0 72 54 121 101 149c35 21 73 34 113 34z" fill="#E8EAF0"/>
<text transform="translate(51.8966, 83.3508)" font-family="Century Schoolbook L" font-size="2.4695" text-anchor="start" fill="#E8EAF0">
<tspan>
fall</tspan>
</text>
<rect transform="translate(54.3347, 77.6406)" x="-0.0757" y="-3.0000" width="0.1514" height="3.3269" ry="0.0500" fill="#E8EAF0"/>
<rect transform="translate(89.4839, 83.3508)" x="0.0000" y="-0.5714" width="0.6600" height="0.1514" ry="0.0466" fill="#E8EAF0"/>
<polygon transform="translate(87.5398, 76.4589)" stroke-linejoin="round" stroke-linecap="round" stroke-width="0.1000" fill="#E8EAF0" stroke="#E8EAF0" points="6.1948 -1.0082 6.1948 -0.6282 0.0500 0.1900 0.0500 -0.1900"/>
<rect transform="translate(75.5928, 83.3508)" x="0.0000" y="-0.5714" width="0.6600" height="0.1514" ry="0.0466" fill="#E8EAF0"/>
<polygon transform="translate(73.6701, 76.4589)" stroke-linejoin="round" stroke-linecap="round" stroke-width="0.1000" fill="#E8EAF0" stroke="#E8EAF0" points="6.2162 -0.0082 6.2162 0.3718 0.0500 0.1900 0.0500 -0.1900"/>
<rect transform="translate(49.2923, 83.3508)" x="0.0000" y="-0.5714" width="0.6600" height="0.1514" ry="0.0466" fill="#E8EAF0"/>
<polygon transform="translate(39.9380, 75.4589)" stroke-linejoin="round" stroke-linecap="round" stroke-width="0.1000" fill="#E8EAF0" stroke="#E8EAF0" points="6.7156 -0.0082 6.7156 0.3718 0.0500 0.1900 0.0500 -0.1900"/>
<rect transform="translate(35.5965, 83.3508)" x="0.0000" y="-0.5714" width="0.6600" height="0.1514" ry="0.0466" fill="#E8EAF0"/>
<text transform="translate(37.3834, 83.3508)" font-family="Century Schoolbook L" font-size="2.4695" text-anchor="start" fill="#E8EAF0">
<tspan>
e’er</tspan>
</text>
<path transform="translate(38.7747, 78.1406) scale(0.0040, -0.0040)" d="M214 140c59 0 115 -32 115 -97c0 -72 -54 -121 -101 -149c-35 -21 -74 -34 -114 -34c-59 0 -114 32 -114 97c0 72 54 121 101 149c35 21 73 34 113 34z" fill="#E8EAF0"/>
<text transform="translate(38.7747, 74.0980)" font-family="sans-serif" font-size="1.9603" text-anchor="start" fill="#E8EAF0">
<tspan>
G</tspan>
</text>
<text transform="translate(40.3112, 74.0980)" font-family="sans-serif" font-size="1.9603" text-anchor="start" fill="#E8EAF0">
<tspan/>
</text>
<text transform="translate(40.3112, 74.0980)" font-family="sans-serif" font-size="1.9603" text-anchor="start" fill="#E8EAF0">
<tspan/>
</text>
<text transform="translate(40.3112, 72.5980)" font-family="sans-serif" font-size="1.3858" text-anchor="start" fill="#E8EAF0">
<tspan/>
</text>
<text transform="translate(40.3112, 72.5980)" font-family="sans-serif" font-size="1.3858" text-anchor="start" fill="#E8EAF0">
<tspan>
7</tspan>
</text>
<path transform="translate(31.0828, 80.9656) scale(0.0040, -0.0040)" d="M0 0h-19v250h19c96 59 223 149 223 259c0 56 -15 111 -41 161c-3 18 11 30 25 30c8 0 17 -4 22 -13c25 -56 41 -116 41 -178c0 -204 -270 -305 -270 -509z" fill="#E8EAF0"/>
<rect transform="translate(31.0071, 77.6406)" x="-0.0757" y="0.1731" width="0.1514" height="3.2019" ry="0.0500" fill="#E8EAF0"/>
<text transform="translate(28.7079, 83.3508)" font-family="Century Schoolbook L" font-size="2.4695" text-anchor="start" fill="#E8EAF0">
<tspan>
what</tspan>
</text>
<path transform="translate(30.9314, 77.6406) scale(0.0040, -0.0040)" d="M214 140c59 0 115 -32 115 -97c0 -72 -54 -121 -101 -149c-35 -21 -74 -34 -114 -34c-59 0 -114 32 -114 97c0 72 54 121 101 149c35 21 73 34 113 34z" fill="#E8EAF0"/>
<rect transform="translate(17.0094, 77.6406)" x="-0.0757" y="-0.8269" width="0.1514" height="3.3269" ry="0.0500" fill="#E8EAF0"/>
<path transform="translate(18.6898, 76.1406) scale(0.0040, -0.0040)" d="M0 0c0 30 25 55 55 55s55 -25 55 -55s-25 -55 -55 -55s-55 25 -55 55z" fill="#E8EAF0"/>
<text transform="translate(14.1981, 83.3508)" font-family="Century Schoolbook L" font-size="2.4695" text-anchor="start" fill="#E8EAF0">
<tspan>
know,</tspan>
</text>
<path transform="translate(16.9338, 76.6406) scale(0.0040, -0.0040)" d="M214 140c59 0 115 -32 115 -97c0 -72 -54 -121 -101 -149c-35 -21 -74 -34 -114 -34c-59 0 -114 32 -114 97c0 72 54 121 101 149c35 21 73 34 113 34z" fill="#E8EAF0"/>
<text transform="translate(16.9338, 74.0980)" font-family="sans-serif" font-size="1.9603" text-anchor="start" fill="#E8EAF0">
<tspan>
G</tspan>
</text>
<text transform="translate(18.4702, 74.0980)" font-family="sans-serif" font-size="1.9603" text-anchor="start" fill="#E8EAF0">
<tspan/>
</text>
<text transform="translate(18.4702, 74.0980)" font-family="sans-serif" font-size="1.9603" text-anchor="start" fill="#E8EAF0">
<tspan/>
</text>
<text transform="translate(18.4702, 72.5980)" font-family="sans-serif" font-size="1.3858" text-anchor="start" fill="#E8EAF0">
<tspan/>
</text>
<rect transform="translate(46.6279, 77.6406)" x="-0.0757" y="-2.0020" width="0.1514" height="2.8289" ry="0.0500" fill="#E8EAF0"/>
<path transform="translate(63.0787, 78.6406) scale(0.0040, -0.0040)" d="M214 140c59 0 115 -32 115 -97c0 -72 -54 -121 -101 -149c-35 -21 -74 -34 -114 -34c-59 0 -114 32 -114 97c0 72 54 121 101 149c35 21 73 34 113 34z" fill="#E8EAF0"/>
<text transform="translate(61.6874, 83.3508)" font-family="Century Schoolbook L" font-size="2.4695" text-anchor="start" fill="#E8EAF0">
<tspan>
me,</tspan>
</text>
<rect transform="translate(64.3177, 77.6406)" x="-0.0757" y="-2.5000" width="0.1514" height="3.3269" ry="0.0500" fill="#E8EAF0"/>
<text transform="translate(44.7445, 83.3508)" font-family="Century Schoolbook L" font-size="2.4695" text-anchor="start" fill="#E8EAF0">
<tspan>
be</tspan>
</text>
<path transform="translate(72.5068, 79.1406) scale(0.0040, -0.0040)" d="M214 140c59 0 115 -32 115 -97c0 -72 -54 -121 -101 -149c-35 -21 -74 -34 -114 -34c-59 0 -114 32 -114 97c0 72 54 121 101 149c35 21 73 34 113 34z" fill="#E8EAF0"/>
<text transform="translate(71.8624, 83.3508)" font-family="Century Schoolbook L" font-size="2.4695" text-anchor="start" fill="#E8EAF0">
<tspan>
Je</tspan>
</text>
<rect transform="translate(73.7457, 77.6406)" x="-0.0757" y="-1.1796" width="0.1514" height="2.5064" ry="0.0500" fill="#E8EAF0"/>
<path transform="translate(78.6216, 79.6406) scale(0.0040, -0.0040)" d="M214 140c59 0 115 -32 115 -97c0 -72 -54 -121 -101 -149c-35 -21 -74 -34 -114 -34c-59 0 -114 32 -114 97c0 72 54 121 101 149c35 21 73 34 113 34z" fill="#E8EAF0"/>
<text transform="translate(77.3797, 83.3508)" font-family="Century Schoolbook L" font-size="2.4695" text-anchor="start" fill="#E8EAF0">
<tspan>
sus</tspan>
</text>
<text transform="translate(7.0705, 74.5480)" font-family="Century Schoolbook L" font-size="1.7463" text-anchor="start" fill="#E8EAF0">
<tspan>
17</tspan>
</text>
<path transform="translate(9.8338, 78.6406) scale(0.0040, -0.0040)" d="M379 264c3 0 7 1 10 1c157 0 258 -129 258 -263c0 -77 -33 -155 -108 -211c-22 -16 -46 -29 -72 -37c3 -33 4 -66 4 -99c0 -21 0 -41 -1 -62c-7 -121 -91 -229 -211 -229c-108 0 -196 88 -196 197c0 58 54 103 113 103c54 0 95 -47 95 -103c0 -52 -43 -95 -95 -95
c-9 0 -18 1 -27 4c25 -37 66 -61 113 -61c95 0 156 93 162 191c1 19 2 38 2 57c0 29 -1 58 -3 87c-29 -5 -58 -8 -88 -8c-189 0 -333 173 -333 376c0 177 129 308 244 443c-20 62 -40 124 -48 189c-7 52 -7 105 -7 158c0 114 54 221 147 288c4 3 8 4 12 4c5 0 9 -2 13 -5
c72 -83 135 -243 135 -356c0 -142 -84 -255 -176 -364c21 -68 40 -136 57 -205zM463 -201c65 24 110 94 110 161c0 88 -64 175 -167 188c24 -114 44 -227 57 -349zM77 25c0 -133 128 -243 261 -243c27 0 55 1 81 5c-13 126 -35 244 -60 362c-79 -8 -124 -60 -124 -118
c0 -43 25 -88 80 -120c5 -5 7 -11 7 -17c0 -12 -10 -23 -23 -23c-3 0 -7 1 -10 2c-81 43 -118 115 -118 186c0 89 60 177 163 200c-14 57 -30 113 -47 169c-105 -122 -210 -243 -210 -403zM403 1038c-99 -46 -161 -145 -161 -254c0 -71 21 -130 39 -188
c78 97 142 199 142 324c0 51 -4 72 -20 118z" fill="#E8EAF0"/>
<path transform="translate(13.3337, 75.6406) scale(0.0040, -0.0040)" d="M198 -329c-12 0 -21 9 -21 21v138l-79 -30v-154c0 -12 -9 -21 -21 -21s-21 9 -21 21v138l-22 -8c-3 -1 -6 -2 -9 -2c-13 0 -25 11 -25 25v54c0 10 6 20 16 24l40 15v155l-22 -9c-3 -1 -6 -1 -9 -1c-13 0 -25 11 -25 25v54c0 10 6 19 16 23l40 15v154c0 12 9 21 21 21
s21 -9 21 -21v-138l79 30v154c0 12 9 21 21 21s21 -9 21 -21v-138l22 8c3 1 6 2 9 2c13 0 25 -11 25 -25v-54c0 -10 -6 -20 -16 -24l-40 -15v-155l22 9c3 1 6 1 9 1c13 0 25 -11 25 -25v-54c0 -10 -6 -19 -16 -23l-40 -15v-154c0 -12 -9 -21 -21 -21zM98 62v-154l79 30v154z
" fill="#E8EAF0"/>
<path transform="translate(45.3889, 78.6406) scale(0.0040, -0.0040)" d="M214 140c59 0 115 -32 115 -97c0 -72 -54 -121 -101 -149c-35 -21 -74 -34 -114 -34c-59 0 -114 32 -114 97c0 72 54 121 101 149c35 21 73 34 113 34z" fill="#E8EAF0"/>
<path transform="translate(92.4701, 78.6406) scale(0.0040, -0.0040)" d="M214 140c59 0 115 -32 115 -97c0 -72 -54 -121 -101 -149c-35 -21 -74 -34 -114 -34c-59 0 -114 32 -114 97c0 72 54 121 101 149c35 21 73 34 113 34z" fill="#E8EAF0"/>
<text transform="translate(91.2708, 83.3508)" font-family="Century Schoolbook L" font-size="2.4695" text-anchor="start" fill="#E8EAF0">
<tspan>
eth</tspan>
</text>
<rect transform="translate(93.7090, 77.6406)" x="-0.0757" y="-1.9901" width="0.1514" height="2.8169" ry="0.0500" fill="#E8EAF0"/>
<path transform="translate(99.0416, 77.6406) scale(0.0040, -0.0040)" d="M214 140c59 0 115 -32 115 -97c0 -72 -54 -121 -101 -149c-35 -21 -74 -34 -114 -34c-59 0 -114 32 -114 97c0 72 54 121 101 149c35 21 73 34 113 34z" fill="#E8EAF0"/>
<text transform="translate(98.2478, 83.3508)" font-family="Century Schoolbook L" font-size="2.4695" text-anchor="start" fill="#E8EAF0">
<tspan>
all</tspan>
</text>
<rect transform="translate(99.1173, 77.6406)" x="-0.0757" y="0.1731" width="0.1514" height="3.1602" ry="0.0500" fill="#E8EAF0"/>
<rect transform="translate(79.8606, 77.6406)" x="-0.0757" y="-1.0022" width="0.1514" height="2.8290" ry="0.0500" fill="#E8EAF0"/>
<text transform="translate(86.3766, 74.0980)" font-family="sans-serif" font-size="1.9603" text-anchor="start" fill="#E8EAF0">
<tspan>
G</tspan>
</text>
<text transform="translate(87.9130, 74.0980)" font-family="sans-serif" font-size="1.9603" text-anchor="start" fill="#E8EAF0">
<tspan/>
</text>
<text transform="translate(87.9130, 74.0980)" font-family="sans-serif" font-size="1.9603" text-anchor="start" fill="#E8EAF0">
<tspan/>
</text>
<text transform="translate(87.9130, 72.5980)" font-family="sans-serif" font-size="1.3858" text-anchor="start" fill="#E8EAF0">
<tspan/>
</text>
<text transform="translate(87.9130, 74.0980)" font-family="sans-serif" font-size="1.9603" text-anchor="start" fill="#E8EAF0">
<tspan>
/</tspan>
</text>
<text transform="translate(88.8093, 74.0980)" font-family="sans-serif" font-size="1.9603" text-anchor="start" fill="#E8EAF0">
<tspan>
D</tspan>
</text>
<text transform="translate(90.3031, 74.0980)" font-family="sans-serif" font-size="1.9603" text-anchor="start" fill="#E8EAF0">
<tspan/>
</text>
<path transform="translate(86.3766, 80.1406) scale(0.0040, -0.0040)" d="M214 140c59 0 115 -32 115 -97c0 -72 -54 -121 -101 -149c-35 -21 -74 -34 -114 -34c-59 0 -114 32 -114 97c0 72 54 121 101 149c35 21 73 34 113 34z" fill="#E8EAF0"/>
<text transform="translate(85.7108, 83.3508)" font-family="Century Schoolbook L" font-size="2.4695" text-anchor="start" fill="#E8EAF0">
<tspan>
do</tspan>
</text>
<rect transform="translate(87.6155, 77.6406)" x="-0.0757" y="-1.1917" width="0.1514" height="3.5186" ry="0.0500" fill="#E8EAF0"/>
<text transform="translate(9.0337, 92.6406)" font-family="Century Schoolbook L" font-weight="bold" font-size="2.1999" text-anchor="start" fill="#E8EAF0">
<tspan>
2.</tspan>
</text>
<text transform="translate(11.5116, 92.6406)" font-family="Century Schoolbook L" font-size="2.1999" text-anchor="start" fill="#E8EAF0">
<tspan>
All the way my Savior leads me, </tspan>
</text>
<text transform="translate(11.5116, 95.6406)" font-family="Century Schoolbook L" font-size="2.1999" text-anchor="start" fill="#E8EAF0">
<tspan>
  Cheers each winding path I tread, </tspan>
</text>
<text transform="translate(11.5116, 98.6406)" font-family="Century Schoolbook L" font-size="2.1999" text-anchor="start" fill="#E8EAF0">
<tspan>
Gives me grace for every trial, </tspan>
</text>
<text transform="translate(11.5116, 101.6406)" font-family="Century Schoolbook L" font-size="2.1999" text-anchor="start" fill="#E8EAF0">
<tspan>
  Feeds me with the living bread. </tspan>
</text>
<text transform="translate(11.5116, 104.6406)" font-family="Century Schoolbook L" font-size="2.1999" text-anchor="start" fill="#E8EAF0">
<tspan>
Though my weary steps may falter, </tspan>
</text>
<text transform="translate(11.5116, 107.6406)" font-family="Century Schoolbook L" font-size="2.1999" text-anchor="start" fill="#E8EAF0">
<tspan>
  And my soul athirst may be, </tspan>
</text>
<text transform="translate(11.5116, 110.6406)" font-family="Century Schoolbook L" font-size="2.1999" text-anchor="start" fill="#E8EAF0">
<tspan>
Gushing from the Rock before me, </tspan>
</text>
<text transform="translate(11.5116, 113.6406)" font-family="Century Schoolbook L" font-size="2.1999" text-anchor="start" fill="#E8EAF0">
<tspan>
  Lo! a spring of joy I see, </tspan>
</text>
<text transform="translate(11.5116, 116.6406)" font-family="Century Schoolbook L" font-size="2.1999" text-anchor="start" fill="#E8EAF0">
<tspan>
Gushing from the Rock before me, </tspan>
</text>
<text transform="translate(11.5116, 119.6406)" font-family="Century Schoolbook L" font-size="2.1999" text-anchor="start" fill="#E8EAF0">
<tspan>
  Lo! a spring of joy I see. </tspan>
</text>
<text transform="translate(11.5116, 121.1406)" font-family="Century Schoolbook L" font-size="1.5560" text-anchor="start" fill="#E8EAF0">
<tspan>
 </tspan>
</text>
<text transform="translate(107.8121, 92.6406)" font-family="Century Schoolbook L" font-weight="bold" font-size="2.1999" text-anchor="start" fill="#E8EAF0">
<tspan>
3.</tspan>
</text>
<text transform="translate(110.2900, 92.6406)" font-family="Century Schoolbook L" font-size="2.1999" text-anchor="start" fill="#E8EAF0">
<tspan>
All the way my Savior leads me; </tspan>
</text>
<text transform="translate(110.2900, 95.6406)" font-family="Century Schoolbook L" font-size="2.1999" text-anchor="start" fill="#E8EAF0">
<tspan>
  Oh, the fullness of His grace! </tspan>
</text>
<text transform="translate(110.2900, 98.6406)" font-family="Century Schoolbook L" font-size="2.1999" text-anchor="start" fill="#E8EAF0">
<tspan>
Perfect rest to me is promised </tspan>
</text>
<text transform="translate(110.2900, 101.6406)" font-family="Century Schoolbook L" font-size="2.1999" text-anchor="start" fill="#E8EAF0">
<tspan>
  In my Father’s blest embrace. </tspan>
</text>
<text transform="translate(110.2900, 104.6406)" font-family="Century Schoolbook L" font-size="2.1999" text-anchor="start" fill="#E8EAF0">
<tspan>
When my spirit, clothed immortal, </tspan>
</text>
<text transform="translate(110.2900, 107.6406)" font-family="Century Schoolbook L" font-size="2.1999" text-anchor="start" fill="#E8EAF0">
<tspan>
  Wings its flight to realms of day, </tspan>
</text>
<text transform="translate(110.2900, 110.6406)" font-family="Century Schoolbook L" font-size="2.1999" text-anchor="start" fill="#E8EAF0">
<tspan>
This my song through endless ages: </tspan>
</text>
<text transform="translate(110.2900, 113.6406)" font-family="Century Schoolbook L" font-size="2.1999" text-anchor="start" fill="#E8EAF0">
<tspan>
  Jesus led me all the way, </tspan>
</text>
<text transform="translate(110.2900, 116.6406)" font-family="Century Schoolbook L" font-size="2.1999" text-anchor="start" fill="#E8EAF0">
<tspan>
This my song through endless ages: </tspan>
</text>
<text transform="translate(110.2900, 119.6406)" font-family="Century Schoolbook L" font-size="2.1999" text-anchor="start" fill="#E8EAF0">
<tspan>
  Jesus led me all the way. </tspan>
</text>
<text transform="translate(110.2900, 121.1406)" font-family="Century Schoolbook L" font-size="1.5560" text-anchor="start" fill="#E8EAF0">
<tspan>
 </tspan>
</text>
<text transform="translate(69.8622, 189.4189)" font-family="Trebuchet MS" font-size="2.1999" text-anchor="start" fill="#E8EAF0">
<tspan>
www.hymnal.net</tspan>
</text>
<text transform="translate(78.1419, 192.4189)" font-family="Century Schoolbook L" font-size="2.1999" text-anchor="start" fill="#E8EAF0">
<tspan/>
</text>
</svg>
