<svg xmlns="http://www.w3.org/2000/svg" xmlns:xlink="http://www.w3.org/1999/xlink" version="1.2" width="215.90mm" height="279.40mm" viewBox="0 0 153.5737 198.7425">
<!-- Page: 1/1 -->
<text transform="translate(9.0337, 6.3236)" font-family="Century Schoolbook L" font-size="2.1999" text-anchor="start" fill="#E8EAF0">
<tspan>
 </tspan>
</text>
<text transform="translate(64.4633, 9.6283)" font-family="Century Schoolbook L" font-weight="bold" font-size="3.1113" text-anchor="start" fill="#E8EAF0">
<tspan>
O to be like Thee</tspan>
</text>
<text transform="translate(58.2748, 13.1283)" font-family="Century Schoolbook L" font-weight="bold" font-size="2.1999" text-anchor="start" fill="#E8EAF0">
<tspan>
Longings — For Likeness to Christ</tspan>
</text>
<text transform="translate(137.3912, 17.6950)" font-family="Century Schoolbook L" font-size="5.8739" text-anchor="start" fill="#E8EAF0">
<tspan>
398</tspan>
</text>
<rect transform="translate(9.0337, 28.3175)" x="8.2932" y="-0.1082" width="1.9719" height="0.2164" ry="0.1082" fill="#E8EAF0"/>
<rect transform="translate(9.0337, 28.3175)" x="84.2744" y="-0.1082" width="1.9719" height="0.2164" ry="0.1082" fill="#E8EAF0"/>
<line transform="translate(9.0337, 27.3175)" stroke-linejoin="round" stroke-linecap="round" stroke-width="0.1164" stroke="#E8EAF0" x1="0.0582" y1="-0.0000" x2="138.1582" y2="-0.0000"/>
<line transform="translate(9.0337, 26.3175)" stroke-linejoin="round" stroke-linecap="round" stroke-width="0.1164" stroke="#E8EAF0" x1="0.0582" y1="-0.0000" x2="138.1582" y2="-0.0000"/>
<line transform="translate(9.0337, 25.3175)" stroke-linejoin="round" stroke-linecap="round" stroke-width="0.1164" stroke="#E8EAF0" x1="0.0582" y1="-0.0000" x2="138.1582" y2="-0.0000"/>
<line transform="translate(9.0337, 24.3175)" stroke-linejoin="round" stroke-linecap="round" stroke-width="0.1164" stroke="#E8EAF0" x1="0.0582" y1="-0.0000" x2="138.1582" y2="-0.0000"/>
<line transform="translate(9.0337, 23.3175)" stroke-linejoin="round" stroke-linecap="round" stroke-width="0.1164" stroke="#E8EAF0" x1="0.0582" y1="-0.0000" x2="138.1582" y2="-0.0000"/>
<rect transform="translate(33.0858, 25.3175)" x="0.0000" y="-2.0000" width="0.2212" height="4.0000" ry="0.0000" fill="#E8EAF0"/>
<rect transform="translate(70.9034, 25.3175)" x="0.0000" y="-2.0000" width="0.2212" height="4.0000" ry="0.0000" fill="#E8EAF0"/>
<rect transform="translate(147.0289, 25.3175)" x="0.0000" y="-2.0000" width="0.2212" height="4.0000" ry="0.0000" fill="#E8EAF0"/>
<rect transform="translate(109.0671, 25.3175)" x="0.0000" y="-2.0000" width="0.2212" height="4.0000" ry="0.0000" fill="#E8EAF0"/>
<rect transform="translate(133.2895, 25.3175)" x="-0.0757" y="-1.1818" width="0.1514" height="3.0086" ry="0.0500" fill="#E8EAF0"/>
<text transform="translate(130.2965, 32.1376)" font-family="Century Schoolbook L" font-size="2.4695" text-anchor="start" fill="#E8EAF0">
<tspan>
long</tspan>
</text>
<path transform="translate(132.0506, 27.3175) scale(0.0040, -0.0040)" d="M214 140c59 0 115 -32 115 -97c0 -72 -54 -121 -101 -149c-35 -21 -74 -34 -114 -34c-59 0 -114 32 -114 97c0 72 54 121 101 149c35 21 73 34 113 34z" fill="#E8EAF0"/>
<text transform="translate(132.0506, 22.2748)" font-family="sans-serif" font-size="1.9603" text-anchor="start" fill="#E8EAF0">
<tspan>
A</tspan>
</text>
<text transform="translate(133.3736, 22.2748)" font-family="sans-serif" font-size="1.9603" text-anchor="start" fill="#E8EAF0">
<tspan/>
</text>
<text transform="translate(133.3736, 22.2748)" font-family="sans-serif" font-size="1.9603" text-anchor="start" fill="#E8EAF0">
<tspan>
m</tspan>
</text>
<text transform="translate(135.2515, 21.3839)" font-family="sans-serif" font-size="1.3858" text-anchor="start" fill="#E8EAF0">
<tspan/>
</text>
<rect transform="translate(122.6824, 25.3175)" x="-0.0757" y="-1.5000" width="0.1514" height="3.3269" ry="0.0500" fill="#E8EAF0"/>
<text transform="translate(119.1132, 32.1376)" font-family="Century Schoolbook L" font-size="2.4695" text-anchor="start" fill="#E8EAF0">
<tspan>
stant</tspan>
</text>
<path transform="translate(136.9600, 26.8175) scale(0.0040, -0.0040)" d="M214 140c59 0 115 -32 115 -97c0 -72 -54 -121 -101 -149c-35 -21 -74 -34 -114 -34c-59 0 -114 32 -114 97c0 72 54 121 101 149c35 21 73 34 113 34z" fill="#E8EAF0"/>
<text transform="translate(135.8248, 32.1376)" font-family="Century Schoolbook L" font-size="2.4695" text-anchor="start" fill="#E8EAF0">
<tspan>
ing</tspan>
</text>
<rect transform="translate(138.1990, 25.3175)" x="-0.0757" y="-1.1818" width="0.1514" height="2.5086" ry="0.0500" fill="#E8EAF0"/>
<path transform="translate(141.8695, 27.3175) scale(0.0040, -0.0040)" d="M214 140c59 0 115 -32 115 -97c0 -72 -54 -121 -101 -149c-35 -21 -74 -34 -114 -34c-59 0 -114 32 -114 97c0 72 54 121 101 149c35 21 73 34 113 34z" fill="#E8EAF0"/>
<text transform="translate(140.3928, 32.1376)" font-family="Century Schoolbook L" font-size="2.4695" text-anchor="start" fill="#E8EAF0">
<tspan>
and</tspan>
</text>
<rect transform="translate(18.8945, 25.3175)" x="-0.0757" y="-0.8268" width="0.1514" height="3.6536" ry="0.0500" fill="#E8EAF0"/>
<path transform="translate(103.9557, 26.3175) scale(0.0040, -0.0040)" d="M214 140c59 0 115 -32 115 -97c0 -72 -54 -121 -101 -149c-35 -21 -74 -34 -114 -34c-59 0 -114 32 -114 97c0 72 54 121 101 149c35 21 73 34 113 34z" fill="#E8EAF0"/>
<text transform="translate(102.8632, 32.1376)" font-family="Century Schoolbook L" font-size="2.4695" text-anchor="start" fill="#E8EAF0">
<tspan>
my</tspan>
</text>
<rect transform="translate(105.1947, 25.3175)" x="-0.0757" y="-1.9915" width="0.1514" height="2.8183" ry="0.0500" fill="#E8EAF0"/>
<path transform="translate(111.0864, 26.3175) scale(0.0040, -0.0040)" d="M214 140c59 0 115 -32 115 -97c0 -72 -54 -121 -101 -149c-35 -21 -74 -34 -114 -34c-59 0 -114 32 -114 97c0 72 54 121 101 149c35 21 73 34 113 34z" fill="#E8EAF0"/>
<text transform="translate(109.8231, 32.1376)" font-family="Century Schoolbook L" font-size="2.4695" text-anchor="start" fill="#E8EAF0">
<tspan>
con</tspan>
</text>
<rect transform="translate(112.3253, 25.3175)" x="-0.0757" y="-2.5000" width="0.1514" height="3.3269" ry="0.0500" fill="#E8EAF0"/>
<path transform="translate(121.4435, 27.3175) scale(0.0040, -0.0040)" d="M214 140c59 0 115 -32 115 -97c0 -72 -54 -121 -101 -149c-35 -21 -74 -34 -114 -34c-59 0 -114 32 -114 97c0 72 54 121 101 149c35 21 73 34 113 34z" fill="#E8EAF0"/>
<text transform="translate(137.7082, 23.3932)" font-family="Century Schoolbook L" font-style="italic" font-size="1.7463" text-anchor="start" fill="#E8EAF0">
<tspan>
3</tspan>
</text>
<polygon transform="translate(133.2138, 24.1357)" stroke-linejoin="round" stroke-linecap="round" stroke-width="0.1000" fill="#E8EAF0" stroke="#E8EAF0" points="9.9202 -0.1900 9.9202 0.1900 0.0500 0.1900 0.0500 -0.1900"/>
<rect transform="translate(116.0587, 32.1376)" x="0.0000" y="-0.5714" width="0.6600" height="0.1514" ry="0.0466" fill="#E8EAF0"/>
<text transform="translate(99.5444, 23.1575)" font-family="Century Schoolbook L" font-style="italic" font-size="1.7463" text-anchor="start" fill="#E8EAF0">
<tspan>
3</tspan>
</text>
<polygon transform="translate(94.8001, 24.4993)" stroke-linejoin="round" stroke-linecap="round" stroke-width="0.1000" fill="#E8EAF0" stroke="#E8EAF0" points="10.4202 -1.3718 10.4202 -0.9918 0.0500 0.1900 0.0500 -0.1900"/>
<rect transform="translate(79.1861, 32.1376)" x="0.0000" y="-0.5714" width="0.6600" height="0.1514" ry="0.0466" fill="#E8EAF0"/>
<rect transform="translate(69.1111, 32.1376)" x="0.0000" y="-0.5714" width="0.6600" height="0.1514" ry="0.0466" fill="#E8EAF0"/>
<rect transform="translate(59.9067, 32.1376)" x="0.0000" y="-0.5714" width="0.6082" height="0.1514" ry="0.0466" fill="#E8EAF0"/>
<text transform="translate(60.8356, 29.7597)" font-family="Century Schoolbook L" font-style="italic" font-size="1.7463" text-anchor="start" fill="#E8EAF0">
<tspan>
3</tspan>
</text>
<polygon transform="translate(56.3412, 28.1357)" stroke-linejoin="round" stroke-linecap="round" stroke-width="0.1000" fill="#E8EAF0" stroke="#E8EAF0" points="9.9202 -0.8264 9.9202 -0.4464 0.0500 0.1900 0.0500 -0.1900"/>
<text transform="translate(23.5631, 23.1575)" font-family="Century Schoolbook L" font-style="italic" font-size="1.7463" text-anchor="start" fill="#E8EAF0">
<tspan>
3</tspan>
</text>
<polygon transform="translate(18.8188, 24.4993)" stroke-linejoin="round" stroke-linecap="round" stroke-width="0.1000" fill="#E8EAF0" stroke="#E8EAF0" points="10.4202 -1.3718 10.4202 -0.9918 0.0500 0.1900 0.0500 -0.1900"/>
<rect transform="translate(143.1084, 25.3175)" x="-0.0757" y="-1.1818" width="0.1514" height="3.0086" ry="0.0500" fill="#E8EAF0"/>
<path transform="translate(22.8150, 27.3175) scale(0.0040, -0.0040)" d="M214 140c59 0 115 -32 115 -97c0 -72 -54 -121 -101 -149c-35 -21 -74 -34 -114 -34c-59 0 -114 32 -114 97c0 72 54 121 101 149c35 21 73 34 113 34z" fill="#E8EAF0"/>
<text transform="translate(22.3626, 32.1376)" font-family="Century Schoolbook L" font-size="2.4695" text-anchor="start" fill="#E8EAF0">
<tspan>
to</tspan>
</text>
<rect transform="translate(24.0539, 25.3175)" x="-0.0757" y="-1.4091" width="0.1514" height="3.2360" ry="0.0500" fill="#E8EAF0"/>
<rect transform="translate(135.1893, 32.1376)" x="0.0000" y="-0.5714" width="0.5655" height="0.1514" ry="0.0466" fill="#E8EAF0"/>
<path transform="translate(17.6556, 28.3175) scale(0.0040, -0.0040)" d="M214 140c59 0 115 -32 115 -97c0 -72 -54 -121 -101 -149c-35 -21 -74 -34 -114 -34c-59 0 -114 32 -114 97c0 72 54 121 101 149c35 21 73 34 113 34z" fill="#E8EAF0"/>
<path transform="translate(45.7122, 26.3175) scale(0.0040, -0.0040)" d="M214 140c59 0 115 -32 115 -97c0 -72 -54 -121 -101 -149c-35 -21 -74 -34 -114 -34c-59 0 -114 32 -114 97c0 72 54 121 101 149c35 21 73 34 113 34z" fill="#E8EAF0"/>
<text transform="translate(43.1899, 32.1376)" font-family="Century Schoolbook L" font-size="2.4695" text-anchor="start" fill="#E8EAF0">
<tspan>
Thee!</tspan>
</text>
<rect transform="translate(46.9511, 25.3175)" x="-0.0757" y="-2.5000" width="0.1514" height="3.3269" ry="0.0500" fill="#E8EAF0"/>
<path transform="translate(9.8338, 26.3175) scale(0.0040, -0.0040)" d="M379 264c3 0 7 1 10 1c157 0 258 -129 258 -263c0 -77 -33 -155 -108 -211c-22 -16 -46 -29 -72 -37c3 -33 4 -66 4 -99c0 -21 0 -41 -1 -62c-7 -121 -91 -229 -211 -229c-108 0 -196 88 -196 197c0 58 54 103 113 103c54 0 95 -47 95 -103c0 -52 -43 -95 -95 -95
c-9 0 -18 1 -27 4c25 -37 66 -61 113 -61c95 0 156 93 162 191c1 19 2 38 2 57c0 29 -1 58 -3 87c-29 -5 -58 -8 -88 -8c-189 0 -333 173 -333 376c0 177 129 308 244 443c-20 62 -40 124 -48 189c-7 52 -7 105 -7 158c0 114 54 221 147 288c4 3 8 4 12 4c5 0 9 -2 13 -5
c72 -83 135 -243 135 -356c0 -142 -84 -255 -176 -364c21 -68 40 -136 57 -205zM463 -201c65 24 110 94 110 161c0 88 -64 175 -167 188c24 -114 44 -227 57 -349zM77 25c0 -133 128 -243 261 -243c27 0 55 1 81 5c-13 126 -35 244 -60 362c-79 -8 -124 -60 -124 -118
c0 -43 25 -88 80 -120c5 -5 7 -11 7 -17c0 -12 -10 -23 -23 -23c-3 0 -7 1 -10 2c-81 43 -118 115 -118 186c0 89 60 177 163 200c-14 57 -30 113 -47 169c-105 -122 -210 -243 -210 -403zM403 1038c-99 -46 -161 -145 -161 -254c0 -71 21 -130 39 -188
c78 97 142 199 142 324c0 51 -4 72 -20 118z" fill="#E8EAF0"/>
<text transform="translate(56.3412, 22.2748)" font-family="sans-serif" font-size="1.9603" text-anchor="start" fill="#E8EAF0">
<tspan>
F</tspan>
</text>
<text transform="translate(57.4509, 22.2748)" font-family="sans-serif" font-size="1.9603" text-anchor="start" fill="#E8EAF0">
<tspan/>
</text>
<text transform="translate(57.4509, 22.2748)" font-family="sans-serif" font-size="1.9603" text-anchor="start" fill="#E8EAF0">
<tspan/>
</text>
<text transform="translate(57.4509, 21.3839)" font-family="sans-serif" font-size="1.3858" text-anchor="start" fill="#E8EAF0">
<tspan/>
</text>
<text transform="translate(57.4509, 22.2748)" font-family="sans-serif" font-size="1.9603" text-anchor="start" fill="#E8EAF0">
<tspan>
/</tspan>
</text>
<text transform="translate(58.3472, 22.2748)" font-family="sans-serif" font-size="1.9603" text-anchor="start" fill="#E8EAF0">
<tspan>
C</tspan>
</text>
<text transform="translate(59.7129, 22.2748)" font-family="sans-serif" font-size="1.9603" text-anchor="start" fill="#E8EAF0">
<tspan/>
</text>
<path transform="translate(56.3412, 25.8175) scale(0.0040, -0.0040)" d="M214 140c59 0 115 -32 115 -97c0 -72 -54 -121 -101 -149c-35 -21 -74 -34 -114 -34c-59 0 -114 32 -114 97c0 72 54 121 101 149c35 21 73 34 113 34z" fill="#E8EAF0"/>
<text transform="translate(54.1604, 32.1376)" font-family="Century Schoolbook L" font-size="2.4695" text-anchor="start" fill="#E8EAF0">
<tspan>
bless</tspan>
</text>
<rect transform="translate(56.4169, 25.3175)" x="-0.0757" y="0.6731" width="0.1514" height="2.1402" ry="0.0500" fill="#E8EAF0"/>
<path transform="translate(61.2507, 25.3175) scale(0.0040, -0.0040)" d="M214 140c59 0 115 -32 115 -97c0 -72 -54 -121 -101 -149c-35 -21 -74 -34 -114 -34c-59 0 -114 32 -114 97c0 72 54 121 101 149c35 21 73 34 113 34z" fill="#E8EAF0"/>
<text transform="translate(60.5849, 32.1376)" font-family="Century Schoolbook L" font-size="2.4695" text-anchor="start" fill="#E8EAF0">
<tspan>
ed</tspan>
</text>
<rect transform="translate(61.3264, 25.3175)" x="-0.0757" y="0.1731" width="0.1514" height="2.3269" ry="0.0500" fill="#E8EAF0"/>
<text transform="translate(17.6556, 22.2748)" font-family="sans-serif" font-size="1.9603" text-anchor="start" fill="#E8EAF0">
<tspan>
C</tspan>
</text>
<text transform="translate(19.0213, 22.2748)" font-family="sans-serif" font-size="1.9603" text-anchor="start" fill="#E8EAF0">
<tspan/>
</text>
<text transform="translate(19.0213, 22.2748)" font-family="sans-serif" font-size="1.9603" text-anchor="start" fill="#E8EAF0">
<tspan/>
</text>
<text transform="translate(19.0213, 21.3839)" font-family="sans-serif" font-size="1.3858" text-anchor="start" fill="#E8EAF0">
<tspan/>
</text>
<path transform="translate(27.9744, 26.3175) scale(0.0040, -0.0040)" d="M214 140c59 0 115 -32 115 -97c0 -72 -54 -121 -101 -149c-35 -21 -74 -34 -114 -34c-59 0 -114 32 -114 97c0 72 54 121 101 149c35 21 73 34 113 34z" fill="#E8EAF0"/>
<text transform="translate(27.3300, 32.1376)" font-family="Century Schoolbook L" font-size="2.4695" text-anchor="start" fill="#E8EAF0">
<tspan>
be</tspan>
</text>
<rect transform="translate(29.2134, 25.3175)" x="-0.0757" y="-1.9915" width="0.1514" height="2.8183" ry="0.0500" fill="#E8EAF0"/>
<path transform="translate(35.1051, 26.3175) scale(0.0040, -0.0040)" d="M214 140c59 0 115 -32 115 -97c0 -72 -54 -121 -101 -149c-35 -21 -74 -34 -114 -34c-59 0 -114 32 -114 97c0 72 54 121 101 149c35 21 73 34 113 34z" fill="#E8EAF0"/>
<text transform="translate(33.6498, 32.1376)" font-family="Century Schoolbook L" font-size="2.4695" text-anchor="start" fill="#E8EAF0">
<tspan>
like</tspan>
</text>
<rect transform="translate(36.3440, 25.3175)" x="-0.0757" y="-2.5000" width="0.1514" height="3.3269" ry="0.0500" fill="#E8EAF0"/>
<text transform="translate(17.3526, 32.1376)" font-family="Century Schoolbook L" font-size="2.4695" text-anchor="start" fill="#E8EAF0">
<tspan>
O</tspan>
</text>
<path transform="translate(83.2797, 27.3175) scale(0.0040, -0.0040)" d="M214 140c59 0 115 -32 115 -97c0 -72 -54 -121 -101 -149c-35 -21 -74 -34 -114 -34c-59 0 -114 32 -114 97c0 72 54 121 101 149c35 21 73 34 113 34z" fill="#E8EAF0"/>
<text transform="translate(82.4219, 32.1376)" font-family="Century Schoolbook L" font-size="2.4695" text-anchor="start" fill="#E8EAF0">
<tspan>
er;</tspan>
</text>
<rect transform="translate(84.5187, 25.3175)" x="-0.0757" y="-1.5000" width="0.1514" height="3.3269" ry="0.0500" fill="#E8EAF0"/>
<text transform="translate(14.4747, 32.1376)" font-family="Century Schoolbook L" font-weight="bold" font-size="2.1999" text-anchor="start" fill="#E8EAF0">
<tspan>
1.</tspan>
</text>
<path transform="translate(93.6369, 28.3175) scale(0.0040, -0.0040)" d="M214 140c59 0 115 -32 115 -97c0 -72 -54 -121 -101 -149c-35 -21 -74 -34 -114 -34c-59 0 -114 32 -114 97c0 72 54 121 101 149c35 21 73 34 113 34z" fill="#E8EAF0"/>
<text transform="translate(91.7548, 32.1376)" font-family="Century Schoolbook L" font-size="2.4695" text-anchor="start" fill="#E8EAF0">
<tspan>
This</tspan>
</text>
<rect transform="translate(94.8758, 25.3175)" x="-0.0757" y="-0.8268" width="0.1514" height="3.6536" ry="0.0500" fill="#E8EAF0"/>
<path transform="translate(98.7963, 27.3175) scale(0.0040, -0.0040)" d="M214 140c59 0 115 -32 115 -97c0 -72 -54 -121 -101 -149c-35 -21 -74 -34 -114 -34c-59 0 -114 32 -114 97c0 72 54 121 101 149c35 21 73 34 113 34z" fill="#E8EAF0"/>
<text transform="translate(98.4933, 32.1376)" font-family="Century Schoolbook L" font-size="2.4695" text-anchor="start" fill="#E8EAF0">
<tspan>
is</tspan>
</text>
<rect transform="translate(100.0352, 25.3175)" x="-0.0757" y="-1.4091" width="0.1514" height="3.2360" ry="0.0500" fill="#E8EAF0"/>
<path transform="translate(14.0337, 27.3234) scale(0.0040, -0.0040)" d="M201 296c23 15 46 29 62 51c12 16 20 35 28 52c2 4 6 6 10 6c7 0 14 -5 14 -15v-233h76c11 0 16 -8 16 -16s-5 -16 -16 -16h-76v-2c0 -50 30 -97 77 -97c9 0 12 -7 12 -13s-3 -13 -12 -13c-46 0 -92 13 -138 13s-93 -13 -139 -13c-9 0 -12 7 -12 13s3 13 12 13
c47 0 77 47 77 97v2h-160c-26 0 -34 15 -34 25c0 3 1 6 2 7c79 91 131 205 131 325c0 10 7 18 15 18h3c24 -7 49 -13 74 -13s50 6 74 13c2 1 3 1 5 1c9 0 15 -7 15 -13c0 -2 0 -4 -2 -6l-283 -325h160v115c0 9 1 19 9 24z" fill="#E8EAF0"/>
<path transform="translate(14.1618, 25.3175) scale(0.0040, -0.0040)" d="M153 474c-30 0 -63 -8 -63 -34c0 -21 35 -25 35 -46c0 -31 -25 -56 -56 -56s-56 25 -56 56c0 66 68 106 140 106c92 0 171 -32 171 -114c0 -42 -6 -79 -43 -96c-10 -5 -15 -15 -15 -25s5 -19 15 -24c41 -19 58 -56 58 -101c0 -93 -81 -140 -182 -140
c-80 0 -157 43 -157 116c0 35 29 64 64 64s64 -29 64 -64c0 -24 -39 -29 -39 -53c0 -29 35 -37 68 -37c47 0 59 59 59 114v28c0 47 -2 81 -46 81h-77c-11 0 -16 8 -16 16s5 16 16 16h77c44 0 46 37 46 86v19c0 53 -15 88 -63 88z" fill="#E8EAF0"/>
<path transform="translate(66.1601, 24.8175) scale(0.0040, -0.0040)" d="M214 140c59 0 115 -32 115 -97c0 -72 -54 -121 -101 -149c-35 -21 -74 -34 -114 -34c-59 0 -114 32 -114 97c0 72 54 121 101 149c35 21 73 34 113 34z" fill="#E8EAF0"/>
<text transform="translate(65.3023, 32.1376)" font-family="Century Schoolbook L" font-size="2.4695" text-anchor="start" fill="#E8EAF0">
<tspan>
Re</tspan>
</text>
<rect transform="translate(66.2358, 25.3175)" x="-0.0757" y="-0.3269" width="0.1514" height="2.5135" ry="0.0500" fill="#E8EAF0"/>
<text transform="translate(72.9226, 22.2748)" font-family="sans-serif" font-size="1.9603" text-anchor="start" fill="#E8EAF0">
<tspan>
C</tspan>
</text>
<text transform="translate(74.2884, 22.2748)" font-family="sans-serif" font-size="1.9603" text-anchor="start" fill="#E8EAF0">
<tspan/>
</text>
<text transform="translate(74.2884, 22.2748)" font-family="sans-serif" font-size="1.9603" text-anchor="start" fill="#E8EAF0">
<tspan/>
</text>
<text transform="translate(74.2884, 21.3839)" font-family="sans-serif" font-size="1.3858" text-anchor="start" fill="#E8EAF0">
<tspan/>
</text>
<path transform="translate(72.9226, 26.3175) scale(0.0040, -0.0040)" d="M214 140c59 0 115 -32 115 -97c0 -72 -54 -121 -101 -149c-35 -21 -74 -34 -114 -34c-59 0 -114 32 -114 97c0 72 54 121 101 149c35 21 73 34 113 34z" fill="#E8EAF0"/>
<text transform="translate(70.5497, 32.1376)" font-family="Century Schoolbook L" font-size="2.4695" text-anchor="start" fill="#E8EAF0">
<tspan>
deem</tspan>
</text>
<rect transform="translate(74.1616, 25.3175)" x="-0.0757" y="-2.5000" width="0.1514" height="3.3269" ry="0.0500" fill="#E8EAF0"/>
<rect transform="translate(77.1287, 38.5650)" x="0.0000" y="-2.0000" width="0.2212" height="4.0000" ry="0.0000" fill="#E8EAF0"/>
<rect transform="translate(9.0337, 41.5650)" x="18.2003" y="-0.1082" width="1.9719" height="0.2164" ry="0.1082" fill="#E8EAF0"/>
<line transform="translate(9.0337, 40.5650)" stroke-linejoin="round" stroke-linecap="round" stroke-width="0.1164" stroke="#E8EAF0" x1="0.0582" y1="-0.0000" x2="138.1582" y2="-0.0000"/>
<line transform="translate(9.0337, 39.5650)" stroke-linejoin="round" stroke-linecap="round" stroke-width="0.1164" stroke="#E8EAF0" x1="0.0582" y1="-0.0000" x2="138.1582" y2="-0.0000"/>
<line transform="translate(9.0337, 38.5650)" stroke-linejoin="round" stroke-linecap="round" stroke-width="0.1164" stroke="#E8EAF0" x1="0.0582" y1="-0.0000" x2="138.1582" y2="-0.0000"/>
<line transform="translate(9.0337, 37.5650)" stroke-linejoin="round" stroke-linecap="round" stroke-width="0.1164" stroke="#E8EAF0" x1="0.0582" y1="-0.0000" x2="138.1582" y2="-0.0000"/>
<line transform="translate(9.0337, 36.5650)" stroke-linejoin="round" stroke-linecap="round" stroke-width="0.1164" stroke="#E8EAF0" x1="0.0582" y1="-0.0000" x2="138.1582" y2="-0.0000"/>
<rect transform="translate(112.2381, 38.5650)" x="0.0000" y="-2.0000" width="0.2212" height="4.0000" ry="0.0000" fill="#E8EAF0"/>
<rect transform="translate(147.0289, 38.5650)" x="0.0000" y="-2.0000" width="0.2212" height="4.0000" ry="0.0000" fill="#E8EAF0"/>
<rect transform="translate(41.6902, 38.5650)" x="0.0000" y="-2.0000" width="0.2212" height="4.0000" ry="0.0000" fill="#E8EAF0"/>
<rect transform="translate(115.3334, 38.5650)" x="-0.0757" y="-1.0000" width="0.1514" height="3.3269" ry="0.0500" fill="#E8EAF0"/>
<text transform="translate(112.8739, 45.3851)" font-family="Century Schoolbook L" font-size="2.4695" text-anchor="start" fill="#E8EAF0">
<tspan>
per</tspan>
</text>
<path transform="translate(114.0945, 41.0650) scale(0.0040, -0.0040)" d="M214 140c59 0 115 -32 115 -97c0 -72 -54 -121 -101 -149c-35 -21 -74 -34 -114 -34c-59 0 -114 32 -114 97c0 72 54 121 101 149c35 21 73 34 113 34z" fill="#E8EAF0"/>
<text transform="translate(114.0945, 35.5223)" font-family="sans-serif" font-size="1.9603" text-anchor="start" fill="#E8EAF0">
<tspan>
G</tspan>
</text>
<text transform="translate(115.6310, 35.5223)" font-family="sans-serif" font-size="1.9603" text-anchor="start" fill="#E8EAF0">
<tspan/>
</text>
<text transform="translate(115.6310, 35.5223)" font-family="sans-serif" font-size="1.9603" text-anchor="start" fill="#E8EAF0">
<tspan/>
</text>
<text transform="translate(115.6310, 34.6314)" font-family="sans-serif" font-size="1.3858" text-anchor="start" fill="#E8EAF0">
<tspan/>
</text>
<text transform="translate(115.6310, 35.5223)" font-family="sans-serif" font-size="1.9603" text-anchor="start" fill="#E8EAF0">
<tspan>
/</tspan>
</text>
<text transform="translate(116.5272, 35.5223)" font-family="sans-serif" font-size="1.9603" text-anchor="start" fill="#E8EAF0">
<tspan>
D</tspan>
</text>
<text transform="translate(118.0210, 35.5223)" font-family="sans-serif" font-size="1.9603" text-anchor="start" fill="#E8EAF0">
<tspan/>
</text>
<rect transform="translate(108.7519, 38.5650)" x="-0.0757" y="-1.1868" width="0.1514" height="3.0137" ry="0.0500" fill="#E8EAF0"/>
<path transform="translate(123.9581, 38.0650) scale(0.0040, -0.0040)" d="M214 140c59 0 115 -32 115 -97c0 -72 -54 -121 -101 -149c-35 -21 -74 -34 -114 -34c-59 0 -114 32 -114 97c0 72 54 121 101 149c35 21 73 34 113 34z" fill="#E8EAF0"/>
<text transform="translate(122.5455, 45.3851)" font-family="Century Schoolbook L" font-size="2.4695" text-anchor="start" fill="#E8EAF0">
<tspan>
fect</tspan>
</text>
<rect transform="translate(124.0338, 38.5650)" x="-0.0757" y="-0.3269" width="0.1514" height="3.3269" ry="0.0500" fill="#E8EAF0"/>
<path transform="translate(88.3719, 40.5650) scale(0.0040, -0.0040)" d="M214 140c59 0 115 -32 115 -97c0 -72 -54 -121 -101 -149c-35 -21 -74 -34 -114 -34c-59 0 -114 32 -114 97c0 72 54 121 101 149c35 21 73 34 113 34z" fill="#E8EAF0"/>
<text transform="translate(85.6149, 45.3851)" font-family="Century Schoolbook L" font-size="2.4695" text-anchor="start" fill="#E8EAF0">
<tspan>
sures,</tspan>
</text>
<rect transform="translate(89.6108, 38.5650)" x="-0.0757" y="-1.5000" width="0.1514" height="3.3269" ry="0.0500" fill="#E8EAF0"/>
<path transform="translate(98.1064, 39.5650) scale(0.0040, -0.0040)" d="M214 140c59 0 115 -32 115 -97c0 -72 -54 -121 -101 -149c-35 -21 -74 -34 -114 -34c-59 0 -114 32 -114 97c0 72 54 121 101 149c35 21 73 34 113 34z" fill="#E8EAF0"/>
<text transform="translate(97.4620, 45.3851)" font-family="Century Schoolbook L" font-size="2.4695" text-anchor="start" fill="#E8EAF0">
<tspan>
Je</tspan>
</text>
<rect transform="translate(99.3454, 38.5650)" x="-0.0757" y="-1.8132" width="0.1514" height="2.6400" ry="0.0500" fill="#E8EAF0"/>
<path transform="translate(102.5816, 40.0650) scale(0.0040, -0.0040)" d="M214 140c59 0 115 -32 115 -97c0 -72 -54 -121 -101 -149c-35 -21 -74 -34 -114 -34c-59 0 -114 32 -114 97c0 72 54 121 101 149c35 21 73 34 113 34z" fill="#E8EAF0"/>
<text transform="translate(100.9983, 45.3851)" font-family="Century Schoolbook L" font-size="2.4695" text-anchor="start" fill="#E8EAF0">
<tspan>
sus,</tspan>
</text>
<rect transform="translate(103.8205, 38.5650)" x="-0.0757" y="-1.5152" width="0.1514" height="2.8420" ry="0.0500" fill="#E8EAF0"/>
<path transform="translate(107.5129, 40.5650) scale(0.0040, -0.0040)" d="M214 140c59 0 115 -32 115 -97c0 -72 -54 -121 -101 -149c-35 -21 -74 -34 -114 -34c-59 0 -114 32 -114 97c0 72 54 121 101 149c35 21 73 34 113 34z" fill="#E8EAF0"/>
<text transform="translate(105.9296, 45.3851)" font-family="Century Schoolbook L" font-size="2.4695" text-anchor="start" fill="#E8EAF0">
<tspan>
Thy</tspan>
</text>
<text transform="translate(137.6305, 43.0075)" font-family="Century Schoolbook L" font-style="italic" font-size="1.7463" text-anchor="start" fill="#E8EAF0">
<tspan>
3</tspan>
</text>
<polygon transform="translate(133.4427, 40.7467)" stroke-linejoin="round" stroke-linecap="round" stroke-width="0.1000" fill="#E8EAF0" stroke="#E8EAF0" points="9.3072 0.4464 9.3072 0.8264 0.0500 0.1900 0.0500 -0.1900"/>
<rect transform="translate(119.2576, 45.3851)" x="0.0000" y="-0.5714" width="0.6600" height="0.1514" ry="0.0466" fill="#E8EAF0"/>
<rect transform="translate(100.2019, 45.3851)" x="0.0000" y="-0.5714" width="0.6600" height="0.1514" ry="0.0466" fill="#E8EAF0"/>
<text transform="translate(103.5578, 36.3175)" font-family="Century Schoolbook L" font-style="italic" font-size="1.7463" text-anchor="start" fill="#E8EAF0">
<tspan>
3</tspan>
</text>
<polygon transform="translate(99.2697, 36.7467)" stroke-linejoin="round" stroke-linecap="round" stroke-width="0.1000" fill="#E8EAF0" stroke="#E8EAF0" points="9.5078 0.4464 9.5078 0.8264 0.0500 0.1900 0.0500 -0.1900"/>
<rect transform="translate(83.5485, 45.3851)" x="0.0000" y="-0.5714" width="0.6600" height="0.1514" ry="0.0466" fill="#E8EAF0"/>
<text transform="translate(67.0604, 43.0072)" font-family="Century Schoolbook L" font-style="italic" font-size="1.7463" text-anchor="start" fill="#E8EAF0">
<tspan>
3</tspan>
</text>
<polygon transform="translate(62.5376, 41.3832)" stroke-linejoin="round" stroke-linecap="round" stroke-width="0.1000" fill="#E8EAF0" stroke="#E8EAF0" points="9.9773 -0.8264 9.9773 -0.4464 0.0500 0.1900 0.0500 -0.1900"/>
<rect transform="translate(48.4561, 45.3851)" x="0.0000" y="-0.5714" width="0.6600" height="0.1514" ry="0.0466" fill="#E8EAF0"/>
<rect transform="translate(31.0955, 45.3851)" x="0.0000" y="-0.5714" width="0.6600" height="0.1514" ry="0.0466" fill="#E8EAF0"/>
<text transform="translate(33.0360, 36.4042)" font-family="Century Schoolbook L" font-style="italic" font-size="1.7463" text-anchor="start" fill="#E8EAF0">
<tspan>
3</tspan>
</text>
<polygon transform="translate(28.7260, 37.7467)" stroke-linejoin="round" stroke-linecap="round" stroke-width="0.1000" fill="#E8EAF0" stroke="#E8EAF0" points="9.5517 -1.3718 9.5517 -0.9918 0.0500 0.1900 0.0500 -0.1900"/>
<text transform="translate(133.4427, 35.5223)" font-family="sans-serif" font-size="1.9603" text-anchor="start" fill="#E8EAF0">
<tspan>
D</tspan>
</text>
<text transform="translate(134.9364, 35.5223)" font-family="sans-serif" font-size="1.9603" text-anchor="start" fill="#E8EAF0">
<tspan/>
</text>
<text transform="translate(134.9364, 35.5223)" font-family="sans-serif" font-size="1.9603" text-anchor="start" fill="#E8EAF0">
<tspan/>
</text>
<text transform="translate(134.9364, 34.6314)" font-family="sans-serif" font-size="1.3858" text-anchor="start" fill="#E8EAF0">
<tspan/>
</text>
<text transform="translate(134.9364, 34.6314)" font-family="sans-serif" font-size="1.3858" text-anchor="start" fill="#E8EAF0">
<tspan>
7</tspan>
</text>
<path transform="translate(133.4427, 38.0650) scale(0.0040, -0.0040)" d="M214 140c59 0 115 -32 115 -97c0 -72 -54 -121 -101 -149c-35 -21 -74 -34 -114 -34c-59 0 -114 32 -114 97c0 72 54 121 101 149c35 21 73 34 113 34z" fill="#E8EAF0"/>
<text transform="translate(131.9874, 45.3851)" font-family="Century Schoolbook L" font-size="2.4695" text-anchor="start" fill="#E8EAF0">
<tspan>
like</tspan>
</text>
<rect transform="translate(133.5183, 38.5650)" x="-0.0757" y="-0.3269" width="0.1514" height="2.5138" ry="0.0500" fill="#E8EAF0"/>
<path transform="translate(138.1733, 38.5650) scale(0.0040, -0.0040)" d="M214 140c59 0 115 -32 115 -97c0 -72 -54 -121 -101 -149c-35 -21 -74 -34 -114 -34c-59 0 -114 32 -114 97c0 72 54 121 101 149c35 21 73 34 113 34z" fill="#E8EAF0"/>
<text transform="translate(136.3126, 45.3851)" font-family="Century Schoolbook L" font-size="2.4695" text-anchor="start" fill="#E8EAF0">
<tspan>
ness</tspan>
</text>
<rect transform="translate(138.2490, 38.5650)" x="-0.0757" y="0.1731" width="0.1514" height="2.3355" ry="0.0500" fill="#E8EAF0"/>
<path transform="translate(142.6485, 39.0650) scale(0.0040, -0.0040)" d="M214 140c59 0 115 -32 115 -97c0 -72 -54 -121 -101 -149c-35 -21 -74 -34 -114 -34c-59 0 -114 32 -114 97c0 72 54 121 101 149c35 21 73 34 113 34z" fill="#E8EAF0"/>
<text transform="translate(142.1962, 45.3851)" font-family="Century Schoolbook L" font-size="2.4695" text-anchor="start" fill="#E8EAF0">
<tspan>
to</tspan>
</text>
<rect transform="translate(142.7242, 38.5650)" x="-0.0757" y="0.6731" width="0.1514" height="2.1399" ry="0.0500" fill="#E8EAF0"/>
<text transform="translate(27.5627, 35.5223)" font-family="sans-serif" font-size="1.9603" text-anchor="start" fill="#E8EAF0">
<tspan>
G</tspan>
</text>
<text transform="translate(29.0992, 35.5223)" font-family="sans-serif" font-size="1.9603" text-anchor="start" fill="#E8EAF0">
<tspan/>
</text>
<text transform="translate(29.0992, 35.5223)" font-family="sans-serif" font-size="1.9603" text-anchor="start" fill="#E8EAF0">
<tspan/>
</text>
<text transform="translate(29.0992, 34.6314)" font-family="sans-serif" font-size="1.3858" text-anchor="start" fill="#E8EAF0">
<tspan/>
</text>
<text transform="translate(29.0992, 34.6314)" font-family="sans-serif" font-size="1.3858" text-anchor="start" fill="#E8EAF0">
<tspan>
7</tspan>
</text>
<path transform="translate(27.5627, 41.5650) scale(0.0040, -0.0040)" d="M214 140c59 0 115 -32 115 -97c0 -72 -54 -121 -101 -149c-35 -21 -74 -34 -114 -34c-59 0 -114 32 -114 97c0 72 54 121 101 149c35 21 73 34 113 34z" fill="#E8EAF0"/>
<text transform="translate(25.4886, 45.3851)" font-family="Century Schoolbook L" font-size="2.4695" text-anchor="start" fill="#E8EAF0">
<tspan>
Glad</tspan>
</text>
<rect transform="translate(28.8017, 38.5650)" x="-0.0757" y="-0.8275" width="0.1514" height="3.6544" ry="0.0500" fill="#E8EAF0"/>
<path transform="translate(32.2879, 40.5650) scale(0.0040, -0.0040)" d="M214 140c59 0 115 -32 115 -97c0 -72 -54 -121 -101 -149c-35 -21 -74 -34 -114 -34c-59 0 -114 32 -114 97c0 72 54 121 101 149c35 21 73 34 113 34z" fill="#E8EAF0"/>
<text transform="translate(31.8996, 45.3851)" font-family="Century Schoolbook L" font-size="2.4695" text-anchor="start" fill="#E8EAF0">
<tspan>
ly</tspan>
</text>
<rect transform="translate(33.5268, 38.5650)" x="-0.0757" y="-1.4091" width="0.1514" height="3.2360" ry="0.0500" fill="#E8EAF0"/>
<path transform="translate(37.0131, 39.5650) scale(0.0040, -0.0040)" d="M214 140c59 0 115 -32 115 -97c0 -72 -54 -121 -101 -149c-35 -21 -74 -34 -114 -34c-59 0 -114 32 -114 97c0 72 54 121 101 149c35 21 73 34 113 34z" fill="#E8EAF0"/>
<text transform="translate(36.1339, 45.3851)" font-family="Century Schoolbook L" font-size="2.4695" text-anchor="start" fill="#E8EAF0">
<tspan>
I’ll</tspan>
</text>
<rect transform="translate(38.2520, 38.5650)" x="-0.0757" y="-1.9907" width="0.1514" height="2.8175" ry="0.0500" fill="#E8EAF0"/>
<text transform="translate(43.5466, 35.5223)" font-family="sans-serif" font-size="1.9603" text-anchor="start" fill="#E8EAF0">
<tspan>
C</tspan>
</text>
<text transform="translate(44.9123, 35.5223)" font-family="sans-serif" font-size="1.9603" text-anchor="start" fill="#E8EAF0">
<tspan/>
</text>
<text transform="translate(44.9123, 35.5223)" font-family="sans-serif" font-size="1.9603" text-anchor="start" fill="#E8EAF0">
<tspan/>
</text>
<text transform="translate(44.9123, 34.6314)" font-family="sans-serif" font-size="1.3858" text-anchor="start" fill="#E8EAF0">
<tspan/>
</text>
<path transform="translate(43.5466, 39.5650) scale(0.0040, -0.0040)" d="M214 140c59 0 115 -32 115 -97c0 -72 -54 -121 -101 -149c-35 -21 -74 -34 -114 -34c-59 0 -114 32 -114 97c0 72 54 121 101 149c35 21 73 34 113 34z" fill="#E8EAF0"/>
<text transform="translate(42.6248, 45.3851)" font-family="Century Schoolbook L" font-size="2.4695" text-anchor="start" fill="#E8EAF0">
<tspan>
for</tspan>
</text>
<rect transform="translate(44.7855, 38.5650)" x="-0.0757" y="-2.5000" width="0.1514" height="3.3269" ry="0.0500" fill="#E8EAF0"/>
<text transform="translate(8.0521, 35.5150)" font-family="Century Schoolbook L" font-size="1.7463" text-anchor="start" fill="#E8EAF0">
<tspan>
4</tspan>
</text>
<path transform="translate(9.8338, 39.5650) scale(0.0040, -0.0040)" d="M379 264c3 0 7 1 10 1c157 0 258 -129 258 -263c0 -77 -33 -155 -108 -211c-22 -16 -46 -29 -72 -37c3 -33 4 -66 4 -99c0 -21 0 -41 -1 -62c-7 -121 -91 -229 -211 -229c-108 0 -196 88 -196 197c0 58 54 103 113 103c54 0 95 -47 95 -103c0 -52 -43 -95 -95 -95
c-9 0 -18 1 -27 4c25 -37 66 -61 113 -61c95 0 156 93 162 191c1 19 2 38 2 57c0 29 -1 58 -3 87c-29 -5 -58 -8 -88 -8c-189 0 -333 173 -333 376c0 177 129 308 244 443c-20 62 -40 124 -48 189c-7 52 -7 105 -7 158c0 114 54 221 147 288c4 3 8 4 12 4c5 0 9 -2 13 -5
c72 -83 135 -243 135 -356c0 -142 -84 -255 -176 -364c21 -68 40 -136 57 -205zM463 -201c65 24 110 94 110 161c0 88 -64 175 -167 188c24 -114 44 -227 57 -349zM77 25c0 -133 128 -243 261 -243c27 0 55 1 81 5c-13 126 -35 244 -60 362c-79 -8 -124 -60 -124 -118
c0 -43 25 -88 80 -120c5 -5 7 -11 7 -17c0 -12 -10 -23 -23 -23c-3 0 -7 1 -10 2c-81 43 -118 115 -118 186c0 89 60 177 163 200c-14 57 -30 113 -47 169c-105 -122 -210 -243 -210 -403zM403 1038c-99 -46 -161 -145 -161 -254c0 -71 21 -130 39 -188
c78 97 142 199 142 324c0 51 -4 72 -20 118z" fill="#E8EAF0"/>
<text transform="translate(14.8337, 35.5223)" font-family="sans-serif" font-size="1.9603" text-anchor="start" fill="#E8EAF0">
<tspan>
G</tspan>
</text>
<text transform="translate(16.3702, 35.5223)" font-family="sans-serif" font-size="1.9603" text-anchor="start" fill="#E8EAF0">
<tspan/>
</text>
<text transform="translate(16.3702, 35.5223)" font-family="sans-serif" font-size="1.9603" text-anchor="start" fill="#E8EAF0">
<tspan/>
</text>
<text transform="translate(16.3702, 34.6314)" font-family="sans-serif" font-size="1.3858" text-anchor="start" fill="#E8EAF0">
<tspan/>
</text>
<path transform="translate(14.8337, 41.0650) scale(0.0040, -0.0040)" d="M312 63c0 23 -20 40 -41 40c-4 0 -7 -1 -11 -2c-30 -8 -75 -38 -111 -61s-81 -52 -101 -76c-7 -8 -10 -17 -10 -27c0 -23 19 -40 40 -40c4 0 8 1 12 2c30 8 75 38 111 61s81 52 101 76c7 8 10 17 10 27zM258 140c51 0 92 -23 92 -78c0 -19 -4 -38 -10 -56
c-11 -38 -31 -75 -64 -97c-53 -36 -112 -49 -185 -49c-51 0 -91 23 -91 78c0 19 4 38 10 56c11 38 30 75 63 97c53 36 112 49 185 49z" fill="#E8EAF0"/>
<text transform="translate(11.4145, 45.3851)" font-family="Century Schoolbook L" font-size="2.4695" text-anchor="start" fill="#E8EAF0">
<tspan>
prayer;</tspan>
</text>
<rect transform="translate(16.1566, 38.5650)" x="-0.0757" y="-1.0000" width="0.1514" height="3.2518" ry="0.0500" fill="#E8EAF0"/>
<text transform="translate(61.7438, 45.3851)" font-family="Century Schoolbook L" font-size="2.4695" text-anchor="start" fill="#E8EAF0">
<tspan>
all</tspan>
</text>
<rect transform="translate(62.6133, 38.5650)" x="-0.0757" y="0.6731" width="0.1514" height="2.1403" ry="0.0500" fill="#E8EAF0"/>
<path transform="translate(67.0128, 38.5650) scale(0.0040, -0.0040)" d="M214 140c59 0 115 -32 115 -97c0 -72 -54 -121 -101 -149c-35 -21 -74 -34 -114 -34c-59 0 -114 32 -114 97c0 72 54 121 101 149c35 21 73 34 113 34z" fill="#E8EAF0"/>
<text transform="translate(66.6458, 45.3851)" font-family="Century Schoolbook L" font-size="2.4695" text-anchor="start" fill="#E8EAF0">
<tspan>
of</tspan>
</text>
<rect transform="translate(67.0884, 38.5650)" x="-0.0757" y="0.1731" width="0.1514" height="2.3562" ry="0.0500" fill="#E8EAF0"/>
<path transform="translate(72.4135, 38.0650) scale(0.0040, -0.0040)" d="M214 140c59 0 115 -32 115 -97c0 -72 -54 -121 -101 -149c-35 -21 -74 -34 -114 -34c-59 0 -114 32 -114 97c0 72 54 121 101 149c35 21 73 34 113 34z" fill="#E8EAF0"/>
<text transform="translate(69.1444, 45.3851)" font-family="Century Schoolbook L" font-size="2.4695" text-anchor="start" fill="#E8EAF0">
<tspan>
earth’s</tspan>
</text>
<rect transform="translate(72.4892, 38.5650)" x="-0.0757" y="-0.3269" width="0.1514" height="2.5134" ry="0.0500" fill="#E8EAF0"/>
<text transform="translate(79.1374, 35.5223)" font-family="sans-serif" font-size="1.9603" text-anchor="start" fill="#E8EAF0">
<tspan>
C</tspan>
</text>
<text transform="translate(80.5031, 35.5223)" font-family="sans-serif" font-size="1.9603" text-anchor="start" fill="#E8EAF0">
<tspan/>
</text>
<text transform="translate(80.5031, 35.5223)" font-family="sans-serif" font-size="1.9603" text-anchor="start" fill="#E8EAF0">
<tspan/>
</text>
<text transform="translate(80.5031, 34.6314)" font-family="sans-serif" font-size="1.3858" text-anchor="start" fill="#E8EAF0">
<tspan/>
</text>
<path transform="translate(79.1374, 39.5650) scale(0.0040, -0.0040)" d="M214 140c59 0 115 -32 115 -97c0 -72 -54 -121 -101 -149c-35 -21 -74 -34 -114 -34c-59 0 -114 32 -114 97c0 72 54 121 101 149c35 21 73 34 113 34z" fill="#E8EAF0"/>
<text transform="translate(77.4473, 45.3851)" font-family="Century Schoolbook L" font-size="2.4695" text-anchor="start" fill="#E8EAF0">
<tspan>
trea</tspan>
</text>
<rect transform="translate(80.3763, 38.5650)" x="-0.0757" y="-2.5000" width="0.1514" height="3.3269" ry="0.0500" fill="#E8EAF0"/>
<path transform="translate(53.0311, 39.5650) scale(0.0040, -0.0040)" d="M214 140c59 0 115 -32 115 -97c0 -72 -54 -121 -101 -149c-35 -21 -74 -34 -114 -34c-59 0 -114 32 -114 97c0 72 54 121 101 149c35 21 73 34 113 34z" fill="#E8EAF0"/>
<text transform="translate(51.7892, 45.3851)" font-family="Century Schoolbook L" font-size="2.4695" text-anchor="start" fill="#E8EAF0">
<tspan>
feit</tspan>
</text>
<rect transform="translate(54.2701, 38.5650)" x="-0.0757" y="-2.5000" width="0.1514" height="3.3269" ry="0.0500" fill="#E8EAF0"/>
<text transform="translate(62.5376, 35.5223)" font-family="sans-serif" font-size="1.9603" text-anchor="start" fill="#E8EAF0">
<tspan>
F</tspan>
</text>
<text transform="translate(63.6473, 35.5223)" font-family="sans-serif" font-size="1.9603" text-anchor="start" fill="#E8EAF0">
<tspan/>
</text>
<text transform="translate(63.6473, 35.5223)" font-family="sans-serif" font-size="1.9603" text-anchor="start" fill="#E8EAF0">
<tspan/>
</text>
<text transform="translate(63.6473, 34.6314)" font-family="sans-serif" font-size="1.3858" text-anchor="start" fill="#E8EAF0">
<tspan/>
</text>
<text transform="translate(63.6473, 35.5223)" font-family="sans-serif" font-size="1.9603" text-anchor="start" fill="#E8EAF0">
<tspan>
/</tspan>
</text>
<text transform="translate(64.5435, 35.5223)" font-family="sans-serif" font-size="1.9603" text-anchor="start" fill="#E8EAF0">
<tspan>
C</tspan>
</text>
<text transform="translate(65.9093, 35.5223)" font-family="sans-serif" font-size="1.9603" text-anchor="start" fill="#E8EAF0">
<tspan/>
</text>
<path transform="translate(62.5376, 39.0650) scale(0.0040, -0.0040)" d="M214 140c59 0 115 -32 115 -97c0 -72 -54 -121 -101 -149c-35 -21 -74 -34 -114 -34c-59 0 -114 32 -114 97c0 72 54 121 101 149c35 21 73 34 113 34z" fill="#E8EAF0"/>
<rect transform="translate(76.8231, 54.2348)" x="0.0000" y="-2.0000" width="0.2212" height="4.0000" ry="0.0000" fill="#E8EAF0"/>
<line transform="translate(9.0337, 56.2348)" stroke-linejoin="round" stroke-linecap="round" stroke-width="0.1164" stroke="#E8EAF0" x1="0.0582" y1="-0.0000" x2="138.1582" y2="-0.0000"/>
<line transform="translate(9.0337, 55.2348)" stroke-linejoin="round" stroke-linecap="round" stroke-width="0.1164" stroke="#E8EAF0" x1="0.0582" y1="-0.0000" x2="138.1582" y2="-0.0000"/>
<line transform="translate(9.0337, 54.2348)" stroke-linejoin="round" stroke-linecap="round" stroke-width="0.1164" stroke="#E8EAF0" x1="0.0582" y1="-0.0000" x2="138.1582" y2="-0.0000"/>
<line transform="translate(9.0337, 53.2348)" stroke-linejoin="round" stroke-linecap="round" stroke-width="0.1164" stroke="#E8EAF0" x1="0.0582" y1="-0.0000" x2="138.1582" y2="-0.0000"/>
<line transform="translate(9.0337, 52.2348)" stroke-linejoin="round" stroke-linecap="round" stroke-width="0.1164" stroke="#E8EAF0" x1="0.0582" y1="-0.0000" x2="138.1582" y2="-0.0000"/>
<rect transform="translate(147.0289, 54.2348)" x="0.0000" y="-2.0000" width="0.2212" height="4.0000" ry="0.0000" fill="#E8EAF0"/>
<rect transform="translate(42.2624, 54.2348)" x="0.0000" y="-2.0000" width="0.2212" height="4.0000" ry="0.0000" fill="#E8EAF0"/>
<rect transform="translate(111.7423, 54.2348)" x="0.0000" y="-2.0000" width="0.2212" height="4.0000" ry="0.0000" fill="#E8EAF0"/>
<rect transform="translate(45.3762, 54.2348)" x="-0.0757" y="-3.0000" width="0.1514" height="3.3269" ry="0.0500" fill="#E8EAF0"/>
<text transform="translate(42.6819, 60.8846)" font-family="Century Schoolbook L" font-size="2.4695" text-anchor="start" fill="#E8EAF0">
<tspan>
like</tspan>
</text>
<path transform="translate(44.1372, 54.7348) scale(0.0040, -0.0040)" d="M214 140c59 0 115 -32 115 -97c0 -72 -54 -121 -101 -149c-35 -21 -74 -34 -114 -34c-59 0 -114 32 -114 97c0 72 54 121 101 149c35 21 73 34 113 34z" fill="#E8EAF0"/>
<text transform="translate(44.1372, 49.4401)" font-family="sans-serif" font-size="1.9603" text-anchor="start" fill="#E8EAF0">
<tspan>
F</tspan>
</text>
<text transform="translate(45.2469, 49.4401)" font-family="sans-serif" font-size="1.9603" text-anchor="start" fill="#E8EAF0">
<tspan/>
</text>
<text transform="translate(45.2469, 49.4401)" font-family="sans-serif" font-size="1.9603" text-anchor="start" fill="#E8EAF0">
<tspan/>
</text>
<text transform="translate(45.2469, 48.5492)" font-family="sans-serif" font-size="1.3858" text-anchor="start" fill="#E8EAF0">
<tspan/>
</text>
<path transform="translate(53.4983, 55.7348) scale(0.0040, -0.0040)" d="M214 140c59 0 115 -32 115 -97c0 -72 -54 -121 -101 -149c-35 -21 -74 -34 -114 -34c-59 0 -114 32 -114 97c0 72 54 121 101 149c35 21 73 34 113 34z" fill="#E8EAF0"/>
<text transform="translate(50.9760, 60.8846)" font-family="Century Schoolbook L" font-size="2.4695" text-anchor="start" fill="#E8EAF0">
<tspan>
Thee!</tspan>
</text>
<rect transform="translate(54.7372, 54.2348)" x="-0.0757" y="-2.0000" width="0.1514" height="3.3269" ry="0.0500" fill="#E8EAF0"/>
<text transform="translate(63.3455, 49.4401)" font-family="sans-serif" font-size="1.9603" text-anchor="start" fill="#E8EAF0">
<tspan>
F</tspan>
</text>
<text transform="translate(64.4552, 49.4401)" font-family="sans-serif" font-size="1.9603" text-anchor="start" fill="#E8EAF0">
<tspan/>
</text>
<text transform="translate(64.4552, 49.4401)" font-family="sans-serif" font-size="1.9603" text-anchor="start" fill="#E8EAF0">
<tspan/>
</text>
<text transform="translate(64.4552, 48.5492)" font-family="sans-serif" font-size="1.3858" text-anchor="start" fill="#E8EAF0">
<tspan/>
</text>
<text transform="translate(64.4552, 49.4401)" font-family="sans-serif" font-size="1.9603" text-anchor="start" fill="#E8EAF0">
<tspan>
/</tspan>
</text>
<text transform="translate(65.3515, 49.4401)" font-family="sans-serif" font-size="1.9603" text-anchor="start" fill="#E8EAF0">
<tspan>
A</tspan>
</text>
<text transform="translate(66.6745, 49.4401)" font-family="sans-serif" font-size="1.9603" text-anchor="start" fill="#E8EAF0">
<tspan/>
</text>
<path transform="translate(63.3455, 53.7348) scale(0.0040, -0.0040)" d="M214 140c59 0 115 -32 115 -97c0 -72 -54 -121 -101 -149c-35 -21 -74 -34 -114 -34c-59 0 -114 32 -114 97c0 72 54 121 101 149c35 21 73 34 113 34z" fill="#E8EAF0"/>
<text transform="translate(63.0426, 60.8846)" font-family="Century Schoolbook L" font-size="2.4695" text-anchor="start" fill="#E8EAF0">
<tspan>
O</tspan>
</text>
<path transform="translate(137.6133, 55.2348) scale(0.0040, -0.0040)" d="M214 140c59 0 115 -32 115 -97c0 -72 -54 -121 -101 -149c-35 -21 -74 -34 -114 -34c-59 0 -114 32 -114 97c0 72 54 121 101 149c35 21 73 34 113 34z" fill="#E8EAF0"/>
<text transform="translate(137.0115, 60.8846)" font-family="Century Schoolbook L" font-size="2.4695" text-anchor="start" fill="#E8EAF0">
<tspan>
as</tspan>
</text>
<rect transform="translate(138.8522, 54.2348)" x="-0.0757" y="-2.5044" width="0.1514" height="3.3313" ry="0.0500" fill="#E8EAF0"/>
<path transform="translate(142.2672, 55.7348) scale(0.0040, -0.0040)" d="M214 140c59 0 115 -32 115 -97c0 -72 -54 -121 -101 -149c-35 -21 -74 -34 -114 -34c-59 0 -114 32 -114 97c0 72 54 121 101 149c35 21 73 34 113 34z" fill="#E8EAF0"/>
<text transform="translate(139.9796, 60.8846)" font-family="Century Schoolbook L" font-size="2.4695" text-anchor="start" fill="#E8EAF0">
<tspan>
Thou</tspan>
</text>
<rect transform="translate(143.5061, 54.2348)" x="-0.0757" y="-2.1869" width="0.1514" height="3.5138" ry="0.0500" fill="#E8EAF0"/>
<path transform="translate(37.5364, 55.2348) scale(0.0040, -0.0040)" d="M214 140c59 0 115 -32 115 -97c0 -72 -54 -121 -101 -149c-35 -21 -74 -34 -114 -34c-59 0 -114 32 -114 97c0 72 54 121 101 149c35 21 73 34 113 34z" fill="#E8EAF0"/>
<text transform="translate(36.8920, 60.8846)" font-family="Century Schoolbook L" font-size="2.4695" text-anchor="start" fill="#E8EAF0">
<tspan>
be</tspan>
</text>
<rect transform="translate(38.7754, 54.2348)" x="-0.0757" y="-2.0000" width="0.1514" height="2.8269" ry="0.0500" fill="#E8EAF0"/>
<path transform="translate(27.7382, 55.2348) scale(0.0040, -0.0040)" d="M214 140c59 0 115 -32 115 -97c0 -72 -54 -121 -101 -149c-35 -21 -74 -34 -114 -34c-59 0 -114 32 -114 97c0 72 54 121 101 149c35 21 73 34 113 34z" fill="#E8EAF0"/>
<text transform="translate(138.4263, 50.9872)" font-family="Century Schoolbook L" font-style="italic" font-size="1.7463" text-anchor="start" fill="#E8EAF0">
<tspan>
3</tspan>
</text>
<polygon transform="translate(134.2524, 51.4165)" stroke-linejoin="round" stroke-linecap="round" stroke-width="0.1000" fill="#E8EAF0" stroke="#E8EAF0" points="9.2794 0.4464 9.2794 0.8264 0.0500 0.1900 0.0500 -0.1900"/>
<rect transform="translate(119.5075, 60.8846)" x="0.0000" y="-0.5714" width="0.6600" height="0.1514" ry="0.0466" fill="#E8EAF0"/>
<rect transform="translate(109.8624, 60.8846)" x="0.0000" y="-0.5714" width="0.6600" height="0.1514" ry="0.0466" fill="#E8EAF0"/>
<text transform="translate(103.1922, 51.9871)" font-family="Century Schoolbook L" font-style="italic" font-size="1.7463" text-anchor="start" fill="#E8EAF0">
<tspan>
3</tspan>
</text>
<polygon transform="translate(99.0832, 52.4165)" stroke-linejoin="round" stroke-linecap="round" stroke-width="0.1000" fill="#E8EAF0" stroke="#E8EAF0" points="9.1496 0.4464 9.1496 0.8264 0.0500 0.1900 0.0500 -0.1900"/>
<text transform="translate(67.4545, 58.6774)" font-family="Century Schoolbook L" font-style="italic" font-size="1.7463" text-anchor="start" fill="#E8EAF0">
<tspan>
3</tspan>
</text>
<polygon transform="translate(63.3455, 56.4165)" stroke-linejoin="round" stroke-linecap="round" stroke-width="0.1000" fill="#E8EAF0" stroke="#E8EAF0" points="9.1496 0.4464 9.1496 0.8264 0.0500 0.1900 0.0500 -0.1900"/>
<text transform="translate(33.3854, 51.4923)" font-family="Century Schoolbook L" font-style="italic" font-size="1.7463" text-anchor="start" fill="#E8EAF0">
<tspan>
3</tspan>
</text>
<polygon transform="translate(28.9015, 52.2348)" stroke-linejoin="round" stroke-linecap="round" stroke-width="0.1000" fill="#E8EAF0" stroke="#E8EAF0" points="9.8996 -0.1900 9.8996 0.1900 0.0500 0.1900 0.0500 -0.1900"/>
<rect transform="translate(63.4212, 54.2348)" x="-0.0757" y="-0.3269" width="0.1514" height="2.5139" ry="0.0500" fill="#E8EAF0"/>
<rect transform="translate(34.2512, 54.2348)" x="-0.0757" y="-2.0000" width="0.1514" height="3.3269" ry="0.0500" fill="#E8EAF0"/>
<text transform="translate(32.5600, 60.8846)" font-family="Century Schoolbook L" font-size="2.4695" text-anchor="start" fill="#E8EAF0">
<tspan>
to</tspan>
</text>
<path transform="translate(33.0123, 55.7348) scale(0.0040, -0.0040)" d="M214 140c59 0 115 -32 115 -97c0 -72 -54 -121 -101 -149c-35 -21 -74 -34 -114 -34c-59 0 -114 32 -114 97c0 72 54 121 101 149c35 21 73 34 113 34z" fill="#E8EAF0"/>
<rect transform="translate(16.1566, 54.2348)" x="-0.0757" y="-2.5000" width="0.1514" height="3.2518" ry="0.0500" fill="#E8EAF0"/>
<path transform="translate(67.8697, 54.2348) scale(0.0040, -0.0040)" d="M214 140c59 0 115 -32 115 -97c0 -72 -54 -121 -101 -149c-35 -21 -74 -34 -114 -34c-59 0 -114 32 -114 97c0 72 54 121 101 149c35 21 73 34 113 34z" fill="#E8EAF0"/>
<text transform="translate(12.3748, 60.8846)" font-family="Century Schoolbook L" font-size="2.4695" text-anchor="start" fill="#E8EAF0">
<tspan>
wear.</tspan>
</text>
<rect transform="translate(28.9771, 54.2348)" x="-0.0757" y="-2.0000" width="0.1514" height="2.8269" ry="0.0500" fill="#E8EAF0"/>
<text transform="translate(23.0209, 60.8846)" font-family="Century Schoolbook L" font-weight="bold" font-size="2.1999" text-anchor="start" fill="#E8EAF0">
<tspan>
(C)</tspan>
</text>
<path transform="translate(15.5330, 51.4468) scale(0.0040, -0.0040)" d="M-71 49c0 39 32 71 71 71s71 -32 71 -71s-32 -71 -71 -71s-71 32 -71 71zM0 366c159 0 335 -177 335 -369c0 -11 -10 -19 -21 -19c-10 0 -20 7 -23 22c-26 146 -145 259 -291 259s-265 -113 -291 -259c-3 -15 -13 -22 -23 -22c-11 0 -21 8 -21 19c0 192 177 369 335 369z
" fill="#E8EAF0"/>
<text transform="translate(27.4352, 60.8846)" font-family="Century Schoolbook L" font-size="2.4695" text-anchor="start" fill="#E8EAF0">
<tspan>
O</tspan>
</text>
<text transform="translate(67.4173, 60.8846)" font-family="Century Schoolbook L" font-size="2.4695" text-anchor="start" fill="#E8EAF0">
<tspan>
to</tspan>
</text>
<rect transform="translate(27.7382, 49.7946)" x="-0.6164" y="-0.1164" width="9.5553" height="0.1164" ry="0.0000" fill="#E8EAF0"/>
<rect transform="translate(27.7382, 47.0137)" x="-0.6164" y="-0.1164" width="9.5553" height="0.1164" ry="0.0000" fill="#E8EAF0"/>
<rect transform="translate(27.1218, 49.1355)" x="0" y="-2.1218" width="0.1164" height="2.6645" ry="0.0000" fill="#E8EAF0"/>
<rect transform="translate(36.5606, 49.1355)" x="0" y="-2.1218" width="0.1164" height="2.6645" ry="0.0000" fill="#E8EAF0"/>
<text transform="translate(27.7382, 49.1355)" font-family="Century Schoolbook L" font-weight="bold" font-size="2.1999" text-anchor="start" fill="#E8EAF0">
<tspan>
Chorus</tspan>
</text>
<path transform="translate(14.8337, 55.2348) scale(0.0040, -0.0040)" d="M312 63c0 23 -20 40 -41 40c-4 0 -7 -1 -11 -2c-30 -8 -75 -38 -111 -61s-81 -52 -101 -76c-7 -8 -10 -17 -10 -27c0 -23 19 -40 40 -40c4 0 8 1 12 2c30 8 75 38 111 61s81 52 101 76c7 8 10 17 10 27zM258 140c51 0 92 -23 92 -78c0 -19 -4 -38 -10 -56
c-11 -38 -31 -75 -64 -97c-53 -36 -112 -49 -185 -49c-51 0 -91 23 -91 78c0 19 4 38 10 56c11 38 30 75 63 97c53 36 112 49 185 49z" fill="#E8EAF0"/>
<text transform="translate(14.8337, 49.4401)" font-family="sans-serif" font-size="1.9603" text-anchor="start" fill="#E8EAF0">
<tspan>
G</tspan>
</text>
<text transform="translate(16.3702, 49.4401)" font-family="sans-serif" font-size="1.9603" text-anchor="start" fill="#E8EAF0">
<tspan/>
</text>
<text transform="translate(16.3702, 49.4401)" font-family="sans-serif" font-size="1.9603" text-anchor="start" fill="#E8EAF0">
<tspan/>
</text>
<text transform="translate(16.3702, 48.5492)" font-family="sans-serif" font-size="1.3858" text-anchor="start" fill="#E8EAF0">
<tspan/>
</text>
<rect transform="translate(67.9453, 54.2348)" x="-0.0757" y="0.1731" width="0.1514" height="2.3269" ry="0.0500" fill="#E8EAF0"/>
<text transform="translate(78.6979, 49.4401)" font-family="sans-serif" font-size="1.9603" text-anchor="start" fill="#E8EAF0">
<tspan>
C</tspan>
</text>
<text transform="translate(80.0636, 49.4401)" font-family="sans-serif" font-size="1.9603" text-anchor="start" fill="#E8EAF0">
<tspan/>
</text>
<text transform="translate(80.0636, 49.4401)" font-family="sans-serif" font-size="1.9603" text-anchor="start" fill="#E8EAF0">
<tspan/>
</text>
<text transform="translate(80.0636, 48.5492)" font-family="sans-serif" font-size="1.3858" text-anchor="start" fill="#E8EAF0">
<tspan/>
</text>
<path transform="translate(78.6979, 54.7348) scale(0.0040, -0.0040)" d="M214 140c59 0 115 -32 115 -97c0 -72 -54 -121 -101 -149c-35 -21 -74 -34 -114 -34c-59 0 -114 32 -114 97c0 72 54 121 101 149c35 21 73 34 113 34z" fill="#E8EAF0"/>
<text transform="translate(77.2426, 60.8846)" font-family="Century Schoolbook L" font-size="2.4695" text-anchor="start" fill="#E8EAF0">
<tspan>
like</tspan>
</text>
<rect transform="translate(79.9368, 54.2348)" x="-0.0757" y="-3.0000" width="0.1514" height="3.3269" ry="0.0500" fill="#E8EAF0"/>
<path transform="translate(88.3089, 55.2348) scale(0.0040, -0.0040)" d="M214 140c59 0 115 -32 115 -97c0 -72 -54 -121 -101 -149c-35 -21 -74 -34 -114 -34c-59 0 -114 32 -114 97c0 72 54 121 101 149c35 21 73 34 113 34z" fill="#E8EAF0"/>
<text transform="translate(85.7866, 60.8846)" font-family="Century Schoolbook L" font-size="2.4695" text-anchor="start" fill="#E8EAF0">
<tspan>
Thee!</tspan>
</text>
<rect transform="translate(89.5479, 54.2348)" x="-0.0757" y="-2.5000" width="0.1514" height="3.3269" ry="0.0500" fill="#E8EAF0"/>
<path transform="translate(31.5623, 55.7348) scale(0.0040, -0.0040)" d="M198 -329c-12 0 -21 9 -21 21v138l-79 -30v-154c0 -12 -9 -21 -21 -21s-21 9 -21 21v138l-22 -8c-3 -1 -6 -2 -9 -2c-13 0 -25 11 -25 25v54c0 10 6 20 16 24l40 15v155l-22 -9c-3 -1 -6 -1 -9 -1c-13 0 -25 11 -25 25v54c0 10 6 19 16 23l40 15v154c0 12 9 21 21 21
s21 -9 21 -21v-138l79 30v154c0 12 9 21 21 21s21 -9 21 -21v-138l22 8c3 1 6 2 9 2c13 0 25 -11 25 -25v-54c0 -10 -6 -20 -16 -24l-40 -15v-155l22 9c3 1 6 1 9 1c13 0 25 -11 25 -25v-54c0 -10 -6 -19 -16 -23l-40 -15v-154c0 -12 -9 -21 -21 -21zM98 62v-154l79 30v154z
" fill="#E8EAF0"/>
<path transform="translate(97.9200, 55.2348) scale(0.0040, -0.0040)" d="M214 140c59 0 115 -32 115 -97c0 -72 -54 -121 -101 -149c-35 -21 -74 -34 -114 -34c-59 0 -114 32 -114 97c0 72 54 121 101 149c35 21 73 34 113 34z" fill="#E8EAF0"/>
<text transform="translate(95.5257, 60.8846)" font-family="Century Schoolbook L" font-size="2.4695" text-anchor="start" fill="#E8EAF0">
<tspan>
Bless</tspan>
</text>
<rect transform="translate(99.1589, 54.2348)" x="-0.0757" y="-1.8130" width="0.1514" height="2.6398" ry="0.0500" fill="#E8EAF0"/>
<text transform="translate(8.0521, 51.1421)" font-family="Century Schoolbook L" font-size="1.7463" text-anchor="start" fill="#E8EAF0">
<tspan>
8</tspan>
</text>
<path transform="translate(9.8338, 55.2348) scale(0.0040, -0.0040)" d="M379 264c3 0 7 1 10 1c157 0 258 -129 258 -263c0 -77 -33 -155 -108 -211c-22 -16 -46 -29 -72 -37c3 -33 4 -66 4 -99c0 -21 0 -41 -1 -62c-7 -121 -91 -229 -211 -229c-108 0 -196 88 -196 197c0 58 54 103 113 103c54 0 95 -47 95 -103c0 -52 -43 -95 -95 -95
c-9 0 -18 1 -27 4c25 -37 66 -61 113 -61c95 0 156 93 162 191c1 19 2 38 2 57c0 29 -1 58 -3 87c-29 -5 -58 -8 -88 -8c-189 0 -333 173 -333 376c0 177 129 308 244 443c-20 62 -40 124 -48 189c-7 52 -7 105 -7 158c0 114 54 221 147 288c4 3 8 4 12 4c5 0 9 -2 13 -5
c72 -83 135 -243 135 -356c0 -142 -84 -255 -176 -364c21 -68 40 -136 57 -205zM463 -201c65 24 110 94 110 161c0 88 -64 175 -167 188c24 -114 44 -227 57 -349zM77 25c0 -133 128 -243 261 -243c27 0 55 1 81 5c-13 126 -35 244 -60 362c-79 -8 -124 -60 -124 -118
c0 -43 25 -88 80 -120c5 -5 7 -11 7 -17c0 -12 -10 -23 -23 -23c-3 0 -7 1 -10 2c-81 43 -118 115 -118 186c0 89 60 177 163 200c-14 57 -30 113 -47 169c-105 -122 -210 -243 -210 -403zM403 1038c-99 -46 -161 -145 -161 -254c0 -71 21 -130 39 -188
c78 97 142 199 142 324c0 51 -4 72 -20 118z" fill="#E8EAF0"/>
<path transform="translate(72.3938, 54.7348) scale(0.0040, -0.0040)" d="M214 140c59 0 115 -32 115 -97c0 -72 -54 -121 -101 -149c-35 -21 -74 -34 -114 -34c-59 0 -114 32 -114 97c0 72 54 121 101 149c35 21 73 34 113 34z" fill="#E8EAF0"/>
<text transform="translate(71.7494, 60.8846)" font-family="Century Schoolbook L" font-size="2.4695" text-anchor="start" fill="#E8EAF0">
<tspan>
be</tspan>
</text>
<rect transform="translate(72.4695, 54.2348)" x="-0.0757" y="0.6731" width="0.1514" height="2.1398" ry="0.0500" fill="#E8EAF0"/>
<text transform="translate(113.6171, 49.4401)" font-family="sans-serif" font-size="1.9603" text-anchor="start" fill="#E8EAF0">
<tspan>
D</tspan>
</text>
<text transform="translate(115.1108, 49.4401)" font-family="sans-serif" font-size="1.9603" text-anchor="start" fill="#E8EAF0">
<tspan/>
</text>
<text transform="translate(115.1108, 49.4401)" font-family="sans-serif" font-size="1.9603" text-anchor="start" fill="#E8EAF0">
<tspan>
m</tspan>
</text>
<text transform="translate(116.9887, 48.5492)" font-family="sans-serif" font-size="1.3858" text-anchor="start" fill="#E8EAF0">
<tspan/>
</text>
<path transform="translate(113.6171, 55.7348) scale(0.0040, -0.0040)" d="M214 140c59 0 115 -32 115 -97c0 -72 -54 -121 -101 -149c-35 -21 -74 -34 -114 -34c-59 0 -114 32 -114 97c0 72 54 121 101 149c35 21 73 34 113 34z" fill="#E8EAF0"/>
<text transform="translate(111.2442, 60.8846)" font-family="Century Schoolbook L" font-size="2.4695" text-anchor="start" fill="#E8EAF0">
<tspan>
deem</tspan>
</text>
<rect transform="translate(114.8560, 54.2348)" x="-0.0757" y="-2.0000" width="0.1514" height="3.3269" ry="0.0500" fill="#E8EAF0"/>
<path transform="translate(123.2281, 55.7348) scale(0.0040, -0.0040)" d="M214 140c59 0 115 -32 115 -97c0 -72 -54 -121 -101 -149c-35 -21 -74 -34 -114 -34c-59 0 -114 32 -114 97c0 72 54 121 101 149c35 21 73 34 113 34z" fill="#E8EAF0"/>
<text transform="translate(122.3703, 60.8846)" font-family="Century Schoolbook L" font-size="2.4695" text-anchor="start" fill="#E8EAF0">
<tspan>
er,</tspan>
</text>
<rect transform="translate(124.4671, 54.2348)" x="-0.0757" y="-2.0000" width="0.1514" height="3.3269" ry="0.0500" fill="#E8EAF0"/>
<text transform="translate(133.0892, 49.4401)" font-family="sans-serif" font-size="1.9603" text-anchor="start" fill="#E8EAF0">
<tspan>
G</tspan>
</text>
<text transform="translate(134.6256, 49.4401)" font-family="sans-serif" font-size="1.9603" text-anchor="start" fill="#E8EAF0">
<tspan/>
</text>
<text transform="translate(134.6256, 49.4401)" font-family="sans-serif" font-size="1.9603" text-anchor="start" fill="#E8EAF0">
<tspan/>
</text>
<text transform="translate(134.6256, 48.5492)" font-family="sans-serif" font-size="1.3858" text-anchor="start" fill="#E8EAF0">
<tspan/>
</text>
<text transform="translate(134.6256, 48.5492)" font-family="sans-serif" font-size="1.3858" text-anchor="start" fill="#E8EAF0">
<tspan>
7</tspan>
</text>
<path transform="translate(133.0892, 54.7348) scale(0.0040, -0.0040)" d="M214 140c59 0 115 -32 115 -97c0 -72 -54 -121 -101 -149c-35 -21 -74 -34 -114 -34c-59 0 -114 32 -114 97c0 72 54 121 101 149c35 21 73 34 113 34z" fill="#E8EAF0"/>
<text transform="translate(131.1217, 60.8846)" font-family="Century Schoolbook L" font-size="2.4695" text-anchor="start" fill="#E8EAF0">
<tspan>
pure</tspan>
</text>
<rect transform="translate(134.3281, 54.2348)" x="-0.0757" y="-2.8131" width="0.1514" height="3.1399" ry="0.0500" fill="#E8EAF0"/>
<path transform="translate(102.4441, 55.7348) scale(0.0040, -0.0040)" d="M214 140c59 0 115 -32 115 -97c0 -72 -54 -121 -101 -149c-35 -21 -74 -34 -114 -34c-59 0 -114 32 -114 97c0 72 54 121 101 149c35 21 73 34 113 34z" fill="#E8EAF0"/>
<text transform="translate(101.7783, 60.8846)" font-family="Century Schoolbook L" font-size="2.4695" text-anchor="start" fill="#E8EAF0">
<tspan>
ed</tspan>
</text>
<rect transform="translate(103.6830, 54.2348)" x="-0.0757" y="-1.5000" width="0.1514" height="2.8269" ry="0.0500" fill="#E8EAF0"/>
<path transform="translate(106.9682, 56.2348) scale(0.0040, -0.0040)" d="M214 140c59 0 115 -32 115 -97c0 -72 -54 -121 -101 -149c-35 -21 -74 -34 -114 -34c-59 0 -114 32 -114 97c0 72 54 121 101 149c35 21 73 34 113 34z" fill="#E8EAF0"/>
<text transform="translate(106.1104, 60.8846)" font-family="Century Schoolbook L" font-size="2.4695" text-anchor="start" fill="#E8EAF0">
<tspan>
Re</tspan>
</text>
<rect transform="translate(108.2071, 54.2348)" x="-0.0757" y="-1.1870" width="0.1514" height="3.0139" ry="0.0500" fill="#E8EAF0"/>
<rect transform="translate(37.4584, 67.8546)" x="0.0000" y="-2.0000" width="0.2212" height="4.0000" ry="0.0000" fill="#E8EAF0"/>
<rect transform="translate(9.0337, 70.8546)" x="71.5575" y="-0.1082" width="1.9719" height="0.2164" ry="0.1082" fill="#E8EAF0"/>
<rect transform="translate(9.0337, 70.8546)" x="108.9823" y="-0.1082" width="1.9719" height="0.2164" ry="0.1082" fill="#E8EAF0"/>
<rect transform="translate(9.0337, 70.8546)" x="118.1274" y="-0.1082" width="2.0978" height="0.2164" ry="0.1082" fill="#E8EAF0"/>
<line transform="translate(9.0337, 69.8546)" stroke-linejoin="round" stroke-linecap="round" stroke-width="0.1164" stroke="#E8EAF0" x1="0.0582" y1="-0.0000" x2="138.1582" y2="-0.0000"/>
<line transform="translate(9.0337, 68.8546)" stroke-linejoin="round" stroke-linecap="round" stroke-width="0.1164" stroke="#E8EAF0" x1="0.0582" y1="-0.0000" x2="138.1582" y2="-0.0000"/>
<line transform="translate(9.0337, 67.8546)" stroke-linejoin="round" stroke-linecap="round" stroke-width="0.1164" stroke="#E8EAF0" x1="0.0582" y1="-0.0000" x2="138.1582" y2="-0.0000"/>
<line transform="translate(9.0337, 66.8546)" stroke-linejoin="round" stroke-linecap="round" stroke-width="0.1164" stroke="#E8EAF0" x1="0.0582" y1="-0.0000" x2="138.1582" y2="-0.0000"/>
<line transform="translate(9.0337, 65.8546)" stroke-linejoin="round" stroke-linecap="round" stroke-width="0.1164" stroke="#E8EAF0" x1="0.0582" y1="-0.0000" x2="138.1582" y2="-0.0000"/>
<rect transform="translate(98.3127, 67.8546)" x="0.0000" y="-2.0000" width="0.2212" height="4.0000" ry="0.0000" fill="#E8EAF0"/>
<rect transform="translate(65.2069, 67.8546)" x="0.0000" y="-2.0000" width="0.2212" height="4.0000" ry="0.0000" fill="#E8EAF0"/>
<rect transform="translate(146.5516, 67.8546)" x="0.0000" y="-2.0000" width="0.6986" height="4.0000" ry="0.0000" fill="#E8EAF0"/>
<rect transform="translate(145.9811, 67.8546)" x="0.0000" y="-2.0000" width="0.2212" height="4.0000" ry="0.0000" fill="#E8EAF0"/>
<rect transform="translate(125.9238, 67.8546)" x="0.0000" y="-2.0000" width="0.2212" height="4.0000" ry="0.0000" fill="#E8EAF0"/>
<rect transform="translate(101.0696, 67.8546)" x="-0.0757" y="-2.5000" width="0.1514" height="3.3269" ry="0.0500" fill="#E8EAF0"/>
<text transform="translate(100.1038, 74.6329)" font-family="Century Schoolbook L" font-size="2.4695" text-anchor="start" fill="#E8EAF0">
<tspan>
i</tspan>
</text>
<path transform="translate(99.8306, 68.8546) scale(0.0040, -0.0040)" d="M214 140c59 0 115 -32 115 -97c0 -72 -54 -121 -101 -149c-35 -21 -74 -34 -114 -34c-59 0 -114 32 -114 97c0 72 54 121 101 149c35 21 73 34 113 34z" fill="#E8EAF0"/>
<text transform="translate(99.8306, 64.0559)" font-family="sans-serif" font-size="1.9603" text-anchor="start" fill="#E8EAF0">
<tspan>
C</tspan>
</text>
<text transform="translate(101.1964, 64.0559)" font-family="sans-serif" font-size="1.9603" text-anchor="start" fill="#E8EAF0">
<tspan/>
</text>
<text transform="translate(101.1964, 64.0559)" font-family="sans-serif" font-size="1.9603" text-anchor="start" fill="#E8EAF0">
<tspan/>
</text>
<text transform="translate(101.1964, 63.1650)" font-family="sans-serif" font-size="1.3858" text-anchor="start" fill="#E8EAF0">
<tspan/>
</text>
<text transform="translate(101.1964, 64.0559)" font-family="sans-serif" font-size="1.9603" text-anchor="start" fill="#E8EAF0">
<tspan>
/</tspan>
</text>
<text transform="translate(102.0926, 64.0559)" font-family="sans-serif" font-size="1.9603" text-anchor="start" fill="#E8EAF0">
<tspan>
G</tspan>
</text>
<text transform="translate(103.6291, 64.0559)" font-family="sans-serif" font-size="1.9603" text-anchor="start" fill="#E8EAF0">
<tspan/>
</text>
<rect transform="translate(95.7772, 67.8546)" x="-0.0757" y="-1.9935" width="0.1514" height="2.8204" ry="0.0500" fill="#E8EAF0"/>
<path transform="translate(106.7318, 69.8546) scale(0.0040, -0.0040)" d="M214 140c59 0 115 -32 115 -97c0 -72 -54 -121 -101 -149c-35 -21 -74 -34 -114 -34c-59 0 -114 32 -114 97c0 72 54 121 101 149c35 21 73 34 113 34z" fill="#E8EAF0"/>
<text transform="translate(104.3375, 74.6329)" font-family="Century Schoolbook L" font-size="2.4695" text-anchor="start" fill="#E8EAF0">
<tspan>
mage</tspan>
</text>
<rect transform="translate(107.9707, 67.8546)" x="-0.0757" y="-1.5000" width="0.1514" height="3.3269" ry="0.0500" fill="#E8EAF0"/>
<text transform="translate(113.8829, 64.0559)" font-family="sans-serif" font-size="1.9603" text-anchor="start" fill="#E8EAF0">
<tspan>
G</tspan>
</text>
<text transform="translate(115.4194, 64.0559)" font-family="sans-serif" font-size="1.9603" text-anchor="start" fill="#E8EAF0">
<tspan/>
</text>
<text transform="translate(115.4194, 64.0559)" font-family="sans-serif" font-size="1.9603" text-anchor="start" fill="#E8EAF0">
<tspan/>
</text>
<text transform="translate(115.4194, 63.1650)" font-family="sans-serif" font-size="1.3858" text-anchor="start" fill="#E8EAF0">
<tspan/>
</text>
<text transform="translate(115.4194, 63.1650)" font-family="sans-serif" font-size="1.3858" text-anchor="start" fill="#E8EAF0">
<tspan>
7</tspan>
</text>
<path transform="translate(113.8829, 69.8546) scale(0.0040, -0.0040)" d="M214 140c59 0 115 -32 115 -97c0 -72 -54 -121 -101 -149c-35 -21 -74 -34 -114 -34c-59 0 -114 32 -114 97c0 72 54 121 101 149c35 21 73 34 113 34z" fill="#E8EAF0"/>
<path transform="translate(73.8760, 68.8546) scale(0.0040, -0.0040)" d="M214 140c59 0 115 -32 115 -97c0 -72 -54 -121 -101 -149c-35 -21 -74 -34 -114 -34c-59 0 -114 32 -114 97c0 72 54 121 101 149c35 21 73 34 113 34z" fill="#E8EAF0"/>
<text transform="translate(71.6738, 74.6329)" font-family="Century Schoolbook L" font-size="2.4695" text-anchor="start" fill="#E8EAF0">
<tspan>
ness;</tspan>
</text>
<rect transform="translate(75.1149, 67.8546)" x="-0.0757" y="-2.5000" width="0.1514" height="3.3269" ry="0.0500" fill="#E8EAF0"/>
<text transform="translate(80.9199, 64.0559)" font-family="sans-serif" font-size="1.9603" text-anchor="start" fill="#E8EAF0">
<tspan>
A</tspan>
</text>
<text transform="translate(82.2430, 64.0559)" font-family="sans-serif" font-size="1.9603" text-anchor="start" fill="#E8EAF0">
<tspan/>
</text>
<text transform="translate(82.2430, 64.0559)" font-family="sans-serif" font-size="1.9603" text-anchor="start" fill="#E8EAF0">
<tspan>
m</tspan>
</text>
<text transform="translate(84.1209, 63.1650)" font-family="sans-serif" font-size="1.3858" text-anchor="start" fill="#E8EAF0">
<tspan/>
</text>
<path transform="translate(80.9199, 70.8546) scale(0.0040, -0.0040)" d="M214 140c59 0 115 -32 115 -97c0 -72 -54 -121 -101 -149c-35 -21 -74 -34 -114 -34c-59 0 -114 32 -114 97c0 72 54 121 101 149c35 21 73 34 113 34z" fill="#E8EAF0"/>
<text transform="translate(77.8428, 74.6329)" font-family="Century Schoolbook L" font-size="2.4695" text-anchor="start" fill="#E8EAF0">
<tspan>
Stamp</tspan>
</text>
<rect transform="translate(82.1589, 67.8546)" x="-0.0757" y="-0.8247" width="0.1514" height="3.6516" ry="0.0500" fill="#E8EAF0"/>
<path transform="translate(88.4333, 69.8546) scale(0.0040, -0.0040)" d="M214 140c59 0 115 -32 115 -97c0 -72 -54 -121 -101 -149c-35 -21 -74 -34 -114 -34c-59 0 -114 32 -114 97c0 72 54 121 101 149c35 21 73 34 113 34z" fill="#E8EAF0"/>
<text transform="translate(85.7617, 74.6329)" font-family="Century Schoolbook L" font-size="2.4695" text-anchor="start" fill="#E8EAF0">
<tspan>
Thine</tspan>
</text>
<rect transform="translate(89.6723, 67.8546)" x="-0.0757" y="-1.4695" width="0.1514" height="3.2964" ry="0.0500" fill="#E8EAF0"/>
<path transform="translate(94.5383, 68.8546) scale(0.0040, -0.0040)" d="M214 140c59 0 115 -32 115 -97c0 -72 -54 -121 -101 -149c-35 -21 -74 -34 -114 -34c-59 0 -114 32 -114 97c0 72 54 121 101 149c35 21 73 34 113 34z" fill="#E8EAF0"/>
<text transform="translate(92.8696, 74.6329)" font-family="Century Schoolbook L" font-size="2.4695" text-anchor="start" fill="#E8EAF0">
<tspan>
own</tspan>
</text>
<text transform="translate(118.6482, 66.1088)" font-family="Century Schoolbook L" font-style="italic" font-size="1.7463" text-anchor="start" fill="#E8EAF0">
<tspan>
3</tspan>
</text>
<polygon transform="translate(115.0462, 66.6728)" stroke-linejoin="round" stroke-linecap="round" stroke-width="0.1000" fill="#E8EAF0" stroke="#E8EAF0" points="8.1357 0.1736 8.1357 0.5536 0.0500 0.1900 0.0500 -0.1900"/>
<rect transform="translate(102.2748, 74.6329)" x="0.0000" y="-0.5714" width="0.6600" height="0.1514" ry="0.0466" fill="#E8EAF0"/>
<text transform="translate(88.4772, 65.6966)" font-family="Century Schoolbook L" font-style="italic" font-size="1.7463" text-anchor="start" fill="#E8EAF0">
<tspan>
3</tspan>
</text>
<polygon transform="translate(82.0832, 67.0364)" stroke-linejoin="round" stroke-linecap="round" stroke-width="0.1000" fill="#E8EAF0" stroke="#E8EAF0" points="13.7197 -1.3718 13.7197 -0.9918 0.0500 0.1900 0.0500 -0.1900"/>
<rect transform="translate(70.1583, 74.6329)" x="0.0000" y="-0.5714" width="0.6600" height="0.1514" ry="0.0466" fill="#E8EAF0"/>
<text transform="translate(57.1723, 72.2977)" font-family="Century Schoolbook L" font-style="italic" font-size="1.7463" text-anchor="start" fill="#E8EAF0">
<tspan>
3</tspan>
</text>
<polygon transform="translate(53.4457, 70.0364)" stroke-linejoin="round" stroke-linecap="round" stroke-width="0.1000" fill="#E8EAF0" stroke="#E8EAF0" points="8.3848 0.4464 8.3848 0.8264 0.0500 0.1900 0.0500 -0.1900"/>
<rect transform="translate(43.1495, 74.6329)" x="0.0000" y="-0.5714" width="0.6367" height="0.1514" ry="0.0466" fill="#E8EAF0"/>
<text transform="translate(29.6373, 65.1121)" font-family="Century Schoolbook L" font-style="italic" font-size="1.7463" text-anchor="start" fill="#E8EAF0">
<tspan>
3</tspan>
</text>
<polygon transform="translate(25.7399, 65.8546)" stroke-linejoin="round" stroke-linecap="round" stroke-width="0.1000" fill="#E8EAF0" stroke="#E8EAF0" points="8.7263 -0.1900 8.7263 0.1900 0.0500 0.1900 0.0500 -0.1900"/>
<text transform="translate(111.8941, 74.6329)" font-family="Century Schoolbook L" font-size="2.4695" text-anchor="start" fill="#E8EAF0">
<tspan>
deep</tspan>
</text>
<rect transform="translate(115.1219, 67.8546)" x="-0.0757" y="-1.1784" width="0.1514" height="3.0053" ry="0.0500" fill="#E8EAF0"/>
<path transform="translate(118.3448, 70.8546) scale(0.0040, -0.0040)" d="M214 140c59 0 115 -32 115 -97c0 -72 -54 -121 -101 -149c-35 -21 -74 -34 -114 -34c-59 0 -114 32 -114 97c0 72 54 121 101 149c35 21 73 34 113 34z" fill="#E8EAF0"/>
<text transform="translate(117.6363, 74.6329)" font-family="Century Schoolbook L" font-size="2.4695" text-anchor="start" fill="#E8EAF0">
<tspan>
on</tspan>
</text>
<rect transform="translate(119.5837, 67.8546)" x="-0.0757" y="-0.9802" width="0.1514" height="3.8071" ry="0.0500" fill="#E8EAF0"/>
<path transform="translate(121.9172, 70.3546) scale(0.0040, -0.0040)" d="M214 140c59 0 115 -32 115 -97c0 -72 -54 -121 -101 -149c-35 -21 -74 -34 -114 -34c-59 0 -114 32 -114 97c0 72 54 121 101 149c35 21 73 34 113 34z" fill="#E8EAF0"/>
<text transform="translate(120.8247, 74.6329)" font-family="Century Schoolbook L" font-size="2.4695" text-anchor="start" fill="#E8EAF0">
<tspan>
my</tspan>
</text>
<rect transform="translate(123.1562, 67.8546)" x="-0.0757" y="-0.8216" width="0.1514" height="3.1484" ry="0.0500" fill="#E8EAF0"/>
<text transform="translate(127.5108, 64.0559)" font-family="sans-serif" font-size="1.9603" text-anchor="start" fill="#E8EAF0">
<tspan>
F</tspan>
</text>
<text transform="translate(128.6205, 64.0559)" font-family="sans-serif" font-size="1.9603" text-anchor="start" fill="#E8EAF0">
<tspan/>
</text>
<text transform="translate(128.6205, 64.0559)" font-family="sans-serif" font-size="1.9603" text-anchor="start" fill="#E8EAF0">
<tspan/>
</text>
<text transform="translate(128.6205, 63.1650)" font-family="sans-serif" font-size="1.3858" text-anchor="start" fill="#E8EAF0">
<tspan/>
</text>
<text transform="translate(128.6205, 64.0559)" font-family="sans-serif" font-size="1.9603" text-anchor="start" fill="#E8EAF0">
<tspan>
/</tspan>
</text>
<text transform="translate(129.5167, 64.0559)" font-family="sans-serif" font-size="1.9603" text-anchor="start" fill="#E8EAF0">
<tspan>
C</tspan>
</text>
<text transform="translate(130.8825, 64.0559)" font-family="sans-serif" font-size="1.9603" text-anchor="start" fill="#E8EAF0">
<tspan/>
</text>
<path transform="translate(127.5108, 70.8546) scale(0.0040, -0.0040)" d="M312 63c0 23 -20 40 -41 40c-4 0 -7 -1 -11 -2c-30 -8 -75 -38 -111 -61s-81 -52 -101 -76c-7 -8 -10 -17 -10 -27c0 -23 19 -40 40 -40c4 0 8 1 12 2c30 8 75 38 111 61s81 52 101 76c7 8 10 17 10 27zM258 140c51 0 92 -23 92 -78c0 -19 -4 -38 -10 -56
c-11 -38 -31 -75 -64 -97c-53 -36 -112 -49 -185 -49c-51 0 -91 23 -91 78c0 19 4 38 10 56c11 38 30 75 63 97c53 36 112 49 185 49z" fill="#E8EAF0"/>
<text transform="translate(124.7744, 74.6329)" font-family="Century Schoolbook L" font-size="2.4695" text-anchor="start" fill="#E8EAF0">
<tspan>
heart.</tspan>
</text>
<rect transform="translate(128.8337, 67.8546)" x="-0.0757" y="-0.5000" width="0.1514" height="3.2518" ry="0.0500" fill="#E8EAF0"/>
<text transform="translate(14.8337, 64.0559)" font-family="sans-serif" font-size="1.9603" text-anchor="start" fill="#E8EAF0">
<tspan>
C</tspan>
</text>
<text transform="translate(16.1995, 64.0559)" font-family="sans-serif" font-size="1.9603" text-anchor="start" fill="#E8EAF0">
<tspan/>
</text>
<text transform="translate(16.1995, 64.0559)" font-family="sans-serif" font-size="1.9603" text-anchor="start" fill="#E8EAF0">
<tspan/>
</text>
<text transform="translate(16.1995, 63.1650)" font-family="sans-serif" font-size="1.3858" text-anchor="start" fill="#E8EAF0">
<tspan/>
</text>
<path transform="translate(14.8337, 69.8546) scale(0.0040, -0.0040)" d="M312 63c0 23 -20 40 -41 40c-4 0 -7 -1 -11 -2c-30 -8 -75 -38 -111 -61s-81 -52 -101 -76c-7 -8 -10 -17 -10 -27c0 -23 19 -40 40 -40c4 0 8 1 12 2c30 8 75 38 111 61s81 52 101 76c7 8 10 17 10 27zM258 140c51 0 92 -23 92 -78c0 -19 -4 -38 -10 -56
c-11 -38 -31 -75 -64 -97c-53 -36 -112 -49 -185 -49c-51 0 -91 23 -91 78c0 19 4 38 10 56c11 38 30 75 63 97c53 36 112 49 185 49z" fill="#E8EAF0"/>
<text transform="translate(13.4631, 74.6329)" font-family="Century Schoolbook L" font-size="2.4695" text-anchor="start" fill="#E8EAF0">
<tspan>
art;</tspan>
</text>
<rect transform="translate(16.1566, 67.8546)" x="-0.0757" y="-1.5000" width="0.1514" height="3.2518" ry="0.0500" fill="#E8EAF0"/>
<text transform="translate(24.5767, 64.0559)" font-family="sans-serif" font-size="1.9603" text-anchor="start" fill="#E8EAF0">
<tspan>
C</tspan>
</text>
<text transform="translate(25.9424, 64.0559)" font-family="sans-serif" font-size="1.9603" text-anchor="start" fill="#E8EAF0">
<tspan/>
</text>
<text transform="translate(25.9424, 64.0559)" font-family="sans-serif" font-size="1.9603" text-anchor="start" fill="#E8EAF0">
<tspan/>
</text>
<text transform="translate(25.9424, 63.1650)" font-family="sans-serif" font-size="1.3858" text-anchor="start" fill="#E8EAF0">
<tspan/>
</text>
<text transform="translate(25.9424, 63.1650)" font-family="sans-serif" font-size="1.3858" text-anchor="start" fill="#E8EAF0">
<tspan>
7</tspan>
</text>
<path transform="translate(24.5767, 68.8546) scale(0.0040, -0.0040)" d="M214 140c59 0 115 -32 115 -97c0 -72 -54 -121 -101 -149c-35 -21 -74 -34 -114 -34c-59 0 -114 32 -114 97c0 72 54 121 101 149c35 21 73 34 113 34z" fill="#E8EAF0"/>
<text transform="translate(22.0117, 74.6329)" font-family="Century Schoolbook L" font-size="2.4695" text-anchor="start" fill="#E8EAF0">
<tspan>
Come</tspan>
</text>
<rect transform="translate(25.8156, 67.8546)" x="-0.0757" y="-2.0000" width="0.1514" height="2.8269" ry="0.0500" fill="#E8EAF0"/>
<path transform="translate(29.3799, 69.3546) scale(0.0040, -0.0040)" d="M214 140c59 0 115 -32 115 -97c0 -72 -54 -121 -101 -149c-35 -21 -74 -34 -114 -34c-59 0 -114 32 -114 97c0 72 54 121 101 149c35 21 73 34 113 34z" fill="#E8EAF0"/>
<text transform="translate(28.9063, 74.6329)" font-family="Century Schoolbook L" font-size="2.4695" text-anchor="start" fill="#E8EAF0">
<tspan>
in</tspan>
</text>
<rect transform="translate(30.6189, 67.8546)" x="-0.0757" y="-2.0000" width="0.1514" height="3.3269" ry="0.0500" fill="#E8EAF0"/>
<path transform="translate(27.9299, 69.3546) scale(0.0040, -0.0040)" d="M198 -329c-12 0 -21 9 -21 21v138l-79 -30v-154c0 -12 -9 -21 -21 -21s-21 9 -21 21v138l-22 -8c-3 -1 -6 -2 -9 -2c-13 0 -25 11 -25 25v54c0 10 6 20 16 24l40 15v155l-22 -9c-3 -1 -6 -1 -9 -1c-13 0 -25 11 -25 25v54c0 10 6 19 16 23l40 15v154c0 12 9 21 21 21
s21 -9 21 -21v-138l79 30v154c0 12 9 21 21 21s21 -9 21 -21v-138l22 8c3 1 6 2 9 2c13 0 25 -11 25 -25v-54c0 -10 -6 -20 -16 -24l-40 -15v-155l22 9c3 1 6 1 9 1c13 0 25 -11 25 -25v-54c0 -10 -6 -19 -16 -23l-40 -15v-154c0 -12 -9 -21 -21 -21zM98 62v-154l79 30v154z
" fill="#E8EAF0"/>
<path transform="translate(33.2016, 68.8546) scale(0.0040, -0.0040)" d="M214 140c59 0 115 -32 115 -97c0 -72 -54 -121 -101 -149c-35 -21 -74 -34 -114 -34c-59 0 -114 32 -114 97c0 72 54 121 101 149c35 21 73 34 113 34z" fill="#E8EAF0"/>
<text transform="translate(31.6183, 74.6329)" font-family="Century Schoolbook L" font-size="2.4695" text-anchor="start" fill="#E8EAF0">
<tspan>
Thy</tspan>
</text>
<rect transform="translate(34.4405, 67.8546)" x="-0.0757" y="-2.0000" width="0.1514" height="2.8269" ry="0.0500" fill="#E8EAF0"/>
<text transform="translate(7.0705, 64.8046)" font-family="Century Schoolbook L" font-size="1.7463" text-anchor="start" fill="#E8EAF0">
<tspan>
12</tspan>
</text>
<path transform="translate(9.8338, 68.8546) scale(0.0040, -0.0040)" d="M379 264c3 0 7 1 10 1c157 0 258 -129 258 -263c0 -77 -33 -155 -108 -211c-22 -16 -46 -29 -72 -37c3 -33 4 -66 4 -99c0 -21 0 -41 -1 -62c-7 -121 -91 -229 -211 -229c-108 0 -196 88 -196 197c0 58 54 103 113 103c54 0 95 -47 95 -103c0 -52 -43 -95 -95 -95
c-9 0 -18 1 -27 4c25 -37 66 -61 113 -61c95 0 156 93 162 191c1 19 2 38 2 57c0 29 -1 58 -3 87c-29 -5 -58 -8 -88 -8c-189 0 -333 173 -333 376c0 177 129 308 244 443c-20 62 -40 124 -48 189c-7 52 -7 105 -7 158c0 114 54 221 147 288c4 3 8 4 12 4c5 0 9 -2 13 -5
c72 -83 135 -243 135 -356c0 -142 -84 -255 -176 -364c21 -68 40 -136 57 -205zM463 -201c65 24 110 94 110 161c0 88 -64 175 -167 188c24 -114 44 -227 57 -349zM77 25c0 -133 128 -243 261 -243c27 0 55 1 81 5c-13 126 -35 244 -60 362c-79 -8 -124 -60 -124 -118
c0 -43 25 -88 80 -120c5 -5 7 -11 7 -17c0 -12 -10 -23 -23 -23c-3 0 -7 1 -10 2c-81 43 -118 115 -118 186c0 89 60 177 163 200c-14 57 -30 113 -47 169c-105 -122 -210 -243 -210 -403zM403 1038c-99 -46 -161 -145 -161 -254c0 -71 21 -130 39 -188
c78 97 142 199 142 324c0 51 -4 72 -20 118z" fill="#E8EAF0"/>
<text transform="translate(134.5473, 64.0559)" font-family="sans-serif" font-size="1.9603" text-anchor="start" fill="#E8EAF0">
<tspan>
C</tspan>
</text>
<text transform="translate(135.9131, 64.0559)" font-family="sans-serif" font-size="1.9603" text-anchor="start" fill="#E8EAF0">
<tspan/>
</text>
<text transform="translate(135.9131, 64.0559)" font-family="sans-serif" font-size="1.9603" text-anchor="start" fill="#E8EAF0">
<tspan/>
</text>
<text transform="translate(135.9131, 63.1650)" font-family="sans-serif" font-size="1.3858" text-anchor="start" fill="#E8EAF0">
<tspan/>
</text>
<path transform="translate(139.1945, 67.8546) scale(0.0040, -0.0040)" d="M-24 -119c0 31 14 43 46 43c30 0 69 -9 106 -23l-126 151c-7 9 -11 17 -11 26c0 34 51 66 88 101c23 22 36 51 36 81c0 25 -9 50 -26 70l-31 37c-3 4 -4 8 -4 12c0 10 9 18 19 18c5 0 9 -1 13 -6l149 -178c7 -9 11 -17 11 -26c0 -34 -52 -66 -89 -101
c-23 -22 -35 -51 -35 -81c0 -25 9 -51 26 -71l79 -94c3 -4 4 -8 4 -12c0 -10 -9 -18 -19 -18c-5 0 -9 2 -13 7c-16 19 -57 33 -89 33c-41 0 -55 -23 -55 -65c0 -33 11 -73 27 -92c6 -7 0 -15 -7 -15c-2 0 -5 2 -7 4c-44 53 -92 145 -92 199z" fill="#E8EAF0"/>
<path transform="translate(53.4457, 67.3546) scale(0.0040, -0.0040)" d="M214 140c59 0 115 -32 115 -97c0 -72 -54 -121 -101 -149c-35 -21 -74 -34 -114 -34c-59 0 -114 32 -114 97c0 72 54 121 101 149c35 21 73 34 113 34z" fill="#E8EAF0"/>
<text transform="translate(51.2222, 74.6329)" font-family="Century Schoolbook L" font-size="2.4695" text-anchor="start" fill="#E8EAF0">
<tspan>
come</tspan>
</text>
<rect transform="translate(53.5214, 67.8546)" x="-0.0757" y="-0.3269" width="0.1514" height="2.5143" ry="0.0500" fill="#E8EAF0"/>
<path transform="translate(57.9076, 67.8546) scale(0.0040, -0.0040)" d="M214 140c59 0 115 -32 115 -97c0 -72 -54 -121 -101 -149c-35 -21 -74 -34 -114 -34c-59 0 -114 32 -114 97c0 72 54 121 101 149c35 21 73 34 113 34z" fill="#E8EAF0"/>
<text transform="translate(57.4339, 74.6329)" font-family="Century Schoolbook L" font-size="2.4695" text-anchor="start" fill="#E8EAF0">
<tspan>
in</tspan>
</text>
<rect transform="translate(57.9832, 67.8546)" x="-0.0757" y="0.1731" width="0.1514" height="2.3510" ry="0.0500" fill="#E8EAF0"/>
<path transform="translate(61.7292, 68.3546) scale(0.0040, -0.0040)" d="M214 140c59 0 115 -32 115 -97c0 -72 -54 -121 -101 -149c-35 -21 -74 -34 -114 -34c-59 0 -114 32 -114 97c0 72 54 121 101 149c35 21 73 34 113 34z" fill="#E8EAF0"/>
<text transform="translate(60.1459, 74.6329)" font-family="Century Schoolbook L" font-size="2.4695" text-anchor="start" fill="#E8EAF0">
<tspan>
Thy</tspan>
</text>
<rect transform="translate(61.8049, 67.8546)" x="-0.0757" y="0.6731" width="0.1514" height="2.1394" ry="0.0500" fill="#E8EAF0"/>
<text transform="translate(66.7249, 64.0559)" font-family="sans-serif" font-size="1.9603" text-anchor="start" fill="#E8EAF0">
<tspan>
C</tspan>
</text>
<text transform="translate(68.0906, 64.0559)" font-family="sans-serif" font-size="1.9603" text-anchor="start" fill="#E8EAF0">
<tspan/>
</text>
<text transform="translate(68.0906, 64.0559)" font-family="sans-serif" font-size="1.9603" text-anchor="start" fill="#E8EAF0">
<tspan/>
</text>
<text transform="translate(68.0906, 63.1650)" font-family="sans-serif" font-size="1.3858" text-anchor="start" fill="#E8EAF0">
<tspan/>
</text>
<text transform="translate(68.0906, 64.0559)" font-family="sans-serif" font-size="1.9603" text-anchor="start" fill="#E8EAF0">
<tspan>
/</tspan>
</text>
<text transform="translate(68.9869, 64.0559)" font-family="sans-serif" font-size="1.9603" text-anchor="start" fill="#E8EAF0">
<tspan>
E</tspan>
</text>
<text transform="translate(70.2245, 64.0559)" font-family="sans-serif" font-size="1.9603" text-anchor="start" fill="#E8EAF0">
<tspan/>
</text>
<path transform="translate(66.7249, 68.3546) scale(0.0040, -0.0040)" d="M214 140c59 0 115 -32 115 -97c0 -72 -54 -121 -101 -149c-35 -21 -74 -34 -114 -34c-59 0 -114 32 -114 97c0 72 54 121 101 149c35 21 73 34 113 34z" fill="#E8EAF0"/>
<text transform="translate(65.4616, 74.6329)" font-family="Century Schoolbook L" font-size="2.4695" text-anchor="start" fill="#E8EAF0">
<tspan>
full</tspan>
</text>
<rect transform="translate(67.9638, 67.8546)" x="-0.0757" y="-3.0000" width="0.1514" height="3.3269" ry="0.0500" fill="#E8EAF0"/>
<rect transform="translate(40.3961, 67.8546)" x="-0.0757" y="-3.0000" width="0.1514" height="3.3269" ry="0.0500" fill="#E8EAF0"/>
<text transform="translate(36.5496, 74.6329)" font-family="Century Schoolbook L" font-size="2.4695" text-anchor="start" fill="#E8EAF0">
<tspan>
sweet</tspan>
</text>
<path transform="translate(39.1572, 68.3546) scale(0.0040, -0.0040)" d="M214 140c59 0 115 -32 115 -97c0 -72 -54 -121 -101 -149c-35 -21 -74 -34 -114 -34c-59 0 -114 32 -114 97c0 72 54 121 101 149c35 21 73 34 113 34z" fill="#E8EAF0"/>
<path transform="translate(46.0583, 69.3546) scale(0.0040, -0.0040)" d="M214 140c59 0 115 -32 115 -97c0 -72 -54 -121 -101 -149c-35 -21 -74 -34 -114 -34c-59 0 -114 32 -114 97c0 72 54 121 101 149c35 21 73 34 113 34z" fill="#E8EAF0"/>
<text transform="translate(39.1572, 64.0559)" font-family="sans-serif" font-size="1.9603" text-anchor="start" fill="#E8EAF0">
<tspan>
F</tspan>
</text>
<text transform="translate(40.2669, 64.0559)" font-family="sans-serif" font-size="1.9603" text-anchor="start" fill="#E8EAF0">
<tspan/>
</text>
<text transform="translate(40.2669, 64.0559)" font-family="sans-serif" font-size="1.9603" text-anchor="start" fill="#E8EAF0">
<tspan/>
</text>
<text transform="translate(40.2669, 63.1650)" font-family="sans-serif" font-size="1.3858" text-anchor="start" fill="#E8EAF0">
<tspan/>
</text>
<text transform="translate(43.8562, 74.6329)" font-family="Century Schoolbook L" font-size="2.4695" text-anchor="start" fill="#E8EAF0">
<tspan>
ness,</tspan>
</text>
<rect transform="translate(47.2973, 67.8546)" x="-0.0757" y="-2.0000" width="0.1514" height="3.3269" ry="0.0500" fill="#E8EAF0"/>
<text transform="translate(54.5178, 82.8546)" font-family="Century Schoolbook L" font-weight="bold" font-size="2.1999" text-anchor="start" fill="#E8EAF0">
<tspan>
2.</tspan>
</text>
<text transform="translate(56.9957, 82.8546)" font-family="Century Schoolbook L" font-size="2.1999" text-anchor="start" fill="#E8EAF0">
<tspan>
O to be like Thee! full of compassion, </tspan>
</text>
<text transform="translate(56.9957, 85.8546)" font-family="Century Schoolbook L" font-size="2.1999" text-anchor="start" fill="#E8EAF0">
<tspan>
Loving, forgiving, tender and kind, </tspan>
</text>
<text transform="translate(56.9957, 88.8546)" font-family="Century Schoolbook L" font-size="2.1999" text-anchor="start" fill="#E8EAF0">
<tspan>
Helping the helpless, cheering the fainting, </tspan>
</text>
<text transform="translate(56.9957, 91.8546)" font-family="Century Schoolbook L" font-size="2.1999" text-anchor="start" fill="#E8EAF0">
<tspan>
Seeking the wand’ring sinners to find. </tspan>
</text>
<text transform="translate(56.9957, 93.8546)" font-family="Century Schoolbook L" font-size="1.5560" text-anchor="start" fill="#E8EAF0">
<tspan>
 </tspan>
</text>
<text transform="translate(54.5178, 96.8546)" font-family="Century Schoolbook L" font-weight="bold" font-size="2.1999" text-anchor="start" fill="#E8EAF0">
<tspan>
3.</tspan>
</text>
<text transform="translate(56.9957, 96.8546)" font-family="Century Schoolbook L" font-size="2.1999" text-anchor="start" fill="#E8EAF0">
<tspan>
O to be like Thee! lowly in spirit, </tspan>
</text>
<text transform="translate(56.9957, 99.8546)" font-family="Century Schoolbook L" font-size="2.1999" text-anchor="start" fill="#E8EAF0">
<tspan>
Holy and harmless, patient and brave; </tspan>
</text>
<text transform="translate(56.9957, 102.8546)" font-family="Century Schoolbook L" font-size="2.1999" text-anchor="start" fill="#E8EAF0">
<tspan>
Meekly enduring cruel reproaches, </tspan>
</text>
<text transform="translate(56.9957, 105.8546)" font-family="Century Schoolbook L" font-size="2.1999" text-anchor="start" fill="#E8EAF0">
<tspan>
Willing to suffer, others to save. </tspan>
</text>
<text transform="translate(56.9957, 107.8546)" font-family="Century Schoolbook L" font-size="1.5560" text-anchor="start" fill="#E8EAF0">
<tspan>
 </tspan>
</text>
<text transform="translate(54.5178, 110.8546)" font-family="Century Schoolbook L" font-weight="bold" font-size="2.1999" text-anchor="start" fill="#E8EAF0">
<tspan>
4.</tspan>
</text>
<text transform="translate(56.9957, 110.8546)" font-family="Century Schoolbook L" font-size="2.1999" text-anchor="start" fill="#E8EAF0">
<tspan>
O to be like Thee! Lord, I am coming, </tspan>
</text>
<text transform="translate(56.9957, 113.8546)" font-family="Century Schoolbook L" font-size="2.1999" text-anchor="start" fill="#E8EAF0">
<tspan>
Now to receive th’ anointing divine; </tspan>
</text>
<text transform="translate(56.9957, 116.8546)" font-family="Century Schoolbook L" font-size="2.1999" text-anchor="start" fill="#E8EAF0">
<tspan>
All that I am and have I am bringing; </tspan>
</text>
<text transform="translate(56.9957, 119.8546)" font-family="Century Schoolbook L" font-size="2.1999" text-anchor="start" fill="#E8EAF0">
<tspan>
Lord, from this moment all shall be Thine. </tspan>
</text>
<text transform="translate(56.9957, 121.8546)" font-family="Century Schoolbook L" font-size="1.5560" text-anchor="start" fill="#E8EAF0">
<tspan>
 </tspan>
</text>
<text transform="translate(54.5178, 124.8546)" font-family="Century Schoolbook L" font-weight="bold" font-size="2.1999" text-anchor="start" fill="#E8EAF0">
<tspan>
5.</tspan>
</text>
<text transform="translate(56.9957, 124.8546)" font-family="Century Schoolbook L" font-size="2.1999" text-anchor="start" fill="#E8EAF0">
<tspan>
O to be like Thee! While I am pleading </tspan>
</text>
<text transform="translate(56.9957, 127.8546)" font-family="Century Schoolbook L" font-size="2.1999" text-anchor="start" fill="#E8EAF0">
<tspan>
Pour out Thy Spirit, fill with Thy love. </tspan>
</text>
<text transform="translate(56.9957, 130.8546)" font-family="Century Schoolbook L" font-size="2.1999" text-anchor="start" fill="#E8EAF0">
<tspan>
Make me a temple meet for Thy dwelling, </tspan>
</text>
<text transform="translate(56.9957, 133.8546)" font-family="Century Schoolbook L" font-size="2.1999" text-anchor="start" fill="#E8EAF0">
<tspan>
Fit for a life which Thou wouldst approve. </tspan>
</text>
<text transform="translate(56.9957, 135.8546)" font-family="Century Schoolbook L" font-size="1.5560" text-anchor="start" fill="#E8EAF0">
<tspan>
 </tspan>
</text>
<text transform="translate(69.8622, 189.4189)" font-family="Trebuchet MS" font-size="2.1999" text-anchor="start" fill="#E8EAF0">
<tspan>
www.hymnal.net</tspan>
</text>
<text transform="translate(78.1419, 192.4189)" font-family="Century Schoolbook L" font-size="2.1999" text-anchor="start" fill="#E8EAF0">
<tspan/>
</text>
</svg>
